<svg width="137" height="40" viewBox="0 0 137 40" fill="none" xmlns="http://www.w3.org/2000/svg">
<g filter="url(#filter0_d_100_240)">
<path d="M91.2159 0.455082C91.0849 0.455082 91.0031 0.609095 90.9103 1.00778C90.8339 1.32509 90.2335 4.24115 90.2335 4.74064C90.2335 5.14505 90.3209 5.17658 90.4355 5.17658C90.5337 5.17658 90.9267 5.15223 90.9976 4.85099C91.0467 4.66195 91.1777 4.25869 91.5597 3.68132C92.0891 2.9103 92.9405 2.75882 94.7797 2.69696L99.4242 2.56414V16.0327C99.4242 19.0304 99.4242 21.3469 99.2605 22.7196C99.1731 23.6042 98.9876 24.4427 98.2453 24.5919C97.9888 24.6479 97.585 24.7235 97.061 24.7235C96.6299 24.7235 96.6299 25.1189 96.6299 25.1705C96.6299 25.2286 96.6299 25.408 97.192 25.408C97.9233 25.408 98.8893 25.3778 99.7353 25.3504L99.7571 25.3493C100.401 25.3284 100.963 25.3098 101.285 25.3098C101.64 25.3098 102.158 25.3246 102.808 25.3427H102.83C103.834 25.3723 105.084 25.408 106.388 25.408C106.546 25.408 106.912 25.3855 106.912 25.1705C106.912 25.0131 106.912 24.7235 106.481 24.7235C105.995 24.7235 105.275 24.6572 104.811 24.5919C103.741 24.4488 103.561 23.6042 103.468 22.752C103.31 21.3469 103.31 19.0304 103.31 16.0327V2.56523L107.327 2.66373C110.618 2.73705 111.196 3.89191 111.245 4.57354L111.278 4.92809C111.311 5.44937 111.546 5.50092 111.709 5.50092C111.791 5.50092 111.873 5.46659 111.917 5.05988C111.917 4.66803 111.977 2.65495 111.988 2.37773C112.004 1.75451 112.315 1.62365 112.566 1.62365C112.997 1.62365 113.554 2.00519 113.843 2.23316C114.389 2.71314 114.957 3.38276 115.486 4.1687C116.577 5.79651 120.965 13.013 121.211 13.5861C121.631 14.5278 121.964 15.2709 121.964 17.0456V19.7213C121.964 20.2401 121.964 21.3814 121.866 22.7519C121.79 23.8525 121.413 24.5013 120.791 24.6269C120.387 24.7163 120.01 24.7591 119.639 24.7591C119.274 24.7591 119.203 25.013 119.203 25.1704C119.203 25.2905 119.252 25.4079 119.83 25.4079C120.485 25.4079 121.402 25.3788 122.21 25.3525H122.226C122.859 25.3316 123.52 25.3097 123.891 25.3097C124.235 25.3097 124.764 25.3245 125.375 25.3426L125.408 25.3448C126.396 25.3733 127.613 25.4079 128.857 25.4079C129.13 25.4079 129.452 25.3673 129.452 25.1704C129.452 25.019 129.392 24.7591 129.021 24.7591C128.557 24.7591 127.847 24.6933 127.384 24.628C126.243 24.4744 126.036 23.5454 125.981 22.7519C125.883 21.3814 125.883 20.2401 125.883 19.7213V17.0456C125.883 15.9619 125.883 14.938 126.374 13.7496C126.941 12.3889 131.504 4.67489 132.596 3.34717C133.316 2.45687 133.676 2.06222 134.375 1.72423C134.861 1.46648 135.494 1.32685 135.843 1.32685C136.001 1.32685 136.372 1.30239 136.372 1.08587C136.372 0.971309 136.203 0.913396 135.876 0.913396V0.912299C135.586 0.912299 134.959 0.9344 134.298 0.957324L134.26 0.958366C133.534 0.983593 132.781 1.01085 132.405 1.01085C131.941 1.01085 131.471 0.987816 130.969 0.96374C130.445 0.939665 129.905 0.913396 129.348 0.913396C128.917 0.913396 128.884 0.998675 128.884 1.12015C128.884 1.24497 129.168 1.30853 129.403 1.36008C129.894 1.47459 130.151 1.78555 130.151 2.25982C130.151 2.73064 129.992 3.31448 129.687 3.99611C129.457 4.50477 128.317 6.56474 127.209 8.55605C126.112 10.5331 124.977 12.5765 124.818 12.9659L124.748 13.1299L124.66 12.9752C124.562 12.8035 124.322 12.3851 123.994 11.812L123.858 11.5756C122.335 8.92459 119.497 3.99101 119.137 3.21335C118.853 2.64832 118.733 2.30649 118.733 2.06595C118.733 1.73942 118.952 1.46209 119.263 1.39217L119.421 1.35043C119.787 1.25418 119.907 1.21519 119.907 1.12015C119.907 1.06399 119.907 0.913396 119.508 0.913396C118.679 0.913396 117.882 0.943723 117.232 0.971254C117.205 0.972625 111.136 0.986993 109.466 0.9916L109.45 0.995878H109.433C109.417 0.995878 109.406 0.995549 109.395 0.99692H109.384C109.368 0.998291 109.352 0.999114 109.33 0.999114C109.144 1.0046 108.948 1.01085 108.719 1.01085H103.85H95.8604C94.8016 1.01085 93.5572 0.945752 92.6021 0.843746C92.0891 0.804809 91.7671 0.663097 91.5325 0.558843C91.4015 0.500447 91.2978 0.454956 91.2159 0.454956V0.455082ZM66.8258 0.650007C66.7385 0.650007 66.6293 0.686367 66.5257 0.720698C66.4602 0.742525 66.3892 0.76682 66.3237 0.781792C66.089 0.837895 65.6142 0.904418 64.9156 0.978838C64.3535 1.00752 59.0432 1.00993 56.7838 1.00993C56.3636 1.00993 55.6977 0.982952 54.9282 0.953172L54.7372 0.946756C54.3388 0.946756 53.9213 0.938694 53.4765 0.930687C53.0273 0.921474 52.5612 0.913522 52.1121 0.913522C51.5308 0.913522 51.4823 1.01487 51.4823 1.12028C51.4823 1.21992 51.3606 1.48552 51.7901 1.48552C52.2327 1.48552 52.803 1.51645 53.0802 1.58407C54.2362 1.83377 54.4779 2.43319 54.5385 3.52493C54.6062 4.57202 54.7645 5.31129 54.7645 10.2913V16.0338C54.7645 19.0315 54.7645 21.3781 54.6007 22.7519C54.4714 23.6897 54.3077 24.4784 53.5927 24.6231C53.3329 24.6791 52.9253 24.7548 52.403 24.7548C51.9702 24.7548 51.9702 25.1222 51.9702 25.1705C51.9702 25.2286 51.9702 25.4079 52.5334 25.4079C52.8456 25.4079 53.1987 25.3931 53.5714 25.3783C53.9704 25.3608 54.383 25.3438 54.7754 25.3438C55.5504 25.3092 56.2762 25.3098 56.6255 25.3098C57.6516 25.3098 58.7158 25.3498 60.0092 25.4079C60.2712 25.414 60.555 25.4216 60.8497 25.4293C62.0941 25.4628 63.644 25.5055 65.6197 25.5055C66.8531 25.5055 67.0769 25.505 67.2897 24.7224C67.4534 24.0797 67.7099 21.8613 67.7099 21.1259C67.7099 20.7376 67.6881 20.6246 67.5353 20.6246C67.3934 20.6246 67.0932 20.6608 67.0223 21.042C66.7876 22.4306 66.3619 23.1243 65.5105 23.5197C64.6482 23.9217 63.5021 23.9212 62.6671 23.9212C59.3816 23.9212 58.7485 23.4731 58.683 21.0957C58.6612 20.4223 58.6667 18.737 58.6776 17.384V17.3637C58.6776 16.8268 58.683 16.3519 58.683 16.0338V13.454C58.683 13.3307 58.683 13.0405 58.9614 13.0405C59.6927 13.0405 62.9454 13.0729 63.584 13.1393C64.681 13.2599 65.2813 13.6844 65.4778 14.4774C65.5542 14.7966 65.5706 15.1092 65.5869 15.3867C65.5924 15.4865 65.6033 15.5803 65.6088 15.6675C65.6088 15.8232 65.6633 15.8792 65.8162 15.8792C65.9908 15.8792 66.0235 15.6927 66.0235 15.3483C66.0235 15.22 66.0508 14.7637 66.0836 14.2811V14.2438C66.1109 13.8495 66.1382 13.4431 66.1491 13.1574C66.2364 12.0506 66.3237 11.4375 66.3728 11.1085C66.4001 10.939 66.411 10.8381 66.411 10.7778C66.411 10.6193 66.3401 10.605 66.2691 10.605C66.16 10.605 66.0563 10.7279 65.8762 10.9308L65.8162 10.9993C65.5051 11.3487 65.0084 11.4512 64.1952 11.5187C63.5458 11.5763 60.6587 11.5839 58.9941 11.5839C58.683 11.5839 58.683 11.3026 58.683 11.1353V2.88108C58.683 2.77919 58.683 2.46873 58.9941 2.46873C59.6218 2.46873 62.8909 2.533 63.4585 2.59942C65.1722 2.80447 65.4832 3.25856 65.707 3.82908C65.8653 4.21632 65.9089 4.76841 65.9089 5.03302C65.9089 5.37672 66.16 5.40365 66.2691 5.40365C66.4001 5.40365 66.4656 5.32621 66.5093 5.1166C66.5475 4.87371 66.5911 4.20464 66.6239 3.66735C66.6403 3.35804 66.6566 3.09157 66.673 2.96894C66.7385 1.95393 66.8313 1.44927 66.8858 1.14912C66.9131 1.01854 66.9295 0.925313 66.9295 0.858844C66.9295 0.650336 66.8695 0.649952 66.8258 0.649952V0.650007ZM1.10515 0.912425C0.527185 0.912425 0.478394 1.01591 0.478394 1.12132C0.478399 1.21987 0.514578 1.5776 0.942073 1.5776C1.39238 1.5776 1.78036 1.61308 2.03573 1.67725C3.19176 1.92585 3.43533 2.52527 3.50033 3.61706C3.5596 4.66531 3.56004 5.31135 3.56004 10.2902V16.0338C3.56004 19.0315 3.55955 21.4176 3.40335 22.7914C3.27226 23.7298 3.10673 24.5184 2.38965 24.6626C2.132 24.7186 1.72551 24.7942 1.20109 24.7942C0.77245 24.7942 0.772614 25.1189 0.772614 25.1716C0.772614 25.2297 0.772396 25.4079 1.33328 25.4079C1.65135 25.4079 2.01903 25.392 2.3747 25.3772H2.38321C2.77884 25.3608 3.18969 25.3438 3.5739 25.3438C4.35025 25.3092 5.07551 25.3098 5.42436 25.3098C6.64561 25.3098 7.79444 25.3383 9.39189 25.4079C9.7188 25.4162 10.0583 25.4244 10.4152 25.4348H10.4267C11.6661 25.4683 13.0703 25.5055 14.8763 25.5055C16.6145 25.5055 16.9103 25.3158 17.0806 24.6895C17.3382 23.7638 17.5685 21.3217 17.5685 20.9597C17.5685 20.5116 17.2651 20.4914 17.1499 20.4914V20.4903C16.9993 20.4903 16.9158 20.5544 16.8781 20.9038C16.8093 21.5476 16.4055 22.4865 16.0125 22.9115C15.1437 23.8543 13.7536 23.8537 12.1463 23.8537C9.49777 23.8537 8.70205 23.5949 8.16065 23.1161C7.44898 22.503 7.44843 20.3411 7.44843 16.0338V10.2902C7.44843 5.31129 7.44843 4.66509 7.51447 3.61706C7.57505 2.52406 7.80372 1.85614 8.78718 1.67396C9.19651 1.60755 9.72644 1.57651 10.0708 1.57651C10.5303 1.57651 10.5675 1.22437 10.5675 1.12126C10.5675 1.02046 10.5222 0.91237 9.97149 0.91237C9.25818 0.91237 8.20704 0.942752 7.27924 0.969186L7.24595 0.971325C6.52118 0.991946 5.8941 1.00988 5.55682 1.00988C5.17233 1.00988 4.55442 0.991946 3.90114 0.971325C2.99709 0.945001 1.97274 0.91237 1.10515 0.91237V0.912425ZM20.4246 0.912425C19.959 0.912425 19.7336 0.969131 19.7336 1.086C19.7336 1.21197 19.7675 1.48338 20.1686 1.48338C20.6358 1.48338 21.0369 1.52797 21.3573 1.61621C22.1072 1.78573 22.4581 2.35658 22.5274 3.52279C22.5923 4.57104 22.5923 5.31244 22.5923 10.2914V16.0339C22.5923 19.2449 22.5923 21.602 22.4286 22.9779C22.3315 23.9251 22.1274 24.5398 21.4157 24.683C21.0156 24.7713 20.6281 24.8146 20.2314 24.8146C19.797 24.8146 19.7964 25.1234 19.7964 25.1705C19.7964 25.2286 19.797 25.4069 20.3613 25.4069C21.0937 25.4069 22.0553 25.3767 22.9051 25.3504L22.9253 25.3493C23.5431 25.3285 24.1265 25.3098 24.4528 25.3098C24.7956 25.3098 25.3037 25.3235 25.9493 25.3427C26.9595 25.3712 28.2137 25.4069 29.5181 25.4069C29.6774 25.4069 30.0485 25.3844 30.0485 25.1705C30.0485 25.0131 29.9454 24.8146 29.6141 24.8146C29.1295 24.8146 28.4096 24.7493 27.9479 24.6841C26.9432 24.5486 26.6785 23.9437 26.5759 23.0097C26.4438 21.6009 26.4427 19.2449 26.4427 16.0339V10.2914C26.4427 5.31244 26.4438 4.57082 26.5109 3.52279C26.5737 2.4299 26.8013 1.76187 27.7825 1.58084C28.1624 1.51782 28.4309 1.48338 28.7709 1.48338C29.171 1.48338 29.2048 1.21197 29.2048 1.086C29.2048 0.971435 29.0056 0.912425 28.6099 0.912425C27.9294 0.912425 27.0343 0.942917 26.2457 0.969241C25.6426 0.98871 25.0183 1.00993 24.6477 1.00993C24.2111 1.00993 23.5332 0.98882 22.8183 0.967102H22.8036C21.9565 0.940778 21.0833 0.912425 20.4246 0.912425ZM79.1595 0.912425C78.6738 0.912425 77.8606 0.935568 77.0037 0.958492L76.9546 0.959589C76.065 0.984816 75.1427 1.00993 74.5805 1.00993C74.3131 1.00993 73.8328 0.996059 73.2762 0.978838C72.3484 0.949114 71.1968 0.913522 70.1326 0.913522C69.5486 0.913522 69.4995 1.01602 69.4995 1.12028C69.4995 1.21992 69.5377 1.46194 69.9689 1.46194C70.4109 1.46194 70.9785 1.49287 71.2569 1.56049C72.4084 1.81024 72.654 2.4107 72.7195 3.50244C72.785 4.55069 72.785 5.31244 72.785 10.2913V16.0338C72.785 19.0304 72.785 21.3792 72.6213 22.7519C72.4903 23.6908 72.3265 24.4784 71.6116 24.6242C71.3496 24.6802 70.9458 24.7559 70.4218 24.7559C69.9907 24.7559 69.9907 25.1189 69.9907 25.1705C69.9907 25.2286 69.9907 25.4068 70.5528 25.4068C71.3223 25.4068 72.3538 25.3734 73.1889 25.346C73.7401 25.3279 74.2585 25.3098 74.5151 25.3098C74.6842 25.3098 75.0772 25.3213 75.5738 25.3361C76.5562 25.3652 78.0407 25.4079 79.285 25.4079C79.8526 25.4079 79.8526 25.2297 79.8526 25.1705C79.8526 25.0191 79.8471 24.7953 79.547 24.7953C79.1486 24.7953 78.4282 24.7268 77.9479 24.6637C76.8727 24.5206 76.6981 23.6952 76.6053 22.7903C76.4416 21.4187 76.4416 19.0156 76.4416 16.0004V15.543C76.4416 15.3159 76.5617 15.1969 76.7909 15.1969L79.6125 15.26C79.8744 15.26 80.0818 15.3044 80.2674 15.5172C80.5075 15.8002 81.1079 16.6568 81.801 17.6489L81.8064 17.6604C82.3358 18.4123 82.9307 19.2613 83.4819 20.0279C85.3593 22.6258 86.56 24.0758 87.9026 24.7975C88.7594 25.2604 89.5945 25.4079 91.3354 25.4079H94.4245C94.9102 25.4079 94.9538 25.2917 94.9538 25.1705C94.9538 25.0547 94.8501 24.7761 94.6482 24.7761C94.3917 24.7761 94.097 24.7449 93.7259 24.6774L93.6877 24.6692C93.1801 24.5683 91.8321 24.2985 90.042 22.4355C88.3719 20.6723 86.4836 18.4951 84.0932 15.4618L83.8803 15.1958C83.5911 14.8273 83.2964 14.4511 82.9907 14.065L82.9362 13.9975L83.0017 13.9416C85.9815 11.5072 87.2531 9.34255 87.2531 6.70082C87.2531 4.39121 85.8396 2.81374 85.0865 2.30168C83.3127 1.07816 81.0915 0.91237 79.1595 0.91237V0.912425ZM32.7714 0.913522C32.1896 0.913522 32.141 1.01487 32.141 1.12028C32.141 1.21992 32.177 1.56049 32.6071 1.56049C33.0491 1.56049 33.6189 1.59137 33.8956 1.66008C35.0532 1.90983 35.2955 2.51035 35.3561 3.60099C35.4243 4.64924 35.4243 5.31129 35.4243 10.2912V16.0325C35.4243 19.0302 35.4243 21.4005 35.2589 22.7743C35.129 23.7121 34.962 24.4996 34.2487 24.6444C33.99 24.7003 33.5856 24.776 33.0612 24.776C32.63 24.776 32.6305 25.1176 32.6305 25.1703C32.6305 25.2284 32.6305 25.4067 33.191 25.4067C33.5092 25.4067 33.8771 25.3919 34.2318 25.3781L34.2411 25.3771C34.6379 25.3606 35.0472 25.3436 35.4341 25.3436C36.208 25.309 36.9344 25.3096 37.2832 25.3096C37.7383 25.3096 38.6961 25.3403 39.7233 25.4067C40.1359 25.4215 40.5523 25.4434 40.919 25.4615L40.9512 25.4626C41.3775 25.4845 41.7808 25.5043 41.9936 25.5043C44.7175 25.5043 46.9694 24.7354 48.51 23.2804C49.8428 22.0229 50.5768 20.3173 50.5768 18.4796C50.5768 16.0857 49.04 12.9981 44.7257 11.513L44.5756 11.462L44.7001 11.3622C46.667 9.77893 47.9768 8.21374 47.9768 5.71844C47.9768 4.59111 47.4835 0.913302 41.1493 0.913302C40.65 0.913302 40.1091 0.932223 39.5355 0.953995C38.8424 0.980319 38.062 1.00971 37.1855 1.00971C36.9377 1.00971 36.4967 0.995839 35.9379 0.978619H35.9297C35.0417 0.951143 33.8329 0.913302 32.7714 0.913302V0.913522ZM40.5943 2.07463C42.2278 2.07463 43.2101 3.02537 43.7461 3.82272C44.3721 4.75295 44.7459 6.02413 44.7459 7.22242C44.7459 8.80241 44.2733 10.0221 43.3793 10.7498C42.7823 11.2802 41.9909 11.3893 40.9845 11.3893C40.2477 11.3893 39.7429 11.3569 39.4395 11.2895C39.303 11.2566 39.1453 11.176 39.1453 10.8464V2.78352C39.1453 2.43429 39.2032 2.22786 39.5017 2.14423C39.8412 2.07436 40.1402 2.07463 40.5943 2.07463ZM78.5428 2.27387C80.4202 2.27387 83.5965 3.54939 83.5965 8.33006C83.5965 11.4023 82.374 12.7607 81.6427 13.2965C81.0533 13.7276 80.6276 13.8707 79.285 13.8707C78.3518 13.8707 77.4185 13.7462 76.7963 13.5378C76.5235 13.4232 76.4416 13.2658 76.4416 12.866V2.94514C76.4416 2.71963 76.4853 2.49823 76.7963 2.40544C77.0965 2.31265 77.6204 2.27371 78.5428 2.27371V2.27387ZM39.4258 12.5512C39.9187 12.5512 40.2439 12.5512 40.8306 12.5841C42.0941 12.65 42.8625 12.8737 43.5703 13.3832C46.4454 15.4008 46.7554 18.648 46.7554 19.9505C46.7554 21.48 46.268 22.6323 45.3059 23.3781C44.3355 24.1295 43.1867 24.2117 42.7386 24.2117C41.9816 24.2117 41.229 24.1805 40.3373 23.8174C39.2556 23.3737 39.1453 22.8127 39.1453 20.602V12.866C39.1453 12.605 39.2981 12.5512 39.4258 12.5512ZM17.7711 30.4999C17.6597 30.4999 17.6254 30.6567 17.6254 30.8827C17.6024 32.3799 17.5582 35.1609 17.5249 37.546C17.5135 38.5254 17.4693 38.8512 17.1773 38.9417C17.0212 38.9861 16.8193 38.9987 16.6736 38.9987C16.5617 38.9987 16.4945 39.0196 16.4945 39.0876C16.4945 39.1896 16.5944 39.2011 16.7407 39.2011C17.323 39.2011 17.8502 39.1665 17.9501 39.1665C18.1635 39.1665 18.6121 39.2011 19.3391 39.2011C19.4968 39.2011 19.5972 39.1781 19.5972 39.0876C19.5972 39.0196 19.5295 38.9987 19.4062 38.9987C19.2272 38.9987 19.0138 38.9867 18.8233 38.9192C18.6001 38.8402 18.4549 38.5479 18.4331 37.6694L18.3087 32.908C18.51 33.1224 19.7877 34.5631 21.0085 35.7784C22.1737 36.9378 23.6075 38.4125 24.3131 39.0876C24.4359 39.2121 24.5702 39.336 24.6935 39.336C24.7939 39.336 24.8387 39.234 24.8387 38.9867C24.884 36.612 24.9178 34.2587 24.9631 31.8841C24.9735 31.254 25.063 31.0181 25.3768 30.9277C25.5111 30.8942 25.6017 30.8942 25.7136 30.8942C25.8484 30.8942 25.9149 30.8602 25.9149 30.7927C25.9149 30.7033 25.802 30.6918 25.6573 30.6918C25.1078 30.6918 24.6821 30.7253 24.5593 30.7253C24.3246 30.7253 23.787 30.6918 23.2041 30.6918C23.0366 30.6918 22.9133 30.7033 22.9133 30.7927C22.9133 30.8602 22.958 30.8942 23.0923 30.8942C23.2489 30.8942 23.5174 30.8942 23.685 30.9617C23.954 31.0741 24.0555 31.288 24.067 31.974L24.1789 37.0842C23.9884 36.9054 22.4193 35.2262 21.6575 34.4611C20.0229 32.8296 18.3196 30.9951 18.1848 30.8481C17.9943 30.6469 17.8944 30.4999 17.7711 30.4999ZM109.022 30.5333C108.952 30.5333 108.919 30.6008 108.886 30.7478C108.864 30.8372 108.651 31.8616 108.651 32.0426C108.651 32.1665 108.673 32.2225 108.755 32.2225C108.821 32.2225 108.853 32.178 108.875 32.0876C108.897 31.9971 108.952 31.8616 109.066 31.6932C109.235 31.4459 109.503 31.3894 110.152 31.3669C110.698 31.3554 111.397 31.3329 111.822 31.3214V35.9364C111.822 36.9718 111.822 37.8613 111.768 38.3346C111.735 38.6609 111.664 38.9077 111.44 38.9527C111.342 38.9751 111.206 38.9976 111.036 38.9976C110.9 38.9976 110.856 39.0322 110.856 39.0887C110.856 39.1676 110.938 39.2 111.08 39.2C111.533 39.2 112.237 39.1665 112.494 39.1665C112.81 39.1665 113.514 39.2 114.251 39.2C114.376 39.2 114.464 39.1676 114.464 39.0887C114.464 39.0322 114.409 38.9976 114.284 38.9976C114.12 38.9976 113.874 38.9751 113.716 38.9527C113.378 38.9077 113.312 38.6604 113.279 38.345C113.219 37.8602 113.219 36.9718 113.219 35.9364V31.3214C113.88 31.3329 114.344 31.3434 114.633 31.3549C115.632 31.3779 115.932 31.6927 115.954 31.9856C115.954 32.019 115.965 32.0755 115.965 32.11C115.976 32.2784 115.997 32.3349 116.09 32.3349C116.156 32.3349 116.177 32.2674 116.188 32.155C116.188 31.8616 116.221 31.0845 116.221 30.8481C116.221 30.6798 116.21 30.6123 116.134 30.6123C116.09 30.6123 116.003 30.6337 115.834 30.6682C115.664 30.6913 115.419 30.7253 115.059 30.7253H110.622C110.25 30.7253 109.83 30.7017 109.503 30.6682C109.224 30.6452 109.11 30.5333 109.022 30.5333ZM89.124 30.5344C87.5686 30.5344 86.5371 31.4234 86.5371 32.6607C86.5371 33.5727 86.9628 34.3608 88.1962 35.3287L88.7092 35.7334C89.6425 36.4645 89.8117 36.9833 89.8117 37.5355C89.8117 38.1311 89.315 38.8183 88.3054 38.8183C87.6123 38.8183 86.9519 38.5139 86.7063 37.6798C86.6517 37.4895 86.6026 37.2537 86.6026 37.1067C86.6026 37.0173 86.5917 36.9153 86.4934 36.9153C86.4061 36.9153 86.3679 37.0403 86.357 37.2087C86.3461 37.3886 86.3024 38.0637 86.3024 38.6823C86.3024 38.9302 86.3352 38.9867 86.5153 39.0662C86.9955 39.2801 87.4976 39.3574 88.1525 39.3574C88.742 39.3574 89.3696 39.2565 89.9317 38.8967C90.7395 38.3675 90.9851 37.5904 90.9851 36.9378C90.9851 35.8689 90.5048 35.0923 89.1458 34.0679L88.8348 33.8315C87.9015 33.1224 87.645 32.7287 87.645 32.2099C87.645 31.5348 88.1526 31.0505 88.9767 31.0505C89.708 31.0505 90.03 31.3894 90.1992 31.6033C90.4338 31.8956 90.4939 32.245 90.4939 32.3459C90.4939 32.4808 90.5266 32.5482 90.603 32.5482C90.6958 32.5482 90.7285 32.4583 90.7285 32.2099C90.7285 31.3318 90.7722 31.0066 90.7722 30.8613C90.7722 30.7818 90.7176 30.7467 90.6139 30.7253C90.4939 30.6907 90.3465 30.6578 90.1555 30.6233C89.8881 30.5789 89.5497 30.5344 89.124 30.5344ZM63.4186 30.6008C63.364 30.6008 63.2986 30.6353 63.2385 30.6458C63.1512 30.6688 62.9711 30.6913 62.7583 30.7132C62.5454 30.7247 59.9858 30.7253 59.6256 30.7253C59.0416 30.7253 58.5286 30.6918 58.0101 30.6918C57.8464 30.6918 57.7645 30.7132 57.7645 30.7927C57.7645 30.8717 57.8355 30.8931 57.9555 30.8931C58.1138 30.8931 58.3048 30.9046 58.3922 30.9277C58.7633 31.0066 58.8561 31.1865 58.8724 31.5693C58.8997 31.9291 58.8997 32.245 58.8997 33.9555V35.9364C58.8997 36.9718 58.8997 37.8613 58.8397 38.3346C58.796 38.6609 58.7414 38.9077 58.5177 38.9527C58.414 38.9751 58.283 38.9987 58.1138 38.9987C57.9774 38.9987 57.9337 39.0311 57.9337 39.0876C57.9337 39.1665 58.0101 39.2011 58.1575 39.2011C58.665 39.2011 59.1235 39.1665 59.571 39.1665C60.6898 39.1665 62.0106 39.234 63.0038 39.234C63.4295 39.234 63.5332 39.234 63.6096 38.9417C63.6642 38.7157 63.757 37.9518 63.757 37.6929C63.757 37.5805 63.757 37.4895 63.6642 37.4895C63.5878 37.4895 63.566 37.535 63.5441 37.6584C63.4623 38.1202 63.3313 38.3565 63.0366 38.492C62.7473 38.6269 62.278 38.6269 61.9833 38.6269C60.8426 38.6269 60.3296 38.4574 60.3078 37.6809C60.2969 37.3546 60.3078 36.3186 60.3078 35.9364V35.0468C60.3078 34.9794 60.3187 34.9344 60.3733 34.9344C60.6461 34.9344 62.087 34.9459 62.2998 34.9678C62.7146 35.0134 62.8729 35.1823 62.9274 35.4071C62.9602 35.5536 62.9602 35.6216 62.9711 35.7334C62.9711 35.7899 62.9929 35.9144 63.0693 35.9144C63.173 35.9144 63.173 35.7899 63.173 35.7005C63.173 35.6216 63.2058 35.1708 63.2167 34.9465C63.2603 34.3712 63.3095 34.1913 63.3095 34.1238C63.3095 34.0564 63.2713 34.035 63.2276 34.035C63.173 34.035 63.1294 34.0898 63.053 34.1803C62.9493 34.2927 62.7801 34.3268 62.5127 34.3498C62.2561 34.3717 60.6352 34.3712 60.3896 34.3712C60.3187 34.3712 60.3078 34.3273 60.3078 34.2478V31.4009C60.3078 31.322 60.3296 31.2885 60.3896 31.2885C60.6134 31.2885 62.1197 31.3104 62.3107 31.3335C62.8729 31.4009 62.982 31.5353 63.0584 31.7382C63.1185 31.8726 63.1294 32.0536 63.1294 32.098C63.1294 32.2334 63.1512 32.3009 63.2276 32.3009C63.3095 32.3009 63.3313 32.2334 63.3422 32.1775C63.364 32.0426 63.3859 31.5463 63.3968 31.4344C63.4295 30.9161 63.4841 30.7807 63.4841 30.7028C63.4841 30.6452 63.4732 30.6008 63.4186 30.6008ZM1.48009 30.6907C1.31248 30.6907 1.23384 30.7132 1.23384 30.7927C1.23384 30.8717 1.30151 30.8931 1.42464 30.8931C1.58198 30.8931 1.77169 30.9057 1.86065 30.9287C2.23002 31.0066 2.32072 31.1854 2.34348 31.5693C2.36515 31.9291 2.36482 32.2439 2.36482 33.9544V35.5985C2.36482 37.2301 2.79139 38.0642 3.36253 38.5819C4.17997 39.3239 5.25436 39.3585 5.84847 39.3585C6.57543 39.3585 7.3837 39.2351 8.17942 38.5474C9.12032 37.7374 9.24202 36.408 9.24202 35.1598V33.9544C9.24202 32.2439 9.24311 31.9291 9.2644 31.5693C9.28732 31.175 9.37737 30.9847 9.67918 30.9287C9.81398 30.9057 9.88111 30.8931 10.0045 30.8931C10.1387 30.8931 10.2058 30.8717 10.2058 30.7927C10.2058 30.7132 10.1278 30.6907 9.97116 30.6907C9.53346 30.6907 8.82779 30.7253 8.69353 30.7253C8.68316 30.7253 7.97695 30.6907 7.40553 30.6907C7.24835 30.6907 7.17031 30.7132 7.17031 30.7927C7.17031 30.8717 7.23798 30.8931 7.36078 30.8931C7.48412 30.8931 7.67514 30.9057 7.76355 30.9287C8.13303 31.0066 8.22363 31.1854 8.24655 31.5693C8.26838 31.9291 8.26784 32.2439 8.26784 33.9544V35.3633C8.26784 36.5226 8.23455 37.5345 7.61783 38.1531C7.16976 38.6033 6.56561 38.7618 6.07224 38.7618C5.69129 38.7618 5.17648 38.7168 4.67257 38.3C4.12419 37.8498 3.79848 37.1637 3.79848 35.5311V33.9544C3.79848 32.2439 3.79925 31.9291 3.82091 31.5693C3.84367 31.175 3.93345 30.9847 4.23553 30.9287C4.37006 30.9057 4.43752 30.8931 4.56064 30.8931C4.67236 30.8931 4.73976 30.8717 4.73976 30.7927C4.73976 30.7132 4.66221 30.6907 4.49351 30.6907C4.08992 30.6907 3.38419 30.7253 3.11628 30.7253C2.77998 30.7253 2.07404 30.6907 1.48009 30.6907ZM42.6224 30.6907C42.4543 30.6907 42.3309 30.7023 42.3309 30.7927C42.3309 30.8602 42.3653 30.8942 42.4652 30.8942C42.5552 30.8942 42.7348 30.8937 42.9023 30.9381C43.3062 31.0505 43.4967 31.1755 43.7543 31.7942L46.577 38.6719C46.7887 39.2011 46.8575 39.3585 47.0021 39.3585C47.1593 39.3585 47.2264 39.1781 47.5168 38.5249C47.7634 37.9628 48.2901 36.7349 49.0072 35.0918C49.6114 33.707 49.9148 33.0999 50.3514 32.0415C50.6532 31.3209 50.8224 31.13 50.9676 31.0291C51.169 30.8942 51.4037 30.8942 51.5161 30.8942C51.628 30.8942 51.6957 30.8706 51.6957 30.7927C51.6957 30.7132 51.6056 30.6907 51.461 30.6907C51.1248 30.6907 50.5981 30.7253 50.4077 30.7253C50.2619 30.7253 49.7904 30.6907 49.2321 30.6907C49.0187 30.6907 48.9177 30.7138 48.9177 30.8032C48.9177 30.8821 49.0072 30.8942 49.1071 30.8942C49.2534 30.8942 49.4215 30.9052 49.5563 30.9501C49.6578 30.9841 49.702 31.0735 49.702 31.164C49.702 31.2649 49.6578 31.4344 49.6021 31.5797C49.333 32.3234 47.854 36.0044 47.3721 37.2416C46.7893 35.6885 46.0388 33.6955 45.4232 32.0755C45.266 31.6702 45.1656 31.356 45.1656 31.209C45.1656 31.1086 45.1989 31.0286 45.2775 30.9726C45.3675 30.9052 45.5345 30.8942 45.7136 30.8942C45.8151 30.8942 45.8827 30.8706 45.8827 30.7927C45.8827 30.7132 45.7594 30.6907 45.6251 30.6907C45.0652 30.6907 44.5271 30.7253 44.2465 30.7253C43.8558 30.7253 43.2161 30.6907 42.6224 30.6907ZM122.413 30.6907C122.282 30.6907 122.2 30.7253 122.2 30.7916C122.2 30.8706 122.282 30.8942 122.369 30.8942C122.506 30.8942 122.691 30.9622 122.838 31.0412C123.051 31.1646 123.335 31.4443 123.613 31.8616C124.006 32.4468 125.507 34.9229 125.584 35.1028C125.731 35.4291 125.84 35.6781 125.84 36.2852V37.2087C125.84 37.3886 125.84 37.8613 125.807 38.3335C125.786 38.6598 125.687 38.9077 125.458 38.9532C125.36 38.9751 125.223 38.9987 125.071 38.9987C124.945 38.9987 124.891 39.0322 124.891 39.0887C124.891 39.1781 124.978 39.2011 125.136 39.2011C125.551 39.2011 126.255 39.1665 126.539 39.1665C126.839 39.1665 127.543 39.2011 128.252 39.2011C128.394 39.2011 128.487 39.1665 128.487 39.0887C128.487 39.0322 128.433 38.9987 128.307 38.9987C128.149 38.9987 127.903 38.9751 127.745 38.9532C127.412 38.9077 127.308 38.6598 127.286 38.3335C127.254 37.8613 127.254 37.3886 127.254 37.2087V36.2852C127.254 35.9139 127.254 35.5651 127.423 35.1603C127.625 34.6761 129.191 32.03 129.562 31.5797C129.808 31.2764 129.928 31.1415 130.168 31.0291C130.332 30.9386 130.545 30.8942 130.659 30.8942C130.779 30.8942 130.872 30.8607 130.872 30.7818C130.872 30.7143 130.796 30.6907 130.67 30.6907C130.457 30.6907 129.721 30.7253 129.469 30.7253C129.147 30.7253 128.787 30.6907 128.416 30.6907C128.285 30.6907 128.231 30.7138 128.231 30.7916C128.231 30.8602 128.329 30.8821 128.427 30.9052C128.618 30.9496 128.667 31.0735 128.667 31.1854C128.667 31.3324 128.618 31.5243 128.509 31.7717C128.351 32.121 126.943 34.5966 126.828 34.8669C126.648 34.5522 125.082 31.8397 124.923 31.5018C124.847 31.3444 124.787 31.2084 124.787 31.118C124.787 31.0286 124.847 30.9386 124.945 30.9167C125.114 30.8712 125.191 30.8602 125.191 30.7916C125.191 30.7253 125.136 30.6907 125.027 30.6907C124.519 30.6907 124.061 30.7253 123.826 30.7253C123.455 30.7253 122.615 30.6907 122.413 30.6907ZM33.0006 30.6918C32.8216 30.6918 32.7321 30.7132 32.7321 30.7807C32.7321 30.8712 32.7992 30.8931 32.9122 30.8931C33.0464 30.8931 33.1916 30.9052 33.3149 30.9392C33.5611 30.9957 33.674 31.1865 33.6953 31.5693C33.7183 31.9291 33.7177 32.245 33.7177 33.9555V35.9364C33.7177 37.0277 33.7183 37.9167 33.6626 38.39C33.6282 38.7163 33.5605 38.9077 33.3373 38.9527C33.2369 38.9751 33.1021 38.9987 32.9334 38.9987C32.7986 38.9987 32.7544 39.0311 32.7544 39.0876C32.7544 39.1665 32.833 39.2011 32.9793 39.2011C33.4274 39.2011 34.133 39.1665 34.3906 39.1665C34.6924 39.1665 35.3987 39.2011 36.1376 39.2011C36.2604 39.2011 36.3505 39.1665 36.3505 39.0876C36.3505 39.0311 36.2948 38.9987 36.1715 38.9987C36.0028 38.9987 35.7567 38.9751 35.6 38.9527C35.2638 38.9077 35.1858 38.7053 35.1525 38.4021C35.1072 37.9172 35.1067 37.0277 35.1067 35.9364V33.9555C35.1067 32.245 35.1061 31.9291 35.129 31.5693C35.152 31.175 35.2415 30.9836 35.5438 30.9277C35.6792 30.9046 35.7676 30.8931 35.8795 30.8931C35.9924 30.8931 36.0596 30.8712 36.0596 30.7807C36.0596 30.7132 35.9701 30.6918 35.8243 30.6918C35.3987 30.6918 34.7372 30.7253 34.4567 30.7253C34.1325 30.7253 33.4268 30.6918 33.0006 30.6918ZM71.5647 30.6918C71.3955 30.6918 71.3191 30.7132 71.3191 30.7927C71.3191 30.8717 71.3846 30.8931 71.5101 30.8931C71.6629 30.8931 71.8539 30.9046 71.9467 30.9277C72.3124 31.0066 72.4051 31.1865 72.427 31.5693C72.4488 31.9291 72.4488 32.2439 72.4488 33.9555V35.9364C72.4488 36.9718 72.4488 37.8613 72.3942 38.3346C72.3451 38.6609 72.2905 38.9077 72.0668 38.9527C71.9685 38.9751 71.8321 38.9976 71.6629 38.9976C71.5319 38.9976 71.4828 39.0311 71.4828 39.0876C71.4828 39.1665 71.5647 39.2 71.7066 39.2C72.1595 39.2 72.8636 39.1665 73.0764 39.1665C73.2456 39.1665 74.0752 39.2 74.7246 39.2C74.8665 39.2 74.9484 39.1665 74.9484 39.0876C74.9484 39.0311 74.8993 38.9976 74.8119 38.9976C74.6755 38.9976 74.4299 38.9751 74.2607 38.9527C73.9278 38.9077 73.8569 38.6609 73.8241 38.3346C73.7695 37.8613 73.7695 36.9723 73.7695 35.9254V35.768C73.7695 35.7005 73.8023 35.677 73.8569 35.677L74.801 35.7005C74.8774 35.7005 74.9484 35.7121 75.003 35.7795C75.1449 35.9479 75.6633 36.7129 76.1109 37.3326C76.7385 38.1991 77.1642 38.7278 77.6444 38.9867C77.9392 39.1435 78.2175 39.2 78.8451 39.2H79.9421C80.0786 39.2 80.155 39.1781 80.155 39.0876C80.155 39.0311 80.1113 38.9976 80.0185 38.9976C79.9312 38.9976 79.8275 38.9872 79.7074 38.9642C79.5382 38.9307 79.0907 38.8523 78.4631 38.1991C77.8027 37.5015 77.0277 36.487 76.0345 35.2273C77.1642 34.3037 77.5026 33.5502 77.5026 32.7171C77.5026 31.9636 77.055 31.3894 76.7385 31.175C76.1327 30.7582 75.385 30.6918 74.6755 30.6918C74.3317 30.6918 73.4803 30.7253 73.0983 30.7253C72.8636 30.7253 72.1595 30.6918 71.5647 30.6918ZM98.6945 30.6918C98.5144 30.6918 98.4271 30.7132 98.4271 30.7807C98.4271 30.8712 98.4926 30.8931 98.6072 30.8931C98.7382 30.8931 98.8855 30.9052 99.011 30.9392C99.2566 30.9957 99.3658 31.1865 99.3876 31.5693C99.4149 31.9291 99.4149 32.245 99.4149 33.9555V35.9364C99.4149 37.0277 99.4149 37.9167 99.3549 38.39C99.3221 38.7163 99.2566 38.9077 99.0329 38.9527C98.9292 38.9751 98.7982 38.9987 98.629 38.9987C98.4926 38.9987 98.4489 39.0311 98.4489 39.0876C98.4489 39.1665 98.5308 39.2011 98.6727 39.2011C99.1202 39.2011 99.8297 39.1665 100.086 39.1665C100.386 39.1665 101.09 39.2011 101.833 39.2011C101.953 39.2011 102.045 39.1665 102.045 39.0876C102.045 39.0311 101.991 38.9987 101.865 38.9987C101.696 38.9987 101.451 38.9751 101.292 38.9527C100.959 38.9077 100.878 38.7053 100.845 38.4021C100.801 37.9172 100.801 37.0277 100.801 35.9364V33.9555C100.801 32.245 100.801 31.9291 100.823 31.5693C100.845 31.175 100.938 30.9836 101.238 30.9277C101.374 30.9046 101.462 30.8931 101.576 30.8931C101.685 30.8931 101.756 30.8712 101.756 30.7807C101.756 30.7132 101.663 30.6918 101.516 30.6918C101.09 30.6918 100.43 30.7253 100.152 30.7253C99.8242 30.7253 99.1202 30.6918 98.6945 30.6918ZM74.4627 31.22C75.123 31.22 76.1763 31.6817 76.1763 33.2798C76.1763 34.2028 75.8544 34.7205 75.516 34.9678C75.314 35.1143 75.1721 35.1598 74.7246 35.1598C74.4408 35.1598 74.1079 35.1263 73.8732 35.0468C73.7914 35.0128 73.7695 34.9684 73.7695 34.8445V31.4223C73.7695 31.3318 73.7914 31.288 73.8732 31.266C73.9824 31.2315 74.1843 31.22 74.4627 31.22Z" fill="#868686"/>
</g>
<defs>
<filter id="filter0_d_100_240" x="-3.52161" y="0.454956" width="143.894" height="46.9036" filterUnits="userSpaceOnUse" color-interpolation-filters="sRGB">
<feFlood flood-opacity="0" result="BackgroundImageFix"/>
<feColorMatrix in="SourceAlpha" type="matrix" values="0 0 0 0 0 0 0 0 0 0 0 0 0 0 0 0 0 0 127 0" result="hardAlpha"/>
<feOffset dy="4"/>
<feGaussianBlur stdDeviation="2"/>
<feComposite in2="hardAlpha" operator="out"/>
<feColorMatrix type="matrix" values="0 0 0 0 0 0 0 0 0 0 0 0 0 0 0 0 0 0 0.25 0"/>
<feBlend mode="normal" in2="BackgroundImageFix" result="effect1_dropShadow_100_240"/>
<feBlend mode="normal" in="SourceGraphic" in2="effect1_dropShadow_100_240" result="shape"/>
</filter>
</defs>
</svg>
