<svg width="211" height="50" viewBox="0 0 211 50" fill="none" xmlns="http://www.w3.org/2000/svg">
<path d="M25.6892 1.41504C11.1544 1.41504 1.46447 13.1697 1.46448 24.3042C1.46448 31.7275 3.98178 35.9953 6.20596 39.1566C7.73703 35.7204 10.6601 28.706 10.6601 28.7059L11.8957 28.0244L13.7061 23.083L14.7694 22.6003L10.6601 35.0388L7.72899 39.0998H8.99338L13.936 33.2497L16.2924 24.1622L17.1832 25.4117C16.8349 29.6033 16.9729 28.5833 16.6947 30.921L10.8038 39.0998H12.1831L17.9591 34.7548L18.3039 34.8968L16.1487 39.0998H22.5569L32.356 32.6249L35.3446 21.8335L42.5861 21.4927L39.7987 19.7036L23.9363 17.091C20.4592 13.4492 20.3155 13.2572 20.3155 13.2572L24.511 13.598L21.4937 10.8433V8.03188L25.4018 8.71344L36.0342 14.8191L48.3621 18.1133C47.1115 12.4086 39.6688 1.41503 25.6892 1.41504ZM25.6892 2.94855C35.217 2.94855 43.0815 8.91674 45.862 15.9266L35.0572 12.9732L25.4593 7.69109L20.7465 6.92434L18.5913 11.4681L16.8384 12.3484L14.1372 19.1641C14.1372 19.0266 12.2693 19.9876 12.2693 19.9876C12.2693 19.9876 8.22325 30.6439 6.20596 36.0043C4.60708 33.1861 3.15993 30.2145 3.15992 24.3042C3.15992 13.9955 12.0578 2.94854 25.6892 2.94855ZM127.674 16.1254L121.007 16.6366V17.6873C121.215 17.6873 121.324 17.6874 121.324 17.6873C122.121 17.6873 122.59 17.8316 122.904 18.1417C123.425 18.6563 123.45 19.2936 123.45 20.1864V25.2129C123.104 24.5257 122.159 23.5942 119.829 23.5942C115.136 23.5942 112.76 28.2311 112.76 32.1138C112.76 36.0305 114.108 40.6617 119.255 40.6617C121.932 40.6617 123.51 38.7454 123.824 37.6798L123.881 40.1789H130.117V39.1566H129.657C129.033 39.1566 128.448 39.0566 128.134 38.8158C127.857 38.5738 127.674 38.216 127.674 37.0835V16.1254ZM206.843 16.1254L200.176 16.6366V17.6873H200.808C201.192 17.6873 201.789 17.8316 202.101 18.1417C202.622 18.6563 202.618 19.7059 202.618 20.1864V37.0835C202.618 38.3205 202.437 38.5738 202.159 38.8158C201.846 39.0566 201.347 39.1566 200.894 39.1566H200.693V40.1789H209.142V39.1566H208.883C208.223 39.1566 207.616 39.0566 207.302 38.8158C207.024 38.5738 206.843 38.216 206.843 37.0835V16.1254ZM179.601 16.381C178.14 16.381 176.957 17.5226 176.957 18.9653C176.957 20.4091 178.14 21.5495 179.601 21.5495C181.062 21.5495 182.244 20.4091 182.244 18.9653C182.244 17.5226 181.062 16.381 179.601 16.381ZM61.9544 16.6366V17.6873H62.7015C63.6038 17.6873 64.2498 17.7078 64.5981 17.9145C65.1544 18.1894 65.3452 18.9448 65.3452 20.0444V36.9983C65.3452 37.9263 65.1475 38.4489 64.7992 38.759C64.4521 39.0327 63.7659 39.1566 62.9314 39.1566C62.9314 39.1566 62.4406 39.1566 61.9544 39.1566V40.1789H72.9891V39.1566H72.127C71.1189 39.1566 70.5442 38.9828 70.2304 38.6738C69.8821 38.2955 69.8281 37.7208 69.8281 36.9983V29.9839H71.4948C76.4317 29.9839 80.5755 28.0812 80.5755 23.3386C80.5755 18.3564 76.3627 16.6366 71.4948 16.6366H61.9544ZM169.543 16.6366C169.543 19.0766 167.529 24.077 163.738 24.077H163.451V25.1277H166.382V36.1747C166.382 38.1672 166.979 40.6617 170.491 40.6617C172.473 40.6617 173.793 40.0903 174.486 38.6454C174.939 37.6844 175.06 36.1043 175.06 34.2152H173.796C173.796 35.4511 173.824 37.2913 173.164 38.2194C172.92 38.5977 172.566 38.8442 172.043 38.8442C170.826 38.8442 170.692 37.7855 170.692 36.6859V25.1277H173.882V24.077H170.635V16.6366H169.543ZM69.8281 17.6873H71.4948C75.3535 17.6873 76.0351 20.5556 76.0351 23.3386C76.0351 26.1217 75.3535 28.848 71.4948 28.8479H69.8281V17.6873ZM37.0975 22.5151L36.6664 26.0933L37.0975 26.7181L36.6664 29.8703L38.2757 29.6147L41.178 24.1622L37.0975 22.5151ZM91.524 23.5942C88.8113 23.5942 87.6158 26.2012 87.4434 28.1948H87.4147L87.2423 24.077H81.3226V25.0993H81.7249C82.664 25.0993 83.0571 25.2527 83.3341 25.8377C83.5778 26.3875 83.6502 27.9233 83.6502 29.9839V36.2599C83.6502 36.2599 83.7169 37.9139 83.3341 38.5318C83.0571 38.9794 82.5203 39.1566 81.4088 39.1566C81.4088 39.1566 80.6927 39.1566 80.3456 39.1566V40.1789H91.3516C91.3516 40.1789 91.3516 39.4667 91.3516 39.1566C91.1792 39.1566 89.7711 39.1566 89.7711 39.1566C89.3182 39.1566 88.5331 39.1202 88.2193 38.6738C87.9067 38.2262 87.9032 37.3822 87.9032 36.3167V33.8177C87.9032 31.79 88.2745 26.5874 89.9435 25.2129H90.001C89.8274 25.5901 89.8286 25.8525 89.8285 26.0933C89.8285 26.7805 90.5378 27.6552 91.7539 27.6552C93.1102 27.6893 93.8804 26.6408 93.8804 25.6105C93.8804 24.2701 92.9838 23.5942 91.524 23.5942ZM138.422 23.5942C134.144 23.5942 130.778 27.0281 130.778 32.1138C130.778 37.0278 133.35 40.6617 138.565 40.6617C143.017 40.6617 145.261 36.9994 145.261 34.698H143.91C143.91 36.4508 142.375 39.2701 139.14 39.2702C136.811 39.2702 135.981 37.1959 135.634 35.2376C135.287 33.2781 135.404 31.6026 135.404 31.6026H145.491C145.491 27.2383 143.496 23.5942 138.422 23.5942ZM157.416 23.5942C154.912 23.5942 153.409 25.063 152.818 26.5761H152.79L152.704 24.077H146.525V25.0993H147.186C147.672 25.0993 148.188 25.1357 148.537 25.5821C148.848 26.0285 148.824 26.9316 148.824 27.996V36.2599C148.824 37.6344 148.878 38.3307 148.566 38.6738C148.287 38.9828 147.807 39.1566 147.042 39.1566H146.525V40.1789H155.405V39.1566C155.128 39.1566 154.916 39.1566 154.916 39.1566C154.013 39.1566 153.614 38.9828 153.336 38.6738C153.024 38.3307 153.106 37.6344 153.106 36.2599V30.3247C153.106 28.9842 153.341 27.6154 153.796 26.86C154.316 26.0342 155.088 25.6389 155.75 25.6389C156.689 25.6389 157.819 25.8241 157.819 28.1948V40.1789H164.37V39.1566H163.71C163.258 39.1566 162.673 39.1202 162.359 38.6738C162.046 38.2262 162.072 37.6571 162.072 36.3167V28.9899C162.072 25.623 161.172 23.5942 157.416 23.5942ZM191.756 23.5942C188.312 23.5942 185.635 25.1312 185.635 27.3996C185.635 29.0831 186.965 29.8135 188.078 29.8135C189.434 29.8135 190.406 28.782 190.406 27.854C190.406 26.651 189.584 25.9513 188.365 25.9513C188.019 25.9513 187.568 26.0672 187.359 26.3773C187.359 26.3421 187.359 26.3261 187.359 26.2921C187.568 25.7071 188.995 24.7301 190.664 24.7302C193.133 24.7302 193.911 25.8286 193.911 27.6836V30.3814C188.592 31.4117 184.744 32.7022 184.744 36.5155C184.744 38.132 185.892 40.6617 189.543 40.6617C191.873 40.6617 193.95 38.9067 194.227 37.5663C194.263 37.5663 194.349 40.1789 194.314 40.1789C194.349 40.1789 200.147 40.1789 200.147 40.1789V39.1566H199.802C199.352 39.1566 198.937 39.0566 198.624 38.8158C198.347 38.609 198.164 38.2228 198.164 37.0551V29.1603C198.164 24.453 194.815 23.5942 191.756 23.5942ZM94.7137 24.077V25.0993C94.9574 25.0993 94.9724 25.0994 94.9723 25.0993C95.877 25.0993 96.0471 25.2959 96.1505 25.4685C96.2896 25.6741 96.3517 26.4511 96.3517 28.4788V35.408C96.3517 38.3989 97.2218 40.6617 101.151 40.6617C103.515 40.6617 105.274 38.985 105.691 37.6798C105.691 37.7832 105.748 37.6798 105.748 37.6798L105.806 40.1789H111.955C111.955 40.1789 111.955 39.4667 111.955 39.1566C111.78 39.1566 111.352 39.1566 111.352 39.1566C110.865 39.1566 110.373 39.1202 110.059 38.6738C109.747 38.2262 109.657 37.3822 109.657 36.3167V24.077H103.076V25.0993C103.319 25.0993 103.421 25.0994 103.421 25.0993C104.498 25.0993 104.867 25.2447 105.145 25.5537C105.456 25.8968 105.432 27.0702 105.432 28.4788V33.5337C105.432 34.4277 105.439 35.3 105.231 36.0895C104.884 37.464 103.943 38.5034 102.76 38.5034C102.064 38.5034 100.633 38.4386 100.633 35.8623V24.077H94.7137ZM175.06 24.077V25.1277H175.434C176.06 25.1277 176.695 25.1596 177.043 25.4685C177.634 25.949 177.589 26.9123 177.589 27.5984V36.2315C177.589 37.2959 177.586 38.2262 177.273 38.6738C176.962 39.1202 176.41 39.1566 175.922 39.1566H175.376V40.1789H184.141V39.1566H183.48C182.99 39.1566 182.471 39.1202 182.158 38.6738C181.809 38.2262 181.842 37.2959 181.842 36.2315V24.077H175.06ZM41.9539 24.4462L38.9653 32.7669L36.8676 34.4708L34.2238 39.0998H36.8676L40.9194 32.6249L42.9309 30.921L45.1436 25.7525L41.9539 24.4462ZM138.393 24.4746C141.035 24.4746 141.158 28.7434 141.123 30.495H135.433C135.501 28.8797 135.541 24.4746 138.393 24.4746ZM120.548 24.9289C123.156 24.9289 123.45 28.3311 123.45 30.3247V33.6473C123.45 35.4682 123.068 36.5087 122.789 37.1971C122.373 38.1592 121.505 38.8158 120.461 38.8158C117.715 38.8158 117.559 34.1073 117.559 32.1138C117.559 29.8112 117.592 24.9289 120.548 24.9289ZM46.0632 26.0365L44.5402 31.1766L39.4538 39.0998H44.7988C47.6506 35.1819 48.9747 31.1016 49.2529 27.1156L46.0632 26.0365ZM193.911 31.4322V33.9881C193.911 35.2262 193.741 36.578 193.394 37.1971C193.08 37.8162 192.557 38.6738 191.095 38.6738C190.053 38.6738 189.112 37.7401 189.112 35.9191C189.112 32.7919 190.816 32.0161 193.911 31.4322ZM35.6319 31.4606L29.4249 39.0998H32.787L36.2641 32.6249L35.6319 31.4606ZM7.183 40.1789C12.3992 46.5027 19.6339 48.5849 25.5455 48.5849C32.2916 48.5849 39.5791 45.6087 43.8218 40.1789H7.183Z" fill="#868686"/>
</svg>
