<svg width="164" height="40" viewBox="0 0 164 40" fill="none" xmlns="http://www.w3.org/2000/svg">
<path fill-rule="evenodd" clip-rule="evenodd" d="M19.4939 0.339078C18.6586 1.02046 18.5047 2.42901 18.8223 6.48168C18.9373 7.94857 19.1211 10.3184 19.2303 11.748C19.5667 16.1325 19.5798 16.2042 20.0488 16.2042C20.5314 16.2042 20.524 16.2346 20.745 13.3993C21.0393 9.6253 21.3351 5.95667 21.4231 4.99616C21.586 3.21168 21.3859 1.28743 20.9779 0.715015C20.5232 0.0781906 19.9817 -0.0591399 19.4939 0.339078ZM6.85515 6.23538C5.63228 6.79969 6.12585 8.38568 7.97201 9.8238C8.2102 10.0093 8.53475 10.2678 8.69354 10.3978C9.04305 10.6842 9.26486 10.8592 10.0609 11.4774C10.3985 11.7395 10.7824 12.0413 10.9138 12.1479C11.3455 12.4991 11.7114 12.7875 12.419 13.3348C12.8033 13.6318 13.3047 14.0276 13.533 14.2139C14.2464 14.7957 14.3372 14.854 14.5288 14.854C15.2384 14.854 15.2155 14.4088 14.458 13.4815C14.1191 13.0667 13.7127 12.5651 13.5543 12.367C13.3963 12.169 13.1999 11.9259 13.118 11.827C12.9576 11.633 12.1833 10.6729 11.63 9.98138C11.4421 9.74723 11.2518 9.50944 11.2068 9.45353C11.1618 9.39722 10.9498 9.13836 10.7366 8.87869C10.5229 8.61861 10.2279 8.2451 10.0809 8.04863C9.59063 7.39317 8.79012 6.65061 8.31456 6.41079C7.62169 6.06078 7.31393 6.02351 6.85515 6.23538ZM30.9998 6.30951C30.4125 6.59268 29.4418 7.49201 28.9199 8.237C28.8287 8.36704 28.7022 8.52949 28.6388 8.59795C28.5758 8.66641 28.4059 8.87383 28.2619 9.05856C28.1178 9.24328 27.8301 9.59734 27.6222 9.84527C27.4147 10.0936 27.17 10.4027 27.0791 10.5327C26.9882 10.6628 26.8798 10.7993 26.8385 10.8366C26.7971 10.8738 26.6117 11.0983 26.4267 11.3352C26.2418 11.5726 25.936 11.9522 25.7474 12.1795C25.2677 12.7559 24.4836 13.7363 24.2974 13.9919C24.0465 14.3359 24.2499 14.854 24.6358 14.854C24.7549 14.854 25.1597 14.5996 25.3402 14.4112C25.3774 14.3723 25.5771 14.2139 25.7834 14.0596C25.9897 13.9052 26.2815 13.6723 26.4312 13.5414C26.5814 13.4106 26.7271 13.3028 26.7554 13.3024C26.7836 13.3016 26.861 13.2477 26.9277 13.1829C26.9944 13.1177 27.242 12.9127 27.4781 12.7272C27.7143 12.5412 28.1771 12.1766 28.5062 11.917C28.8356 11.6569 29.1942 11.3753 29.303 11.2907C30.1256 10.653 31.7479 9.33443 31.9562 9.13472C33.7296 7.4349 33.0195 5.33686 30.9998 6.30951ZM54.824 10.1333C52.7335 10.3877 50.5509 11.9575 50.0406 13.5739C49.9882 13.7395 49.9039 14.0114 49.8523 14.1787C49.7275 14.5854 49.7267 16.1989 49.8515 16.6093C50.5456 18.8981 51.4214 19.6407 54.7045 20.7219C55.6233 21.0245 56.4369 21.3008 56.5118 21.3357C56.5871 21.3709 56.8171 21.4633 57.0234 21.5415C57.8664 21.8607 58.6371 22.3808 59.0615 22.9176C59.4405 23.3964 59.5841 24.5996 59.3721 25.522C58.6138 28.822 53.0859 29.1979 51.1149 26.0839C51.0486 25.979 50.9876 25.8834 50.9802 25.8712C50.9463 25.8194 49.2474 26.9751 49.2474 27.0501C49.2474 27.1716 50.2821 28.233 50.625 28.4635C50.7867 28.5721 50.9348 28.6822 50.9549 28.7086C51.1648 28.9849 52.9672 29.6504 53.8176 29.7651C57.0753 30.205 59.5514 29.2125 60.7734 26.9759C61.6124 25.4414 61.4335 22.7847 60.4079 21.5467C59.8624 20.888 58.2258 19.7825 57.7965 19.7825C57.7727 19.7825 57.4588 19.678 57.0987 19.55C56.7385 19.4219 56.1214 19.2222 55.7277 19.1064C52.6026 18.1864 51.5933 17.2445 51.6056 15.2591C51.6269 11.8384 56.2507 10.4464 58.908 13.0606L59.4626 13.6063L59.8288 13.3506C60.0306 13.2105 60.3871 12.9682 60.6216 12.8127C61.1356 12.4712 61.1327 12.5388 60.6531 12.0494C59.1396 10.5064 57.1449 9.85054 54.824 10.1333ZM134.578 10.1305C133.759 10.2034 132.221 10.5437 131.866 10.73C131.801 10.7645 131.456 10.9289 131.099 11.0958C127.199 12.9212 125.109 17.0172 125.783 21.5115C125.925 22.4529 126.072 23.1432 126.186 23.3948C126.219 23.4689 126.31 23.7039 126.387 23.9166C126.894 25.3219 127.98 26.8115 129.219 27.8024C129.484 28.0146 129.716 28.2062 129.735 28.2281C130.023 28.5627 131.754 29.3158 132.892 29.6014C136.481 30.5024 139.985 29.4965 142.228 26.9208C142.683 26.3991 142.683 26.3979 142.465 26.263C142.376 26.2079 142.215 26.0952 142.107 26.013C141.329 25.4171 141.191 25.3191 141.128 25.3191C141.09 25.3191 141.058 25.3438 141.058 25.3737C141.058 25.6201 139.557 27.0513 139.148 27.1943C139.092 27.2141 139 27.2676 138.944 27.3138C138.583 27.6091 137.279 28.0296 136.224 28.19C135.284 28.3334 133.169 28.079 132.535 27.746C132.477 27.7157 132.248 27.612 132.025 27.5159C130.36 26.7961 128.956 25.2948 128.078 23.2935C127.624 22.2593 127.373 19.7586 127.609 18.6348C127.653 18.4307 127.738 18.0203 127.8 17.7233C127.966 16.9269 128.576 15.5386 128.977 15.0415C130.185 13.5487 131.203 12.7474 132.429 12.3257C132.617 12.2613 132.821 12.1823 132.884 12.1503C133.729 11.7152 136.898 11.7351 137.886 12.1815C137.999 12.2321 138.241 12.3403 138.424 12.4217C139.116 12.7292 140.041 13.488 140.462 14.094C140.649 14.3614 140.629 14.3614 140.929 14.094C141.262 13.7975 141.793 13.3579 141.952 13.2481C142.171 13.0962 142.104 12.9731 141.45 12.3273C139.726 10.6231 137.4 9.8793 134.578 10.1305ZM67.5278 19.985V29.3701H73.5644H79.601V28.5263V27.682H74.4852H69.3695V24.0701V20.4578H73.9737H78.5778V19.6476V18.8374H73.9737H69.3695V15.5289V12.2208H74.2806H79.1917V11.4106V10.6004H73.3598H67.5278V19.985ZM85.6715 19.985V29.3701H86.5923H87.5132V21.2004C87.5132 16.7073 87.5365 13.0318 87.5643 13.0326C87.5926 13.0338 87.7162 13.1935 87.8394 13.3871C87.9625 13.5811 88.168 13.8765 88.2965 14.0438C88.4246 14.2107 88.6129 14.4841 88.7148 14.6514C88.8167 14.8183 88.921 14.9703 88.9468 14.9889C88.9726 15.0075 89.0745 15.144 89.174 15.2927C89.273 15.4414 89.5709 15.8667 89.8357 16.2378C90.1001 16.6093 90.3686 16.9893 90.432 17.0821C90.4955 17.1748 90.7778 17.5755 91.0594 17.9721C91.3414 18.3691 91.7867 19.0019 92.0494 19.3786C92.3118 19.7549 92.5602 20.0993 92.6015 20.1438C92.6424 20.188 92.7619 20.3606 92.8675 20.5267C92.9727 20.6932 93.0775 20.8443 93.1004 20.8629C93.1233 20.8815 93.2236 21.0181 93.3238 21.1667C93.4237 21.3154 93.6287 21.6038 93.7794 21.808C93.93 22.0122 94.137 22.316 94.2389 22.4833C94.3413 22.6506 94.446 22.8025 94.4718 22.8208C94.4976 22.8394 94.5991 22.9763 94.6969 23.1246C94.7951 23.2733 94.9863 23.5467 95.1213 23.7323C95.2564 23.9182 95.4712 24.222 95.5985 24.4076C95.8866 24.8273 96.2857 25.3928 96.5746 25.7918C96.6957 25.9587 96.8742 26.2147 96.9712 26.3602C97.0682 26.506 97.175 26.6579 97.2089 26.698C97.2666 26.7661 98.0029 27.7991 98.1515 28.0199C98.1887 28.0754 98.4126 28.3946 98.6491 28.7288L99.0788 29.3365L100.253 29.3547L101.428 29.3734V19.9867V10.6004H100.508H99.5872L99.5695 18.7661L99.5524 26.9322L99.1771 26.3938C98.9708 26.0977 98.7253 25.7517 98.6315 25.6253C98.5378 25.4989 98.3229 25.1951 98.1539 24.9496C97.9853 24.7045 97.8134 24.4663 97.7725 24.4205C97.7316 24.3744 97.6117 24.201 97.5065 24.0349C97.4013 23.8684 97.2957 23.7173 97.272 23.6986C97.2319 23.6674 96.9175 23.2174 96.5238 22.6275C96.4338 22.4926 96.3401 22.3667 96.3155 22.3484C96.291 22.3298 96.1977 22.1929 96.1076 22.0446C96.018 21.8959 95.9243 21.759 95.8997 21.7408C95.8752 21.7221 95.7741 21.5852 95.675 21.4369C95.5056 21.1825 94.7104 20.0434 94.4972 19.7489C94.2308 19.381 93.2224 17.9567 92.7996 17.3506C92.5368 16.9743 92.2884 16.63 92.2475 16.5858C92.2066 16.5412 92.0867 16.3691 91.9815 16.2026C91.8763 16.0365 91.7715 15.885 91.749 15.8667C91.7114 15.836 91.4253 15.4264 90.9988 14.7932C90.9088 14.6595 90.8151 14.5348 90.7905 14.5161C90.766 14.4975 90.6714 14.361 90.5806 14.2123C90.4893 14.064 90.3768 13.8967 90.3305 13.8412C90.2266 13.716 90.0666 13.49 89.4588 12.6077C89.1969 12.2277 88.9513 11.8817 88.9133 11.8384C88.8748 11.7954 88.6607 11.4989 88.4381 11.1801L88.0325 10.6004H86.8522H85.6715V19.985ZM108.795 19.985V29.3701H114.831H120.868V28.5263V27.682H115.752H110.636V24.0701V20.4578H115.241H119.845V19.6476V18.8374H115.241H110.636V15.5289V12.2208H115.547H120.459V11.4106V10.6004H114.627H108.795V19.985ZM153.753 10.9034C153.674 11.0699 153.609 11.2198 153.609 11.236C153.609 11.2522 153.501 11.4957 153.37 11.7772C153.239 12.0584 153.131 12.3059 153.131 12.3265C153.131 12.3472 153.009 12.6223 152.858 12.9378C152.708 13.2534 152.585 13.5305 152.585 13.5536C152.585 13.5771 152.526 13.7193 152.454 13.8704C152.233 14.3314 151.699 15.5281 151.699 15.5617C151.699 15.5791 151.591 15.8206 151.46 16.0985C151.329 16.376 151.221 16.6194 151.221 16.6397C151.221 16.6599 151.114 16.9067 150.983 17.1878C150.851 17.4693 150.744 17.7124 150.744 17.7282C150.744 17.744 150.655 17.9466 150.546 18.1791C150.438 18.4112 150.235 18.8593 150.096 19.1748C149.957 19.4904 149.787 19.8704 149.718 20.0191C149.649 20.1673 149.527 20.4562 149.447 20.6604C149.367 20.8645 149.264 21.0926 149.217 21.1667C149.17 21.2409 149.06 21.4839 148.972 21.7067C148.884 21.9295 148.729 22.2941 148.627 22.5169C148.219 23.4049 148.154 23.5544 148.014 23.9065C147.933 24.1078 147.842 24.3027 147.811 24.3399C147.779 24.3772 147.688 24.5749 147.606 24.7791C147.525 24.9832 147.417 25.2413 147.366 25.3527C147.06 26.0195 146.651 26.9452 146.651 26.9723C146.651 26.9901 146.528 27.264 146.379 27.5808C146.228 27.898 146.106 28.1734 146.106 28.1925C146.106 28.2119 146.017 28.4165 145.91 28.647C145.802 28.8775 145.692 29.1347 145.666 29.2182L145.619 29.3701H146.58H147.541L147.612 29.1854C147.651 29.0837 147.726 28.9091 147.778 28.7973C147.829 28.6851 148.06 28.1532 148.289 27.6148C148.519 27.076 148.781 26.4752 148.873 26.2792C148.964 26.0835 149.039 25.9085 149.039 25.8903C149.039 25.8724 149.098 25.729 149.171 25.5714C149.243 25.4143 149.378 25.1031 149.471 24.8803L149.64 24.4752L154.623 24.4578C159.522 24.4408 159.607 24.4428 159.678 24.5737C159.718 24.647 159.95 25.2016 160.195 25.8064C160.44 26.4108 160.685 26.997 160.739 27.1084C160.794 27.2198 161.01 27.7363 161.221 28.2561C161.431 28.7758 161.618 29.2393 161.637 29.2858C161.691 29.4151 163.704 29.4062 163.704 29.2765C163.704 29.2251 163.615 28.9893 163.507 28.7531C163.398 28.517 163.164 27.9741 162.987 27.5471C162.809 27.1202 162.608 26.6466 162.539 26.4951C162.471 26.3436 162.35 26.0551 162.271 25.8538C162.191 25.6525 162.051 25.3304 161.96 25.1376C161.869 24.9447 161.794 24.7624 161.793 24.7325C161.793 24.7025 161.745 24.5866 161.685 24.4752C161.626 24.3638 161.503 24.0774 161.411 23.8388C161.32 23.6006 161.221 23.3725 161.19 23.3324C161.16 23.2927 161.08 23.108 161.011 22.9221C160.943 22.7365 160.832 22.4631 160.764 22.3144C160.697 22.1661 160.377 21.4215 160.055 20.6604C159.733 19.8992 159.378 19.0764 159.267 18.8321C159.156 18.5878 159.066 18.3683 159.066 18.3444C159.066 18.3209 158.993 18.141 158.904 17.9449C158.815 17.7489 158.626 17.315 158.486 16.9808C158.345 16.6466 158.126 16.1414 157.999 15.8582C157.873 15.5751 157.769 15.3223 157.769 15.2968C157.769 15.2712 157.695 15.093 157.603 14.9002C157.512 14.7077 157.372 14.3833 157.291 14.1799C157.211 13.9761 157.071 13.6488 156.98 13.4519C156.889 13.2554 156.815 13.0808 156.815 13.0646C156.815 13.0484 156.74 12.8738 156.649 12.6774C156.558 12.4805 156.418 12.1532 156.338 11.9494C156.258 11.746 156.121 11.4272 156.034 11.2417C155.947 11.0561 155.855 10.8358 155.829 10.7523C155.783 10.604 155.758 10.6004 154.839 10.6004H153.897L153.753 10.9034ZM154.872 13.014C154.939 13.1902 155.066 13.4924 155.154 13.6849C155.242 13.8773 155.314 14.0507 155.314 14.0701C155.314 14.1009 155.677 14.9707 156.063 15.8667C156.135 16.0337 156.35 16.5502 156.54 17.0144C156.731 17.4787 156.946 17.9952 157.018 18.1621C157.09 18.3294 157.306 18.8459 157.499 19.3101C157.691 19.7744 157.903 20.2755 157.97 20.4242C158.036 20.5724 158.147 20.8459 158.216 21.0318C158.285 21.2174 158.377 21.4301 158.421 21.5042C158.465 21.5787 158.571 21.8368 158.658 22.0782C158.744 22.3197 158.845 22.5558 158.882 22.6032C158.998 22.7535 158.958 22.7547 154.618 22.7369L150.353 22.7195L150.51 22.382C150.596 22.1965 150.932 21.4215 151.258 20.6604C151.583 19.8992 151.89 19.185 151.94 19.0736C151.99 18.9622 152.112 18.6737 152.211 18.4323C152.309 18.1908 152.439 17.887 152.499 17.757C152.559 17.6269 152.677 17.3535 152.761 17.1493C152.845 16.9451 153.027 16.5198 153.166 16.2042C153.305 15.8886 153.479 15.4783 153.554 15.2927C153.628 15.1072 153.759 14.8033 153.844 14.6174C153.929 14.4319 154.148 13.9231 154.331 13.4868C154.711 12.5809 154.708 12.5838 154.872 13.014ZM2.2829 18.6385C0.67083 18.7932 -0.0511038 19.2623 0.0172425 20.109C0.115465 21.3251 1.97555 21.5868 7.36672 21.1436C8.84865 21.0217 11.3725 20.8236 12.9756 20.7029C16.1977 20.461 16.2341 20.4529 16.2341 19.985C16.2341 19.5167 16.2014 19.5099 12.9412 19.2644C2.64755 18.4894 3.38381 18.5327 2.2829 18.6385ZM35.7079 18.6117C35.2569 18.6506 30.6978 18.9966 27.1008 19.2652C23.8771 19.5058 23.8394 19.5139 23.8394 19.985C23.8394 20.4562 23.8771 20.4647 27.1008 20.7053C28.6834 20.8236 31.1905 21.0193 32.6724 21.1404C37.4342 21.5297 38.8117 21.4531 39.6794 20.7519C41.1502 19.5629 38.8785 18.3387 35.7079 18.6117ZM19.6981 23.8842C19.5622 24.0385 19.5172 24.5348 18.817 33.5901C18.4969 37.725 18.6737 39.1668 19.5667 39.7043C20.8927 40.5028 21.7379 38.2946 21.4162 34.8727C21.3351 34.0142 20.9955 29.8109 20.7434 26.5522C20.5535 24.0985 20.5449 24.0349 20.3865 23.9044C20.1839 23.7375 19.8364 23.7274 19.6981 23.8842ZM13.8805 24.3087C13.5429 24.5733 13.1311 24.9014 12.9658 25.0375C12.8 25.1736 12.5242 25.3916 12.3527 25.5216C12.0638 25.7404 11.7114 26.0166 10.3678 27.0772C9.90495 27.443 8.92968 28.2095 8.32766 28.6814C7.55293 29.2883 6.97342 29.8498 6.77125 30.1884C6.7074 30.2954 6.63333 30.3829 6.60673 30.3829C6.50809 30.3829 6.27523 31.1408 6.27523 31.4613C6.27523 32.9059 7.7723 33.0278 9.19856 31.6995C9.64179 31.2867 9.90699 30.9845 10.7632 29.9162C10.8647 29.7894 11.055 29.5573 11.1863 29.3997C11.3177 29.2421 11.6709 28.8042 11.9709 28.4262C12.2709 28.0483 12.5627 27.6824 12.6187 27.6132C12.6752 27.5439 12.8512 27.3264 13.0104 27.1291C13.1696 26.9318 13.533 26.4821 13.8179 26.1293C14.1027 25.7764 14.4174 25.3851 14.5173 25.2595C14.6176 25.1339 14.7837 24.9326 14.8869 24.8119C15.2003 24.4448 15.0878 23.9656 14.6646 23.8672C14.5255 23.8348 14.3798 23.9166 13.8805 24.3087ZM24.4382 23.9024C24.1312 24.0247 24.15 24.4606 24.4795 24.8463C24.7099 25.1165 25.2583 25.8003 25.5104 26.1321C25.6045 26.2557 25.7883 26.4817 25.9197 26.6344C26.051 26.7872 26.2508 27.0286 26.3633 27.1712C27.0901 28.092 27.7081 28.8593 28.2443 29.505C28.3519 29.635 28.694 30.0596 29.0047 30.4489C30.5738 32.4149 31.8343 33.0489 32.6774 32.295C33.5454 31.5184 32.9336 30.1767 31.0354 28.6944C30.7915 28.504 30.5001 28.2751 30.3876 28.1852C30.275 28.0956 29.9988 27.8765 29.7737 27.6991C29.5486 27.5212 29.303 27.3243 29.2281 27.2619C29.1528 27.1996 28.8152 26.9338 28.4775 26.6713C27.5428 25.9445 27.0697 25.5694 26.9854 25.4888C26.9432 25.4487 26.8012 25.3426 26.6702 25.253C26.5389 25.1635 26.2471 24.9354 26.022 24.7462C24.9849 23.8745 24.7811 23.7659 24.4382 23.9024Z" fill="#868686"/>
</svg>
