<svg width="250" height="30" viewBox="0 0 250 30" fill="none" xmlns="http://www.w3.org/2000/svg">
<path d="M153.745 26.4179H153.655C151.635 28.7015 149.615 30 146.365 30C142.275 30 139.385 27.9582 139.385 24.2149C139.385 17.5254 147.735 17.0149 153.265 17.0149H155.325C155.505 16.4687 155.505 15.8776 155.505 15.2866C155.505 13.2448 153.045 12.6537 150.975 12.6537C148.385 12.6537 145.875 13.2448 143.545 14.2298L144.385 10.0209C146.895 9.23284 149.435 8.80299 152.075 8.80299C156.595 8.80299 160.865 10.2985 160.865 15.0537C160.865 17.7672 158.625 25.7194 158.095 29.5343H153.135L153.745 26.4179ZM147.985 26.1493C152.375 26.1493 153.735 23.4358 154.665 20.1672H152.595C149.735 20.1672 144.995 20.597 144.995 24.0269C144.995 25.4418 146.495 26.1493 147.985 26.1493ZM1.10506 9.24179H5.36506L6.38506 5.07761L12.7051 3.22388L11.2551 9.24179H16.5251L15.6051 13.1015H10.3351L8.18506 21.9582C8.00506 22.603 7.91506 23.2657 7.91506 23.9284C7.91506 25.1463 8.83506 25.8985 10.1551 25.8985C11.2151 25.8985 12.2651 25.7015 13.0151 25.4239L12.0051 29.5164C10.9951 29.7134 9.85506 29.991 8.84506 29.991C4.84506 29.991 2.03506 28.5761 2.03506 24.6806C2.03506 23.1045 2.38506 21.5731 2.78506 19.9522L4.45506 13.1104H0.185059L1.10506 9.24179ZM18.9551 9.24179H24.8451L20.0151 29.5075H14.1251L18.9551 9.24179ZM21.1051 0.510448H26.9951L25.7651 5.55224H19.8751L21.1051 0.510448ZM42.6151 13.8896C41.4651 13.2179 39.9351 12.8687 38.3051 12.8687C33.6051 12.8687 30.9651 16.8 30.9651 20.6239C30.9651 23.2567 31.9351 25.8985 35.9751 25.8985C37.4251 25.8985 39.2251 25.5403 40.7651 24.8776L40.1051 29.0507C38.3051 29.8388 36.3651 29.991 34.4351 29.991C28.5951 29.991 24.8151 26.4896 24.8151 21.2597C24.8151 14.1761 30.0451 8.78507 38.1751 8.78507C40.3751 8.78507 42.4851 9.14328 44.0651 9.57313L42.6151 13.8896ZM49.0751 0H54.965L51.0551 16.603H51.1451L59.3651 9.24179H67.0051L56.1451 18.4925L62.9551 29.5075H56.3251L50.4851 18.7612H50.3951L47.8451 29.5075H42.0951L49.0751 0ZM88.2251 9.24179H92.485L93.495 5.07761L99.8251 3.22388L98.375 9.24179H103.645L102.725 13.1015H97.455L95.305 21.9582C95.135 22.603 95.045 23.2657 95.045 23.9284C95.045 25.1463 95.965 25.8985 97.285 25.8985C98.345 25.8985 99.395 25.7015 100.145 25.4239L99.135 29.5164C98.125 29.7134 96.985 29.991 95.9751 29.991C91.9751 29.991 89.165 28.5761 89.165 24.6806C89.165 23.1045 89.515 21.5731 89.915 19.9522L91.585 13.1104H87.3251L88.2251 9.24179Z" fill="#868686"/>
<path d="M86.255 16.4866C86.255 11.3284 82.565 8.77612 76.985 8.77612C69.555 8.77612 64.115 14.8388 64.115 21.1343C64.115 27.1522 68.505 29.991 75.015 29.991C77.435 29.991 79.935 29.4806 82.215 28.8537L82.965 24.6806C80.765 25.5851 78.435 26.1313 76.025 26.1313C72.255 26.1313 70.055 24.9313 69.775 21.7433C69.765 21.5552 69.745 21.3761 69.745 21.1881V21.009C69.775 19.6298 70.105 18.2597 70.705 16.9881C71.835 14.409 73.435 12.6269 76.905 12.6269C79.365 12.6269 80.645 13.8448 80.645 16.0119C80.645 16.4866 80.595 16.9164 80.515 17.391H72.455C71.935 18.9851 71.845 20.0507 71.825 21.009H85.685C86.035 19.5134 86.255 18.0179 86.255 16.4866ZM106.195 11.4895C106.365 10.7015 106.545 9.87761 106.675 9.24179H112.165L111.635 11.9552H111.725C113.305 9.86865 115.895 8.76716 118.665 8.76716C121.345 8.76716 124.115 10.1821 124.425 12.6179H124.515C126.015 9.98507 129.305 8.76716 132.465 8.76716C135.845 8.76716 138.755 11.2478 138.755 14.3194C138.755 16.1284 138.225 18.1791 137.745 19.8269L135.375 29.5075H129.485L131.855 19.6298C132.155 18.4119 132.595 16.5224 132.595 15.3045C132.595 13.809 131.325 12.8687 129.825 12.8687C125.735 12.8687 124.725 17.1224 123.985 19.8716L121.655 29.5164H115.765L118.135 19.6388C118.445 18.4209 118.885 16.5313 118.885 15.3134C118.885 13.8179 117.615 12.8776 116.115 12.8776C112.115 12.8776 111.015 17.1672 110.275 19.8806L107.945 29.5254H102.055L106.195 11.4895ZM178.345 13.3701C177.715 13.0657 176.085 12.6269 174.415 12.6269C172.655 12.6269 170.465 13.0657 170.465 14.6687C170.465 17.2298 178.105 18.1701 178.105 23.1313C178.105 28.406 172.965 29.9731 167.905 29.9731C165.535 29.9731 163.165 29.6597 161.005 28.7552L162.275 24.5463C163.945 25.3701 165.615 26.1224 167.895 26.1224C169.875 26.1224 171.935 25.5313 171.935 23.8836C171.935 20.6149 164.295 20.3015 164.295 15.2239C164.295 10.4597 169.435 8.76716 174.095 8.76716C176.245 8.76716 178.445 9.12537 179.605 9.39403L178.345 13.3701ZM182.105 9.24179H186.365L187.375 5.07761L193.705 3.22388L192.255 9.24179H197.525L196.595 13.1015H191.325L189.175 21.9582C188.995 22.603 188.915 23.2657 188.905 23.9284C188.905 25.1463 189.825 25.8985 191.145 25.8985C192.205 25.8985 193.255 25.7015 193.995 25.4239L192.985 29.5164C191.975 29.7134 190.835 29.991 189.825 29.991C185.825 29.991 183.015 28.5761 183.015 24.6806C183.015 23.1045 183.365 21.5731 183.765 19.9522L185.435 13.1104H181.185L182.105 9.24179ZM222.025 11.9642C222.205 11.0955 222.375 10.191 222.555 9.25074H228.175L227.385 13.0657H227.475C228.535 10.8627 231.435 8.77612 234.155 8.77612C234.905 8.77612 235.695 8.81194 236.395 8.97313L235.165 14.1313C234.505 13.9343 233.675 13.8179 232.925 13.8179C228.745 13.8179 226.725 17.1672 225.985 20.4269L223.875 29.5164H217.985L222.025 11.9642ZM217.945 16.4866C217.945 11.3284 214.255 8.77612 208.675 8.77612C201.245 8.77612 195.795 14.8388 195.795 21.1343C195.795 27.1522 200.185 29.991 206.695 29.991C209.105 29.991 211.615 29.4806 213.905 28.8537L214.655 24.6806C212.455 25.5851 210.135 26.1313 207.715 26.1313C203.945 26.1313 201.745 24.9313 201.465 21.7433C201.455 21.5552 201.435 21.3761 201.435 21.1881C201.435 21.1522 201.445 21.1164 201.445 21.0716V21.009H201.455C201.475 19.6209 201.815 18.2507 202.415 16.9881C203.545 14.409 205.145 12.6269 208.615 12.6269C211.075 12.6269 212.355 13.8448 212.355 16.0119C212.355 16.4866 212.305 16.9164 212.225 17.391H204.165C203.645 18.9851 203.555 20.0507 203.535 21.009H217.405C217.725 19.5134 217.945 18.0179 217.945 16.4866ZM244.725 8.03283C247.525 8.03283 249.815 10.0746 249.815 12.591C249.815 15.0985 247.525 17.1492 244.725 17.1492C241.925 17.1492 239.635 15.1075 239.635 12.591C239.635 10.0836 241.925 8.03283 244.725 8.03283ZM244.735 16.4687C247.075 16.4687 248.835 14.7761 248.835 12.591C248.835 10.406 247.065 8.71343 244.735 8.71343C242.365 8.71343 240.605 10.406 240.605 12.591C240.605 14.7761 242.375 16.4687 244.735 16.4687ZM242.785 9.91343H245.065C246.435 9.91343 247.105 10.406 247.105 11.4179C247.105 12.2776 246.505 12.8955 245.565 12.8955L247.265 15.2597H246.235L244.565 12.8955H243.745V15.2597H242.775V9.91343H242.785ZM243.755 12.2149H244.905C245.655 12.2149 246.135 12.0806 246.135 11.3821C246.135 10.7731 245.525 10.594 244.905 10.594H243.755V12.2149Z" fill="#868686"/>
</svg>
