<svg width="125" height="125" viewBox="0 0 125 125" fill="none" xmlns="http://www.w3.org/2000/svg">
<g clip-path="url(#clip0_1_257)">
<path d="M62.4981 1C32.245 1 7.7168 25.5282 7.7168 55.7813C7.7168 71.4319 14.3127 85.5083 24.8326 95.4838L22.9999 126L49.0205 108.821C53.3392 109.914 57.8393 110.558 62.4981 110.558C92.7558 110.558 117.279 86.0345 117.279 55.7768C117.284 25.5282 92.7558 1 62.4981 1ZM57.2042 52.4516C57.2042 58.0768 56.0338 62.5179 53.693 65.7705C51.3523 69.023 47.3421 71.9036 41.6535 74.3896L37.3666 66.274C40.8641 64.6364 43.282 62.9987 44.6157 61.3747C45.954 59.7416 46.6979 57.8182 46.8522 55.5999H37.3666V37.1731H57.2042V52.4516ZM87.6297 52.4516C87.6297 58.0768 86.4593 62.5179 84.1185 65.7705C81.7778 69.0321 77.7676 71.9036 72.079 74.3896L67.7966 66.274C71.2942 64.6364 73.7121 62.9987 75.0503 61.3747C76.3885 59.7416 77.1325 57.8182 77.2868 55.5999H67.8012V37.1731H87.6388L87.6297 52.4516Z" fill="#65D671"/>
</g>
<defs>
<clipPath id="clip0_1_257">
<rect width="125" height="125" fill="white"/>
</clipPath>
</defs>
</svg>
