<svg width="11" height="11" viewBox="0 0 11 11" fill="none" xmlns="http://www.w3.org/2000/svg">
<path d="M9.71094 0H1.28906C0.578273 0 0 0.578273 0 1.28906V9.71094C0 10.4217 0.578273 11 1.28906 11H9.71094C10.4217 11 11 10.4217 11 9.71094V1.28906C11 0.578273 10.4217 0 9.71094 0ZM10.1406 9.71094C10.1406 9.94787 9.94787 10.1406 9.71094 10.1406H7.26172V6.63867H8.58924L8.80859 5.30664H7.26172V4.38281C7.26172 4.01812 7.54155 3.73828 7.90625 3.73828H8.78711V2.40625H7.90625C6.8122 2.40625 5.93016 3.29248 5.93016 4.38655V5.30664H4.64062V6.63867H5.93016V10.1406H1.28906C1.05213 10.1406 0.859375 9.94787 0.859375 9.71094V1.28906C0.859375 1.05213 1.05213 0.859375 1.28906 0.859375H9.71094C9.94787 0.859375 10.1406 1.05213 10.1406 1.28906V9.71094Z" fill="#0DAC1F"/>
</svg>
