<svg width="94" height="95" viewBox="0 0 94 95" fill="none" xmlns="http://www.w3.org/2000/svg">
<g filter="url(#filter0_d_1_46)">
<path d="M65.5397 69.0761C65.5397 71.4318 63.7255 73.3623 61.4187 73.5468C61.2985 73.557 61.176 73.5621 61.0537 73.5621C60.7396 73.5621 60.4336 73.5304 60.138 73.4683H33.1181C32.8223 73.5304 32.5165 73.5621 32.2024 73.5621H32.1993C29.7223 73.5601 27.7164 71.5533 27.7164 69.0761C27.7164 66.7408 29.5009 64.8227 31.7811 64.6116C31.9198 64.5973 32.0606 64.5913 32.2022 64.5913C32.3909 64.5913 32.5754 64.6025 32.758 64.6249H60.4979C60.6805 64.6025 60.865 64.5913 61.0537 64.5913C61.3198 64.5913 61.5809 64.6147 61.8338 64.6597C63.9396 65.0275 65.5397 66.8652 65.5397 69.0761Z" fill="#FFCBB3"/>
<path d="M61.8339 64.6599V70.3421C61.8339 71.4454 61.6901 72.5193 61.4189 73.5473C61.2986 73.5575 61.1761 73.5626 61.0538 73.5626C60.7397 73.5626 60.4337 73.5309 60.1381 73.4687H33.1182C32.8224 73.5309 32.5166 73.5626 32.2025 73.5626H32.1994C31.9262 72.5296 31.7813 71.4518 31.7813 70.3422V64.6121C31.92 64.5978 32.0607 64.5918 32.2024 64.5918C32.391 64.5918 32.5755 64.603 32.7582 64.6254H60.498C60.6806 64.603 60.8651 64.5918 61.0538 64.5918C61.3198 64.5915 61.581 64.6149 61.8339 64.6599Z" fill="#E89876"/>
<path d="M60.4978 62.6038V71.9266C60.4978 78.598 55.7253 84.1547 49.4078 85.3694C48.5665 85.5315 47.6967 85.6161 46.8075 85.6161C39.2468 85.6161 33.118 79.4873 33.118 71.9266V62.6038C33.118 55.0432 39.2468 48.9133 46.8075 48.9133C47.6967 48.9133 48.5665 48.9979 49.4078 49.1602C52.146 49.6864 54.5933 51.0285 56.4882 52.9232C58.965 55.4012 60.4978 58.8235 60.4978 62.6038Z" fill="#E89876"/>
<path d="M60.4978 62.6039V71.9267C60.4978 78.598 55.7253 84.1548 49.4078 85.3694C43.0904 84.1548 38.3179 78.5982 38.3179 71.9267V62.6039C38.3179 55.9326 43.0904 50.3747 49.4078 49.1603C52.146 49.6864 54.5934 51.0286 56.4882 52.9232C58.965 55.4012 60.4978 58.8235 60.4978 62.6039Z" fill="#FFCBB3"/>
<path d="M59.6839 42.4744L53.5424 48.6159C53.022 47.3384 51.7699 46.437 50.3054 46.437C49.1037 46.437 48.044 47.0438 47.415 47.9674C45.8099 45.9901 43.3607 44.7262 40.6151 44.7262C35.778 44.7262 31.8569 48.6474 31.8569 53.4844C31.8569 58.3215 35.7781 62.2426 40.6151 62.2426C42.6359 62.2426 44.4952 61.5566 45.977 60.4071C50.3264 62.8999 55.969 62.2912 59.6841 58.5764C64.1303 54.1298 64.1303 46.9208 59.6839 42.4744Z" fill="#3E5268"/>
<path d="M37.1124 53.4846C37.1124 57.4057 39.6893 60.7258 43.2417 61.8414C42.414 62.1026 41.5307 62.2427 40.6148 62.2427C35.7779 62.2427 31.8566 58.3216 31.8566 53.4844C31.8566 48.6473 35.7777 44.7262 40.6148 44.7262C41.5307 44.7262 42.4121 44.8664 43.2417 45.1275C39.6895 46.2434 37.1124 49.5635 37.1124 53.4846Z" fill="#27394C"/>
<path d="M60.0687 16.8328L48.8354 2.37199C47.7166 0.931667 45.5401 0.931667 44.4212 2.37199L33.1877 16.8328C32.3315 17.9351 33.1169 19.5399 34.5128 19.5399H38.8782V31.5795C38.8782 32.3714 39.5202 33.0135 40.3122 33.0135H52.9445C53.7363 33.0135 54.3784 32.3716 54.3784 31.5795V19.5399H58.7438C60.1395 19.5399 60.925 17.9351 60.0687 16.8328Z" fill="#FC74AF"/>
<path d="M26.571 22.4971L8.84244 17.9143C7.07649 17.4577 5.35379 18.7876 5.34811 20.6116L5.29194 38.9228C5.28763 40.3185 6.89025 41.109 7.99513 40.2562L11.4509 37.5886L18.8076 47.1191C19.2915 47.746 20.1919 47.8618 20.8188 47.378L30.8184 39.659C31.4454 39.1751 31.5611 38.2747 31.0774 37.6477L23.7207 28.1173L27.1764 25.4498C28.2813 24.597 27.9224 22.8465 26.571 22.4971Z" fill="#70E6D1"/>
<path d="M66.6852 22.4971L84.4137 17.9143C86.1797 17.4577 87.9024 18.7876 87.9081 20.6116L87.9642 38.9228C87.9685 40.3185 86.3659 41.109 85.261 40.2562L81.8053 37.5886L74.4486 47.1191C73.9647 47.746 73.0643 47.8618 72.4373 47.378L62.4378 39.659C61.8108 39.1751 61.695 38.2747 62.1788 37.6477L69.5355 28.1173L66.0798 25.4498C64.9751 24.597 65.3339 22.8465 66.6852 22.4971Z" fill="#FFE563"/>
<path d="M61.7905 63.3483V62.6039C61.7905 61.2907 61.6187 59.9953 61.2839 58.7415C65.5253 53.7659 65.2989 46.2624 60.5977 41.561C60.3553 41.3186 60.0268 41.1825 59.6839 41.1825C59.341 41.1825 59.0127 41.3186 58.7701 41.561L53.7383 46.593C52.8556 45.6828 51.6298 45.1453 50.3051 45.1453C49.2552 45.1453 48.2516 45.4888 47.4337 46.1023C45.5884 44.3924 43.171 43.4345 40.6148 43.4345C35.073 43.4345 30.5644 47.9431 30.5644 53.4849C30.5644 55.5423 31.1869 57.4568 32.2519 59.0515C31.9702 60.2087 31.8262 61.4006 31.8262 62.6039V63.3135C28.8174 63.5106 26.4291 66.0193 26.4291 69.0767C26.4291 72.2315 28.9707 74.802 32.1138 74.8525C33.4781 81.7178 39.5478 86.9091 46.8078 86.9091C47.7635 86.9091 48.7207 86.818 49.6519 86.6383C52.2158 86.1456 54.6193 84.9787 56.6031 83.2637C57.143 82.797 57.2023 81.981 56.7355 81.4411C56.2686 80.9011 55.4527 80.842 54.9129 81.3088C53.2717 82.7277 51.2839 83.6931 49.1635 84.1005C48.3922 84.2492 47.5998 84.3247 46.808 84.3247C39.9721 84.3247 34.4107 78.7632 34.4107 71.9274V62.604C34.4107 62.2098 34.4307 61.8174 34.4674 61.4275C36.1682 62.747 38.3006 63.5354 40.6149 63.5354C42.5787 63.5354 44.4501 62.98 46.0761 61.9218C50.2965 63.9816 55.3133 63.5132 59.0728 60.7911C59.1605 61.3884 59.2061 61.9936 59.2061 62.6042V64.6369C59.2061 64.6437 59.206 64.6506 59.2061 64.6577V71.9279C59.2061 74.0457 58.6633 76.1352 57.6361 77.9707C57.2877 78.5935 57.51 79.3809 58.1328 79.7294C58.3323 79.8411 58.5489 79.8943 58.7625 79.8943C59.2151 79.8943 59.6546 79.656 59.8913 79.2329C60.6584 77.8625 61.2012 76.3753 61.5052 74.8361C64.4809 74.6047 66.8318 72.1112 66.8318 69.0774C66.8318 66.1411 64.6298 63.7117 61.7905 63.3483ZM29.0136 69.0767C29.0136 67.4453 30.2446 66.098 31.8264 65.9089V71.9275C31.8264 72.034 31.8281 72.1401 31.8303 72.2463C30.2467 72.0588 29.0136 70.71 29.0136 69.0767ZM46.6197 59.2865C46.1652 59.026 45.5989 59.0656 45.1852 59.3866C43.8657 60.41 42.2854 60.9511 40.6151 60.9511C36.4983 60.9511 33.149 57.6018 33.149 53.485C33.149 49.3682 36.4983 46.0189 40.6151 46.0189C42.8733 46.0189 44.9862 47.0263 46.4117 48.7824C46.6691 49.0996 47.0625 49.2774 47.4692 49.2592C47.8772 49.2421 48.2531 49.0331 48.4831 48.6956C48.8949 48.0909 49.5761 47.7299 50.3054 47.7299C51.2051 47.7299 52.0059 48.2692 52.3458 49.1041C52.5092 49.505 52.8623 49.7976 53.2867 49.8834C53.7112 49.9688 54.1502 49.8367 54.4564 49.5305L59.626 44.3609C62.6812 48.3164 62.3962 54.0377 58.7704 57.6635C55.5562 60.877 50.5599 61.5448 46.6197 59.2865ZM61.7865 72.1825C61.7879 72.0976 61.7906 72.0127 61.7906 71.9275V65.9733C63.197 66.3072 64.2476 67.5702 64.2476 69.0769C64.2475 70.5854 63.195 71.85 61.7865 72.1825Z" fill="black"/>
<path d="M46.8075 79.1128C48.6648 79.1128 50.5224 78.4057 51.9363 76.9918C52.441 76.4871 52.441 75.6689 51.9363 75.1645C51.4315 74.6599 50.6135 74.6599 50.1089 75.1645C48.2889 76.9847 45.3267 76.9847 43.5063 75.1645C43.0017 74.6599 42.1835 74.6599 41.679 75.1645C41.1744 75.6691 41.1744 76.4873 41.679 76.9918C43.0928 78.4057 44.9503 79.1128 46.8075 79.1128Z" fill="black"/>
<path d="M42.1362 70.0815V66.7164C42.1362 66.0027 41.5577 65.4242 40.8441 65.4242C40.1305 65.4242 39.5519 66.0027 39.5519 66.7164V70.0815C39.5519 70.7951 40.1305 71.3736 40.8441 71.3736C41.5577 71.3736 42.1362 70.7951 42.1362 70.0815Z" fill="black"/>
<path d="M54.0644 70.0815V66.7164C54.0644 66.0027 53.486 65.4242 52.7722 65.4242C52.0584 65.4242 51.4801 66.0027 51.4801 66.7164V70.0815C51.4801 70.7951 52.0584 71.3736 52.7722 71.3736C53.486 71.3736 54.0644 70.7951 54.0644 70.0815Z" fill="black"/>
<path d="M34.5127 20.8325H37.586V31.58C37.586 33.0832 38.8089 34.3061 40.3121 34.3061H52.9444C54.4476 34.3061 55.6703 33.0832 55.6703 31.58V20.8325H58.7437C59.8869 20.8325 60.9089 20.1947 61.4114 19.168C61.9138 18.1414 61.7903 16.9429 61.0891 16.0403L49.8558 1.5797C49.0758 0.575785 47.8994 0 46.6283 0C45.357 0 44.1804 0.575785 43.4007 1.5797L32.1672 16.0405C31.466 16.9431 31.3426 18.1415 31.845 19.1682C32.3476 20.1949 33.3697 20.8325 34.5127 20.8325ZM34.2081 17.6259L45.4416 3.16509C45.7284 2.79588 46.1609 2.58431 46.6283 2.58431C47.0957 2.58431 47.5283 2.79605 47.815 3.16509L59.0483 17.6259C59.1705 17.7828 59.1384 17.9334 59.0902 18.032C59.042 18.1307 58.9427 18.2482 58.7437 18.2482H54.3781C53.6643 18.2482 53.086 18.8267 53.086 19.5403V31.58C53.086 31.6582 53.0224 31.7217 52.9444 31.7217H40.3121C40.2338 31.7217 40.1703 31.6582 40.1703 31.58V19.5403C40.1703 18.8267 39.5917 18.2482 38.8781 18.2482H34.5127C34.3139 18.2482 34.2146 18.1307 34.1662 18.032C34.1178 17.9332 34.0861 17.783 34.2081 17.6259Z" fill="black"/>
<path d="M32.6461 38.8724C32.7391 38.1502 32.5453 37.435 32.1003 36.8587L25.5332 28.3512L27.9661 26.4732C28.8708 25.7748 29.2903 24.6454 29.0608 23.5257C28.8313 22.406 28.0012 21.5327 26.8946 21.2467L18.1009 18.9736C17.4107 18.7951 16.705 19.2103 16.5265 19.9012C16.3479 20.592 16.7632 21.297 17.4541 21.4755L26.2478 23.7487C26.4405 23.7985 26.5071 23.9372 26.5292 24.0447C26.5512 24.1522 26.5445 24.3059 26.3871 24.4275L22.9313 27.095C22.6601 27.3044 22.483 27.6131 22.4394 27.9528C22.3958 28.2926 22.4887 28.6361 22.698 28.9075L30.0547 38.4379C30.1024 38.4998 30.0909 38.5888 30.0292 38.6366L20.0296 46.3556C19.9678 46.4031 19.8784 46.3917 19.8308 46.3301L12.4741 36.7996C12.2648 36.5285 11.9561 36.3513 11.6163 36.3078C11.2757 36.2638 10.933 36.357 10.6617 36.5664L7.20594 39.2339C7.04847 39.3557 6.89824 39.3233 6.79969 39.2745C6.70131 39.226 6.58416 39.1264 6.58467 38.9274L6.64084 20.6162C6.64222 20.1487 6.85534 19.717 7.22524 19.4313C7.59531 19.1457 8.06738 19.0492 8.51963 19.166L13.1838 20.3717C13.8747 20.5505 14.5797 20.135 14.7582 19.4441C14.9368 18.7532 14.5214 18.0482 13.8306 17.8697L9.1664 16.664C7.93575 16.3458 6.65273 16.6089 5.64605 17.3858C4.63972 18.1626 4.06032 19.3373 4.05653 20.6084L4.00002 38.9191C3.9964 40.0621 4.6311 41.0863 5.65622 41.5918C6.6815 42.0976 7.88027 41.9776 8.78496 41.2793L11.2178 39.4014L17.7851 47.9091C18.3216 48.6039 19.1296 48.9681 19.9461 48.9681C20.5277 48.9681 21.1137 48.7831 21.6087 48.4011L31.6084 40.6821C32.1845 40.2373 32.5532 39.5945 32.6461 38.8724Z" fill="black"/>
<path d="M89.2002 20.6077C89.1963 19.3364 88.6167 18.1618 87.6103 17.3851C86.6042 16.6084 85.3212 16.3454 84.0902 16.6636L66.3618 21.2464C65.2552 21.5324 64.4251 22.4057 64.1956 23.5254C63.966 24.6451 64.3856 25.7745 65.2903 26.4729L67.7232 28.3509L61.1561 36.8584C60.7111 37.4347 60.5173 38.1501 60.6103 38.8721C60.7032 39.5943 61.0719 40.237 61.6482 40.682L71.6477 48.401C72.1429 48.7831 72.7287 48.9682 73.3103 48.968C74.1268 48.968 74.9352 48.6036 75.4713 47.9089L82.0386 39.4014L84.4713 41.2793C85.3761 41.9778 86.5749 42.0973 87.5998 41.592C88.6248 41.0864 89.2595 40.0623 89.256 38.9191L89.2002 20.6077ZM86.4567 39.2741C86.3585 39.3226 86.2079 39.355 86.0506 39.2334L82.5949 36.5659C82.3235 36.3565 81.9803 36.2635 81.6402 36.3073C81.3003 36.351 80.9917 36.528 80.7824 36.7991L73.4257 46.3296C73.3778 46.3914 73.2888 46.4028 73.2269 46.3551L63.2274 38.6361C63.1963 38.6123 63.1783 38.5806 63.1734 38.542C63.1684 38.5034 63.1779 38.4683 63.2017 38.4374L70.5584 28.907C70.7679 28.6357 70.8609 28.2923 70.8171 27.9524C70.7734 27.6124 70.5964 27.3039 70.3253 27.0945L66.8695 24.427C66.712 24.3056 66.7053 24.1519 66.7274 24.0442C66.7494 23.9365 66.8161 23.798 67.0087 23.7482L84.7371 19.1654C84.8629 19.1328 84.9904 19.1168 85.1167 19.1168C85.4442 19.1168 85.7643 19.2244 86.0315 19.4307C86.4014 19.7163 86.6145 20.1483 86.6161 20.6157L86.6721 38.9267C86.6726 39.1259 86.5554 39.2255 86.4567 39.2741Z" fill="black"/>
</g>
<defs>
<filter id="filter0_d_1_46" x="0" y="0" width="93.256" height="94.9092" filterUnits="userSpaceOnUse" color-interpolation-filters="sRGB">
<feFlood flood-opacity="0" result="BackgroundImageFix"/>
<feColorMatrix in="SourceAlpha" type="matrix" values="0 0 0 0 0 0 0 0 0 0 0 0 0 0 0 0 0 0 127 0" result="hardAlpha"/>
<feOffset dy="4"/>
<feGaussianBlur stdDeviation="2"/>
<feComposite in2="hardAlpha" operator="out"/>
<feColorMatrix type="matrix" values="0 0 0 0 0 0 0 0 0 0 0 0 0 0 0 0 0 0 0.25 0"/>
<feBlend mode="normal" in2="BackgroundImageFix" result="effect1_dropShadow_1_46"/>
<feBlend mode="normal" in="SourceGraphic" in2="effect1_dropShadow_1_46" result="shape"/>
</filter>
</defs>
</svg>
