<svg width="87" height="87" viewBox="0 0 87 87" fill="none" xmlns="http://www.w3.org/2000/svg">
<path d="M59.4184 34.1212H27.3133L22.9403 19.976H63.7381L59.4184 34.1212Z" fill="#CAC5CB"/>
<path d="M48.0833 55.9318L60.7812 63.239C66.5652 66.5674 70.1304 72.7324 70.1304 79.4057V84.3864C70.1304 85.0714 69.575 85.6267 68.89 85.6267H17.3342C16.6493 85.6267 16.0939 85.0714 16.0939 84.3864V79.4057C16.0939 72.7324 19.6591 66.5674 25.443 63.239L38.141 55.9318L41.2108 54.3999H45.2401L48.0833 55.9318Z" fill="#FBE88C"/>
<path d="M27.3841 37.0415C25.5783 37.0415 24.1144 35.5776 24.1144 33.7719C24.1144 31.9661 25.5783 30.5022 27.3841 30.5022H35.3345V37.0413H27.3841V37.0415Z" fill="#FFD1C2"/>
<path d="M56.9869 37.0415H59.0115C60.8172 37.0415 62.2811 35.5776 62.2811 33.7719C62.2811 31.9661 60.8172 30.5022 59.0115 30.5022H56.9869H50.1324V37.0413H56.9869V37.0415Z" fill="#FFD1C2"/>
<path d="M49.1051 56.5198L48.0831 55.9318L45.2401 54.3999H41.2108L38.141 55.9318L25.443 63.2391C19.6591 66.5676 16.0939 72.7326 16.0939 79.4059V84.3866C16.0939 85.0715 16.6493 85.6269 17.3342 85.6269H22.932V81.5257C22.932 74.8523 26.4972 68.6874 32.2811 65.3589L35.5429 63.4819C36.6639 62.8368 38.0466 62.868 39.1442 63.5521C40.2966 64.2706 41.6564 64.6861 43.1121 64.6861C47.1824 64.6861 50.507 61.4418 50.6408 57.4034L49.1051 56.5198Z" fill="#FBE372"/>
<path d="M48.0834 57.1513C48.0834 59.8969 45.8578 62.1225 43.1123 62.1225C40.3667 62.1225 38.1411 59.8969 38.1411 57.1513V45.7455H48.0832V57.1513H48.0834Z" fill="#FFD1C2"/>
<path d="M56.9867 39.4063C56.9867 47.0218 50.8132 53.1953 43.1977 53.1953C35.5822 53.1953 29.4087 47.0218 29.4087 39.4063V17.2654H56.9867V39.4063Z" fill="#FFE0D1"/>
<path d="M56.9867 17.2654H29.4087V29.3059C29.6854 29.2538 29.9605 29.1912 30.2326 29.1157L34.5926 27.9061C35.0986 27.7658 35.6213 27.6945 36.1464 27.6945C36.6177 27.6945 37.0885 27.7521 37.5459 27.8656L40.7337 28.6564C41.729 28.9032 42.7536 29.0285 43.7791 29.0285C45.4252 29.0285 47.0326 28.7131 48.5567 28.0916C49.2569 27.8059 49.9953 27.661 50.7515 27.661C50.976 27.661 51.203 27.6742 51.426 27.7003L56.9866 28.3499V17.2654H56.9867Z" fill="#FFD1C2"/>
<path d="M26.5681 11.4983L23.1309 14.6365C20.7602 16.8011 20.3006 20.3617 22.0436 23.0573C23.6035 25.4699 26.5501 26.5894 29.3184 25.8212L33.6785 24.6115C35.2102 24.1865 36.8259 24.1643 38.3688 24.547L41.5565 25.3378C43.4551 25.8087 45.454 25.6644 47.2653 24.9256C48.7076 24.3373 50.2754 24.1236 51.8228 24.3043L58.8547 25.1258C61.5642 25.4424 64.1252 23.818 64.9935 21.2319C65.8492 18.6836 64.8318 15.882 62.5402 14.4767L59.5017 12.6135L59.312 11.9802C57.946 7.4198 53.6461 4.37869 48.8912 4.61014C48.3629 4.63578 47.8365 4.53031 47.359 4.3028L43.4676 2.44951C36.3864 -0.923212 28.0362 3.3594 26.6438 11.0782L26.5681 11.4983Z" fill="#A59CA6"/>
<path d="M82.1835 47.3147L76.7361 41.8977C76.585 41.7475 76.3411 41.7475 76.1899 41.8977L70.7426 47.3147C70.4976 47.5583 70.6701 47.9765 71.0156 47.9765H73.9797V48.4353C73.9797 51.647 72.9567 54.7753 71.059 57.3665L70.4862 58.1487C70.1951 58.5462 70.6294 59.0684 71.0732 58.8547L73.17 57.8451C76.7014 56.1448 78.9464 52.572 78.9464 48.6528V47.9767H81.9103C82.2559 47.9764 82.4284 47.5583 82.1835 47.3147Z" fill="#B3E5EE"/>
<path d="M76.345 37.5129C81.1877 37.5129 85.1135 33.5871 85.1135 28.7444C85.1135 23.9017 81.1877 19.976 76.345 19.976C71.5023 19.976 67.5765 23.9017 67.5765 28.7444C67.5765 33.5871 71.5023 37.5129 76.345 37.5129Z" fill="#E79098"/>
<path d="M71.3464 28.7443C71.3464 24.549 74.295 21.0411 78.2313 20.1785C77.624 20.0454 76.9924 19.976 76.345 19.976C71.5024 19.976 67.5765 23.9017 67.5765 28.7444C67.5765 33.5872 71.5022 37.5129 76.345 37.5129C76.9924 37.5129 77.624 37.4435 78.2313 37.3103C74.2948 36.4475 71.3464 32.9397 71.3464 28.7443Z" fill="#E17983"/>
<path d="M4.21198 47.3147L9.65935 41.8977C9.81046 41.7475 10.0544 41.7475 10.2055 41.8977L15.6529 47.3147C15.8978 47.5583 15.7253 47.9765 15.3799 47.9765H12.4157V48.4353C12.4157 51.647 13.4387 54.7753 15.3365 57.3665L15.9093 58.1487C16.2004 58.5462 15.766 59.0684 15.3223 58.8547L13.2254 57.8451C9.69405 56.1448 7.44898 52.572 7.44898 48.6528V47.9767H4.48513C4.1395 47.9764 3.96703 47.5583 4.21198 47.3147Z" fill="#B3E5EE"/>
<path d="M10.0504 37.5129C14.8931 37.5129 18.8188 33.5871 18.8188 28.7444C18.8188 23.9017 14.8931 19.976 10.0504 19.976C5.20767 19.976 1.28189 23.9017 1.28189 28.7444C1.28189 33.5871 5.20767 37.5129 10.0504 37.5129Z" fill="#B8DE9C"/>
<path d="M5.2146 28.7443C5.2146 24.578 8.12239 21.0898 12.0178 20.1968C11.3854 20.0518 10.7268 19.976 10.0504 19.976C5.20777 19.976 1.28189 23.9017 1.28189 28.7444C1.28189 33.5872 5.20759 37.5129 10.0504 37.5129C10.7268 37.5129 11.3854 37.4363 12.0178 37.2914C8.12239 36.3982 5.2146 32.9106 5.2146 28.7443Z" fill="#A6D786"/>
<path d="M21.5409 64.4736C17.2646 68.2552 14.812 73.6978 14.812 79.406V85.627C14.812 86.3352 15.386 86.9091 16.094 86.9091C16.802 86.9091 17.376 86.3352 17.376 85.627V79.406C17.376 74.432 19.5131 69.6894 23.2393 66.3942C23.7697 65.9252 23.8195 65.1151 23.3504 64.5845C22.8814 64.0543 22.0711 64.0044 21.5409 64.4736Z" fill="black"/>
<path d="M61.4208 62.1282L49.3654 55.1908V53.1594C50.8638 52.4861 52.2556 51.5648 53.4838 50.4171C54.001 49.9337 54.0287 49.1224 53.5451 48.605C53.0616 48.0878 52.2503 48.0601 51.7331 48.5438C49.4078 50.7166 46.3766 51.9133 43.1977 51.9133C36.3013 51.9133 30.6907 46.3027 30.6907 39.4063V26.7711L34.0214 25.847C35.338 25.4821 36.7347 25.4627 38.0603 25.7916L41.248 26.5824C43.4249 27.1224 45.6731 26.9601 47.7497 26.113C48.9883 25.6077 50.3452 25.4234 51.6741 25.578L55.7046 26.0487V39.4063C55.7046 41.1784 55.3381 42.8953 54.6155 44.5094C54.3261 45.1555 54.6155 45.914 55.2617 46.2032C55.4319 46.2794 55.6097 46.3155 55.7849 46.3155C56.2748 46.3155 56.7427 46.0331 56.9558 45.5569C57.8271 43.6113 58.2688 41.542 58.2688 39.4063V38.3234H59.0113C61.5212 38.3234 63.563 36.2816 63.563 33.7717C63.563 32.339 62.8968 31.0593 61.8588 30.2245L63.1355 25.4402C64.5436 24.5982 65.6605 23.2739 66.2092 21.6403C67.2613 18.507 66.0284 15.1121 63.2107 13.3839L60.5897 11.7768L60.5405 11.6124C59.0019 6.47472 54.1879 3.06798 48.8292 3.32986C48.515 3.34644 48.1961 3.28148 47.9106 3.14559L44.0193 1.29213C40.2806 -0.488672 36.0227 -0.42628 32.3377 1.46392C28.6549 3.35276 26.1204 6.77147 25.3837 10.844L22.2669 13.6899C19.4225 16.2868 18.876 20.5193 20.9674 23.7536C21.6248 24.7703 22.4822 25.5923 23.4612 26.1932L24.5369 30.2243C23.4988 31.0593 22.8327 32.3388 22.8327 33.7716C22.8327 36.2814 24.8745 38.3232 27.3843 38.3232H28.1269V39.4061C28.1269 45.4533 31.7075 50.6791 36.8593 53.0774V55.1906L26.5645 61.1147C25.9509 61.4679 25.7396 62.2516 26.0927 62.8655C26.33 63.2776 26.7614 63.5082 27.205 63.5082C27.4219 63.5082 27.6418 63.4531 27.8433 63.3372L36.9323 58.1071C37.3936 61.1031 39.9893 63.4046 43.1123 63.4046C46.2353 63.4046 48.8309 61.1031 49.2923 58.1071L60.1417 64.3506C65.5122 67.4409 68.8483 73.2098 68.8483 79.406V85.6271C68.8483 86.3353 69.4223 86.9091 70.1303 86.9091C70.8383 86.9091 71.4123 86.3353 71.4123 85.6271V79.406C71.4127 72.2953 67.5841 65.6748 61.4208 62.1282ZM59.0115 35.7594H58.2689V31.7841H59.0115C60.1075 31.7841 60.9991 32.6757 60.9991 33.7717C60.9991 34.8678 60.1075 35.7594 59.0115 35.7594ZM59.467 29.243C59.3171 29.2279 59.1653 29.2201 59.0115 29.2201H58.2689V26.3482L58.7065 26.3993C59.2178 26.4591 59.7257 26.4612 60.2229 26.4104L59.467 29.243ZM23.9957 15.5835L27.4329 12.4453C27.6406 12.2556 27.7802 12.0029 27.8301 11.726L27.9059 11.306C28.498 8.0234 30.54 5.26775 33.5079 3.74557C35.0393 2.96012 36.6931 2.56663 38.3495 2.56663C39.9031 2.56663 41.4592 2.91311 42.9167 3.60745L46.8082 5.46091C47.4749 5.77833 48.2178 5.92756 48.954 5.89132C53.1308 5.68791 56.8847 8.34339 58.0843 12.3484L58.2739 12.9817C58.3643 13.2839 58.563 13.5419 58.832 13.7068L61.8706 15.57C63.6637 16.6698 64.4484 18.8303 63.7789 20.8242C63.1074 22.824 61.1003 24.098 59.0041 23.8529L51.9722 23.0314C50.2146 22.8257 48.42 23.0705 46.7817 23.739C45.2119 24.3794 43.5121 24.5024 41.866 24.0939L38.6782 23.3031C36.9247 22.8683 35.0776 22.8936 33.3365 23.3767L28.9766 24.5864C26.7367 25.207 24.3832 24.3135 23.121 22.3615C21.712 20.1831 22.08 17.3325 23.9957 15.5835ZM26.3994 27.2593C26.776 27.315 27.1573 27.3466 27.5424 27.3466C27.7366 27.3466 27.9317 27.3377 28.1269 27.3232V29.2201H27.3843C27.2307 29.2201 27.0787 29.2279 26.9288 29.243L26.3994 27.2593ZM27.3843 35.7594C26.2883 35.7594 25.3967 34.8678 25.3967 33.7717C25.3967 32.6757 26.2883 31.7841 27.3843 31.7841H28.1269V35.7594H27.3843ZM43.1124 60.8406C41.0783 60.8406 39.4233 59.1856 39.4233 57.1516V53.9985C40.6299 54.3108 41.8949 54.4772 43.1979 54.4772C44.4249 54.4772 45.6332 54.3276 46.8016 54.0404V57.1514C46.8016 59.1857 45.1466 60.8406 43.1124 60.8406Z" fill="black"/>
<path d="M83.0874 46.4057L77.6401 40.9889C76.991 40.3438 75.9352 40.3436 75.286 40.9889L69.8384 46.406C69.3574 46.8845 69.2138 47.599 69.4726 48.2261C69.7314 48.8533 70.3372 49.2586 71.0156 49.2586H72.6739C72.5185 51.9177 71.6107 54.4436 70.0249 56.609L69.4519 57.3913C68.9752 58.0424 69.0027 58.9303 69.5186 59.5506C69.8611 59.9626 70.3589 60.1843 70.8676 60.1841C71.125 60.1841 71.3852 60.1273 71.6295 60.0097L73.7265 59.0002C77.4938 57.1862 79.9896 53.4075 80.2125 49.2586H81.9107C82.5892 49.2586 83.1948 48.8533 83.4536 48.2261C83.7126 47.599 83.569 46.8845 83.0878 46.406C83.0876 46.4058 83.0874 46.4058 83.0874 46.4057ZM78.9465 46.6946C78.2385 46.6946 77.6645 47.2684 77.6645 47.9766V48.6526C77.6645 51.8295 75.9393 54.7883 73.2166 56.3704C74.5598 53.9503 75.2619 51.2433 75.2619 48.4352V47.9764C75.2619 47.2682 74.6879 46.6944 73.9798 46.6944H73.1845L76.463 43.4341L79.7417 46.6944H78.9465V46.6946Z" fill="black"/>
<path d="M76.3451 38.7948C81.887 38.7948 86.3956 34.2862 86.3956 28.7443C86.3956 23.2024 81.887 18.6938 76.3451 18.6938C70.8032 18.6938 66.2947 23.2024 66.2947 28.7443C66.2947 34.2862 70.8032 38.7948 76.3451 38.7948ZM76.3451 21.2579C80.4732 21.2579 83.8316 24.6162 83.8316 28.7443C83.8316 32.8724 80.4732 36.2308 76.3451 36.2308C72.2171 36.2308 68.8587 32.8724 68.8587 28.7443C68.8587 24.6162 72.2171 21.2579 76.3451 21.2579Z" fill="black"/>
<path d="M16.8772 59.5506C17.3931 58.9303 17.4205 58.0424 16.9437 57.3912L16.3708 56.609C14.785 54.4436 13.8771 51.9177 13.7218 49.2586H15.38C16.0585 49.2586 16.6642 48.8533 16.923 48.2261C17.182 47.599 17.0384 46.8843 16.5571 46.4057L11.1097 40.9889C10.4607 40.3438 9.40479 40.3436 8.75558 40.9889L3.3082 46.4057C3.3082 46.4058 3.3082 46.4058 3.30803 46.406C2.82702 46.8846 2.68344 47.599 2.94223 48.2261C3.20103 48.8533 3.80665 49.2586 4.4851 49.2586H6.18334C6.40624 53.4075 8.90207 57.1862 12.6693 59.0002L14.7662 60.0097C15.0104 60.1273 15.2706 60.1841 15.528 60.1841C16.0367 60.1841 16.5347 59.9627 16.8772 59.5506ZM13.179 56.3705C10.4564 54.7883 8.73113 51.8296 8.73113 48.6528V47.9767C8.73113 47.2686 8.15713 46.6947 7.44912 46.6947H6.6541L9.93281 43.4345L13.2114 46.6947H12.416C11.708 46.6947 11.134 47.2686 11.134 47.9767V48.4355C11.1338 51.2435 11.8357 53.9503 13.179 56.3705Z" fill="black"/>
<path d="M10.0505 38.7948C15.5922 38.7948 20.1008 34.2862 20.1008 28.7443C20.1008 23.2024 15.5922 18.6938 10.0505 18.6938C8.63668 18.6938 7.26612 18.9841 5.97676 19.5567C5.3296 19.8441 5.03798 20.6015 5.32532 21.2486C5.61267 21.8956 6.37059 22.1876 7.01724 21.9001C7.97705 21.4739 8.99753 21.2579 10.0505 21.2579C14.1784 21.2579 17.5368 24.6162 17.5368 28.7443C17.5368 32.8724 14.1784 36.2308 10.0505 36.2308C5.9224 36.2308 2.56403 32.8724 2.56403 28.7443C2.56403 27.469 2.89172 26.2085 3.51187 25.0991C3.85733 24.481 3.63631 23.6999 3.01821 23.3546C2.39993 23.0089 1.6191 23.23 1.27364 23.8482C0.44033 25.3391 0 27.0322 0 28.7445C0 34.2862 4.50859 38.7948 10.0505 38.7948Z" fill="black"/>
<path d="M8.79403 33.244C9.12206 33.244 9.45026 33.1188 9.70051 32.8686L14.7019 27.8672C15.2026 27.3664 15.2026 26.5548 14.7019 26.0541C14.2012 25.5536 13.3895 25.5536 12.889 26.0541L8.79403 30.149L8.24072 29.5957C7.74005 29.0952 6.92827 29.0952 6.42778 29.5957C5.92711 30.0965 5.92711 30.9081 6.42778 31.4088L7.88756 32.8686C8.13781 33.1188 8.46601 33.244 8.79403 33.244Z" fill="black"/>
<path d="M72.7966 32.4898C73.0441 32.7221 73.3593 32.8372 73.6738 32.8372C74.0155 32.8372 74.3564 32.7015 74.6087 32.4327L76.2532 30.6812L77.8978 32.4327C78.1503 32.7015 78.4911 32.8372 78.8327 32.8372C79.1472 32.8372 79.4626 32.7221 79.7099 32.4898C80.2261 32.0051 80.2516 31.1938 79.767 30.6776L78.0117 28.8081L79.767 26.9385C80.2516 26.4223 80.2261 25.6111 79.7099 25.1263C79.1939 24.6417 78.3826 24.667 77.8976 25.1834L76.2531 26.9349L74.6085 25.1834C74.1237 24.6671 73.3126 24.6415 72.7962 25.1263C72.28 25.6111 72.2546 26.4223 72.7392 26.9385L74.4945 28.8081L72.7392 30.6776C72.2549 31.1938 72.2805 32.0051 72.7966 32.4898Z" fill="black"/>
</svg>
