<svg width="89" height="81" viewBox="0 0 89 81" fill="none" xmlns="http://www.w3.org/2000/svg">
<path d="M76.4545 12.4545H59.9983V5.18777C59.9983 4.32157 60.7005 3.61951 61.5666 3.61951H74.8862C75.7524 3.61951 76.4545 4.32174 76.4545 5.18777V12.4545Z" fill="#FFD064"/>
<path d="M74.8863 3.61951H71.3026C72.1688 3.61951 72.8709 4.32157 72.8709 5.18777V12.4545H76.4546V5.18777C76.4546 4.32157 75.7523 3.61951 74.8863 3.61951Z" fill="#FFC250"/>
<path d="M68.2262 48.9934C79.3933 48.9934 88.446 39.9407 88.446 28.7736C88.446 17.6065 79.3933 8.55383 68.2262 8.55383C57.0592 8.55383 48.0065 17.6065 48.0065 28.7736C48.0065 39.9407 57.0592 48.9934 68.2262 48.9934Z" fill="#F9F6F6"/>
<path d="M68.2262 8.55383C67.5063 8.55383 66.7954 8.5922 66.0949 8.66552C76.26 9.7305 84.1833 18.3263 84.1833 28.7736C84.1833 39.2207 76.26 47.8167 66.0949 48.8817C66.7954 48.955 67.5063 48.9934 68.2262 48.9934C79.3933 48.9934 88.4459 39.9407 88.4459 28.7736C88.4459 17.6065 79.3933 8.55383 68.2262 8.55383Z" fill="#DDDAEC"/>
<path d="M86.1773 71.7834H14.5459C13.9104 71.7834 13.3951 71.2682 13.3951 70.6325V38.2158C13.3951 37.2062 14.2136 36.3878 15.2231 36.3878H67.7003C68.6224 36.3878 69.502 36.7755 70.1239 37.4562L87.5893 56.568C88.1403 57.171 88.4458 57.9584 88.4458 58.7752V69.5148C88.446 70.7676 87.4302 71.7834 86.1773 71.7834Z" fill="#80B4FB"/>
<path d="M87.5894 56.568L70.1241 37.4562C69.5022 36.7755 68.6225 36.3878 67.7005 36.3878H63.9637C64.8858 36.3878 65.7654 36.7755 66.3874 37.4562L83.8527 56.568C84.4037 57.171 84.7092 57.9584 84.7092 58.7752V69.5148C84.7092 70.7676 83.6935 71.7834 82.4406 71.7834H86.1773C87.4302 71.7834 88.446 70.7676 88.446 69.5148V58.7752C88.4461 57.9582 88.1406 57.171 87.5894 56.568Z" fill="#61A2F9"/>
<path d="M70.1241 37.4562C69.5021 36.7755 68.6225 36.3878 67.7004 36.3878H60.6555V52.7965C60.6555 53.5084 61.2327 54.0855 61.9446 54.0855H85.3207L70.1241 37.4562Z" fill="#E4F6FF"/>
<path d="M66.3874 37.4562L81.5842 54.0857H85.321L70.1241 37.4562C69.5022 36.7755 68.6225 36.3878 67.7005 36.3878H63.9637C64.8858 36.3878 65.7654 36.7755 66.3874 37.4562Z" fill="#D3EFFB"/>
<path d="M73.8097 80.7746C78.5088 80.7746 82.3182 76.9652 82.3182 72.2661C82.3182 67.567 78.5088 63.7577 73.8097 63.7577C69.1107 63.7577 65.3013 67.567 65.3013 72.2661C65.3013 76.9652 69.1107 80.7746 73.8097 80.7746Z" fill="#26457D"/>
<path d="M73.8096 63.7577C73.3277 63.7577 72.8559 63.7998 72.3959 63.8769C76.4218 64.5504 79.4907 68.049 79.4907 72.2661C79.4907 76.4834 76.4219 79.9818 72.3959 80.6554C72.8559 80.7323 73.3277 80.7746 73.8096 80.7746C78.5086 80.7746 82.318 76.9652 82.318 72.2661C82.318 67.5671 78.5086 63.7577 73.8096 63.7577Z" fill="#21386B"/>
<path d="M73.8098 75.0936C75.3712 75.0936 76.637 73.8278 76.637 72.2663C76.637 70.7049 75.3712 69.4391 73.8098 69.4391C72.2483 69.4391 70.9825 70.7049 70.9825 72.2663C70.9825 73.8278 72.2483 75.0936 73.8098 75.0936Z" fill="#F9F6F6"/>
<path d="M73.81 69.4391C73.3984 69.4391 73.0085 69.5291 72.6556 69.6873C73.6411 70.1291 74.3286 71.1167 74.3286 72.2665C74.3286 73.4164 73.6409 74.4039 72.6556 74.8458C73.0083 75.004 73.3984 75.0939 73.81 75.0939C75.3715 75.0939 76.6373 73.8282 76.6373 72.2665C76.6373 70.7049 75.3715 69.4391 73.81 69.4391Z" fill="#DDDAEC"/>
<path d="M31.4255 80.7746C36.1246 80.7746 39.9339 76.9652 39.9339 72.2661C39.9339 67.567 36.1246 63.7577 31.4255 63.7577C26.7264 63.7577 22.9171 67.567 22.9171 72.2661C22.9171 76.9652 26.7264 80.7746 31.4255 80.7746Z" fill="#26457D"/>
<path d="M31.4256 63.7577C30.9437 63.7577 30.472 63.7998 30.012 63.8769C34.0378 64.5504 37.1068 68.049 37.1068 72.2661C37.1068 76.4834 34.038 79.9818 30.012 80.6554C30.472 80.7323 30.9437 80.7746 31.4256 80.7746C36.1247 80.7746 39.9341 76.9652 39.9341 72.2661C39.9341 67.5671 36.1247 63.7577 31.4256 63.7577Z" fill="#21386B"/>
<path d="M31.4256 75.0936C32.987 75.0936 34.2528 73.8278 34.2528 72.2663C34.2528 70.7049 32.987 69.4391 31.4256 69.4391C29.8641 69.4391 28.5983 70.7049 28.5983 72.2663C28.5983 73.8278 29.8641 75.0936 31.4256 75.0936Z" fill="#F9F6F6"/>
<path d="M31.4258 69.4391C31.0142 69.4391 30.6243 69.5291 30.2714 69.6873C31.2569 70.1291 31.9444 71.1167 31.9444 72.2665C31.9444 73.4164 31.2568 74.4039 30.2714 74.8458C30.6241 75.004 31.0142 75.0939 31.4258 75.0939C32.9873 75.0939 34.2531 73.8282 34.2531 72.2665C34.2531 70.7049 32.9873 69.4391 31.4258 69.4391Z" fill="#DDDAEC"/>
<path d="M28.8286 56.9257L27.8376 55.9076L33.8756 50.0305L27.8376 44.1533L28.8286 43.1352C30.1991 41.7272 32.4515 41.6968 33.8595 43.0673L39.1511 48.2178C39.4254 48.4848 39.6488 48.8041 39.7798 49.1638C40.1278 50.1197 39.8684 51.1452 39.1808 51.8144L33.8595 56.9938C32.4516 58.3641 30.1991 58.3337 28.8286 56.9257Z" fill="#F9F6F6"/>
<path d="M68.2265 16.1954C68.9298 16.1954 69.4996 15.6256 69.4996 14.9223V13.2109C69.4996 12.5077 68.9298 11.9379 68.2265 11.9379C67.5233 11.9379 66.9534 12.5077 66.9534 13.2109V14.9223C66.9534 15.6254 67.5234 16.1954 68.2265 16.1954Z" fill="black"/>
<path d="M82.0773 27.5005C81.3741 27.5005 80.8042 28.0703 80.8042 28.7736C80.8042 29.4768 81.3741 30.0467 82.0773 30.0467H83.7885C84.4918 30.0467 85.0616 29.4768 85.0616 28.7736C85.0616 28.0703 84.4918 27.5005 83.7885 27.5005H82.0773Z" fill="black"/>
<path d="M52.6644 27.5005C51.9612 27.5005 51.3913 28.0703 51.3913 28.7736C51.3913 29.4768 51.9612 30.0467 52.6644 30.0467H54.3758C55.079 30.0467 55.6489 29.4768 55.6489 28.7736C55.6489 28.0703 55.079 27.5005 54.3758 27.5005H52.6644Z" fill="black"/>
<path d="M73.8099 68.1658C71.5489 68.1658 69.7094 70.0053 69.7094 72.2661C69.7094 74.5269 71.5489 76.3665 73.8099 76.3665C76.0707 76.3665 77.9103 74.5269 77.9103 72.2661C77.9103 70.0053 76.0707 68.1658 73.8099 68.1658ZM73.8099 73.8203C72.9527 73.8203 72.2556 73.1232 72.2556 72.2661C72.2556 71.4091 72.9527 70.7119 73.8099 70.7119C74.667 70.7119 75.3641 71.4091 75.3641 72.2661C75.3641 73.1232 74.667 73.8203 73.8099 73.8203Z" fill="black"/>
<path d="M27.3252 72.2661C27.3252 74.5269 29.1647 76.3665 31.4257 76.3665C33.6867 76.3665 35.526 74.5269 35.526 72.2661C35.526 70.0053 33.6867 68.1658 31.4257 68.1658C29.1647 68.1658 27.3252 70.0051 27.3252 72.2661ZM32.9799 72.2661C32.9799 73.1232 32.2827 73.8203 31.4257 73.8203C30.5687 73.8203 29.8714 73.1232 29.8714 72.2661C29.8714 71.4091 30.5687 70.7119 31.4257 70.7119C32.2827 70.7119 32.9799 71.4091 32.9799 72.2661Z" fill="black"/>
<path d="M40.0694 52.7263C41.5066 51.3274 41.6722 48.8942 40.0396 47.3054L34.748 42.1545C32.8391 40.2971 29.7747 40.3382 27.9169 42.2468L26.9259 43.2649C26.4355 43.7689 26.4464 44.5748 26.9502 45.0651L32.051 50.0301L26.9502 54.9949C26.7083 55.2304 26.5698 55.5524 26.5652 55.8898C26.5606 56.2275 26.6905 56.553 26.9259 56.7951L27.9169 57.8132C29.7808 59.7281 32.8386 59.7644 34.748 57.9054L40.0694 52.7263ZM29.7414 56.0375L29.6384 55.9318L34.7642 50.9425C35.0103 50.703 35.1493 50.3738 35.1493 50.0303C35.1493 49.6867 35.0105 49.3576 34.7642 49.1181L29.6384 44.1286L29.7414 44.0228C30.6204 43.12 32.0695 43.1004 32.9722 43.979L38.2638 49.1299C38.8285 49.6796 38.753 50.4543 38.2935 50.9017L32.9722 56.0811C32.0737 56.9555 30.6275 56.9478 29.7414 56.0375Z" fill="black"/>
<path d="M66.9534 28.7733C66.9534 29.4766 67.5233 30.0464 68.2265 30.0464H72.556C73.2593 30.0464 73.8291 29.4766 73.8291 28.7733C73.8291 28.0701 73.2593 27.5002 72.556 27.5002H69.4996V19.5722C69.4996 18.8689 68.9298 18.2991 68.2265 18.2991C67.5233 18.2991 66.9534 18.8689 66.9534 19.5722V28.7733Z" fill="black"/>
<path d="M24.5581 17.893H46.479C47.1822 17.893 47.7521 17.3231 47.7521 16.6199C47.7521 15.9166 47.1822 15.3468 46.479 15.3468H24.5581C23.855 15.3468 23.285 15.9166 23.285 16.6199C23.285 17.3231 23.855 17.893 24.5581 17.893Z" fill="black"/>
<path d="M19.2444 24.4702H41.999C42.7021 24.4702 43.2721 23.9004 43.2721 23.1972C43.2721 22.4939 42.7021 21.9241 41.999 21.9241H19.2444C18.5413 21.9241 17.9713 22.4939 17.9713 23.1972C17.9713 23.9004 18.5413 24.4702 19.2444 24.4702Z" fill="black"/>
<path d="M32.2622 27.7896C31.5591 27.7896 30.9891 28.3594 30.9891 29.0626C30.9891 29.7659 31.5591 30.3357 32.2622 30.3357H43.5849C44.288 30.3357 44.858 29.7659 44.858 29.0626C44.858 28.3594 44.288 27.7896 43.5849 27.7896H32.2622Z" fill="black"/>
<path d="M21.5286 27.7896C20.8255 27.7896 20.2555 28.3594 20.2555 29.0626C20.2555 29.7659 20.8255 30.3357 21.5286 30.3357H27.1797C27.8828 30.3357 28.4528 29.7659 28.4528 29.0626C28.4528 28.3594 27.8828 27.7896 27.1797 27.7896H21.5286Z" fill="black"/>
<path d="M4.08311 47.8675H8.73919C9.44228 47.8675 10.0123 47.2976 10.0123 46.5944C10.0123 45.8911 9.44228 45.3213 8.73919 45.3213H4.08311C3.38003 45.3213 2.81003 45.8911 2.81003 46.5944C2.81003 47.2976 3.38003 47.8675 4.08311 47.8675Z" fill="black"/>
<path d="M7.47799 59.0813H4.08311C3.38003 59.0813 2.81003 59.6511 2.81003 60.3544C2.81003 61.0576 3.38003 61.6275 4.08311 61.6275H7.47799C8.18108 61.6275 8.75108 61.0576 8.75108 60.3544C8.75108 59.6511 8.18108 59.0813 7.47799 59.0813Z" fill="black"/>
<path d="M22.4552 48.3011H17.9148C17.2118 48.3011 16.6418 48.871 16.6418 49.5742C16.6418 50.2775 17.2118 50.8473 17.9148 50.8473H22.4552C23.1582 50.8473 23.7282 50.2775 23.7282 49.5742C23.7282 48.871 23.1582 48.3011 22.4552 48.3011Z" fill="black"/>
<path d="M77.4049 44.2645C83.3035 40.2907 86.9091 33.5939 86.9091 26.4266C86.9091 23.0202 86.1342 19.7606 84.6056 16.739C84.2884 16.1116 83.5223 15.8602 82.8951 16.1775C82.2677 16.4947 82.0162 17.2608 82.3336 17.888C83.68 20.5503 84.3629 23.4232 84.3629 26.4266C84.3629 32.8725 81.0539 38.8864 75.6655 42.361L68.2537 34.2505C67.3927 33.3081 66.1666 32.7678 64.8903 32.7678H47.5584C46.836 30.7363 46.4695 28.6072 46.4695 26.4266C46.4695 15.9794 54.969 7.48012 65.4162 7.48012C70.8355 7.48012 76.0067 9.80969 79.6039 13.8715C80.0697 14.3977 80.8743 14.4469 81.401 13.9805C81.9274 13.5144 81.9763 12.7098 81.51 12.1834C79.6398 10.0714 77.3934 8.37399 74.9175 7.15302V2.84135C74.9175 1.27461 73.6429 0 72.0761 0H58.7565C57.1897 0 55.9151 1.27461 55.9151 2.84135V7.15183C48.8166 10.6652 43.9234 17.9846 43.9234 26.4266C43.9234 28.5966 44.2445 30.7218 44.8768 32.7678H12.4131C10.7891 32.7678 9.45509 34.0232 9.3249 35.6144H4.66797C3.96489 35.6144 3.39489 36.1842 3.39489 36.8875C3.39489 37.5907 3.96489 38.1605 4.66797 38.1605H9.312V50.4656H1.27308C0.570001 50.4656 0 51.0355 0 51.7387C0 52.442 0.570001 53.0118 1.27308 53.0118H9.312V56.7355C8.61452 56.7419 8.0508 57.3089 8.0508 58.0079C8.0508 58.7069 8.61435 59.2738 9.312 59.2803V68.2856C9.312 69.6221 10.3994 70.7093 11.7358 70.7093H15.161V71.5956H11.189C10.486 71.5956 9.91595 72.1654 9.91595 72.8687C9.91595 73.5719 10.486 74.1417 11.189 74.1417H16.4341C17.1372 74.1417 17.7072 73.5719 17.7072 72.8687V70.7093H18.8688C19.2728 75.7344 23.4884 79.7007 28.6157 79.7007C30.3077 79.7007 31.9779 79.2592 33.4457 78.424C34.0568 78.0762 34.2702 77.299 33.9225 76.6879C33.5749 76.0767 32.7978 75.8636 32.1864 76.2109C31.1017 76.8283 29.8668 77.1545 28.6157 77.1545C24.6262 77.1545 21.3803 73.9088 21.3803 69.9192C21.3803 65.9295 24.6262 62.6838 28.6157 62.6838C32.6052 62.6838 35.851 65.9295 35.851 69.9192C35.851 71.0069 35.6152 72.053 35.1501 73.0286C34.8475 73.6632 35.1169 74.423 35.7514 74.7255C36.3862 75.028 37.1458 74.7588 37.4485 74.1243C37.9643 73.0423 38.268 71.8964 38.3622 70.7093H61.2529C61.6569 75.7344 65.8725 79.7007 70.9998 79.7007C76.1271 79.7007 80.3425 75.7344 80.7467 70.7093H83.3673C85.3203 70.7093 86.9091 69.1205 86.9091 67.1676V56.4279C86.9091 55.2905 86.4866 54.2015 85.7191 53.362L77.4049 44.2645ZM58.4613 2.84135C58.4613 2.67856 58.5937 2.54616 58.7565 2.54616H72.0761C72.2389 2.54616 72.3713 2.67856 72.3713 2.84135V6.09467C70.1543 5.3354 67.8069 4.93413 65.4162 4.93413C62.9833 4.93413 60.6437 5.34117 58.4611 6.08957V2.84135H58.4613ZM66.3742 35.9683L79.6228 50.4656H70.1261C69.4229 50.4656 68.853 51.0355 68.853 51.7387C68.853 52.442 69.4229 53.0118 70.1261 53.0118H81.9496L83.8397 55.0801C84.6104 55.9234 84.2865 56.8385 84.3629 57.8096H83.3814C82.6782 57.8096 82.1083 58.3795 82.1083 59.0827C82.1083 59.786 82.6782 60.3558 83.3814 60.3558H84.3629V62.2396H77.0467C75.3812 60.9253 73.2813 60.138 70.9999 60.138C68.7186 60.138 66.6187 60.9253 64.9531 62.2396H51.0822V35.3141H56.5729V50.4497C56.5729 51.8625 57.7222 53.012 59.135 53.012H65.0365C65.7397 53.012 66.3096 52.4421 66.3096 51.7389C66.3096 51.0356 65.7397 50.4658 65.0365 50.4658H59.135C59.1262 50.4658 59.119 50.4585 59.119 50.4497V35.3141H64.8907C65.4534 35.3141 65.9944 35.5526 66.3742 35.9683ZM61.3792 68.1635H51.0818V64.7858H62.6784C62.0483 65.8032 61.6012 66.9444 61.3792 68.1635ZM36.9369 64.7858H48.5357V68.1635H38.2361C38.0141 66.9444 37.5669 65.8032 36.9369 64.7858ZM11.8582 64.7858H20.2941C19.664 65.8032 19.2169 66.9444 18.9949 68.1635H11.8582V64.7858ZM22.5687 62.2396H11.8582V59.2811H17.3749C18.0779 59.2811 18.6479 58.7113 18.6479 58.0081C18.6479 57.3048 18.0779 56.735 17.3749 56.735H11.8582V53.0118H17.3749C18.0779 53.0118 18.6479 52.442 18.6479 51.7387C18.6479 51.0355 18.0779 50.4656 17.3749 50.4656H11.8582V35.869C11.8582 35.5629 12.107 35.3139 12.4131 35.3139H48.5357V62.2394H34.6625C32.9969 60.9251 30.897 60.1378 28.6157 60.1378C26.3343 60.1378 24.2344 60.9253 22.5687 62.2396ZM70.9998 77.1549C67.0101 77.1549 63.7644 73.9092 63.7644 69.9195C63.7644 65.9299 67.0101 62.6842 70.9998 62.6842C74.9894 62.6842 78.2351 65.9299 78.2351 69.9195C78.2351 73.9092 74.9894 77.1549 70.9998 77.1549ZM83.3672 68.1635H80.6202C80.3982 66.9444 79.9511 65.8032 79.321 64.7858H84.3629V67.168C84.3629 67.7169 83.9163 68.1635 83.3672 68.1635Z" fill="black"/>
</svg>
