<svg width="26" height="26" viewBox="0 0 26 26" fill="none" xmlns="http://www.w3.org/2000/svg">
<path d="M19.2839 9.70478V19.4547C19.2839 19.6113 19.1561 19.7383 18.9984 19.7383H7.00257C6.84495 19.7383 6.71713 19.6113 6.71713 19.4547V9.70478C6.71713 9.24912 6.75781 8.79432 6.83865 8.34577L7.3457 5.53275H18.6553L19.1623 8.34577C19.2432 8.79432 19.2839 9.24912 19.2839 9.70478Z" fill="#E49A6B"/>
<path d="M19.1622 8.34577L18.6551 5.53275H17.1317L17.6387 8.34577C17.7196 8.79432 17.7602 9.24912 17.7602 9.70478V19.4547C17.7602 19.6113 17.6325 19.7383 17.4748 19.7383H18.9982C19.1559 19.7383 19.2837 19.6113 19.2837 19.4547V9.70478C19.2837 9.24912 19.243 8.79432 19.1622 8.34577Z" fill="#E0925B"/>
<path d="M19.0001 5.53287H7.00003C6.81335 5.53287 6.66198 5.38154 6.66198 5.19482V3.33567C6.66198 3.149 6.8133 2.99762 7.00003 2.99762H19.0001C19.1868 2.99762 19.3381 3.14895 19.3381 3.33567V5.19482C19.3381 5.38154 19.1868 5.53287 19.0001 5.53287Z" fill="#E0925B"/>
<path d="M24.1207 1.80171C22.1785 -0.103704 19.0487 -0.0924309 17.1206 1.83568C15.6049 3.35135 15.2738 5.60954 16.127 7.4498C16.366 7.96508 16.3791 8.55652 16.1548 9.0783L15.6818 10.1783C15.6413 10.2725 15.7371 10.3675 15.8309 10.3264L16.9138 9.85104C17.4357 9.62196 18.0305 9.62806 18.548 9.86693C20.4186 10.7307 22.7189 10.372 24.2324 8.79098C26.1245 6.81442 26.0739 3.71794 24.1207 1.80171Z" fill="#31CD42"/>
<path d="M24.1212 1.8018C22.96 0.662576 21.3744 0.209151 19.8747 0.440256C20.8698 0.592854 21.8273 1.04592 22.5978 1.8018C24.551 3.71803 24.6016 6.81452 22.7094 8.79107C21.9213 9.61444 20.9196 10.1055 19.8764 10.2659C21.4242 10.5039 23.0634 10.0128 24.2329 8.79107C26.125 6.81452 26.0744 3.71798 24.1212 1.8018Z" fill="#088B16"/>
<path d="M20.6065 19.9273C20.6065 20.4348 20.1972 20.8462 19.6924 20.8462H14.9576C13.831 20.8462 12.7207 21.117 11.7194 21.636L6.24482 24.4737C5.79901 24.7048 5.31882 24.8622 4.82289 24.94L0.498113 25.6179C0.436516 25.6276 0.380859 25.5799 0.380859 25.5174V21.1001C0.380859 21.0487 0.419148 21.0054 0.470082 20.9991L2.9412 20.6958C3.39117 20.6406 3.82835 20.5083 4.23353 20.3046L6.0095 19.4119C6.54006 19.1452 7.01847 18.7846 7.42188 18.3475L10.3809 15.1406C10.6854 14.8107 11.1872 14.7587 11.5525 15.0192C11.9584 15.3086 12.0508 15.8756 11.758 16.2802L10.1632 18.4833C10.005 18.7019 10.1604 19.0086 10.4293 19.0086H19.6924C20.1972 19.0085 20.6065 19.4199 20.6065 19.9273Z" fill="#FFD8CA"/>
<path d="M10.2343 16.2802L8.63947 18.4834C8.48123 18.702 8.63657 19.0087 8.90551 19.0087H10.4289C10.16 19.0087 10.0047 18.702 10.1629 18.4834L11.7577 16.2802C12.0505 15.8758 11.9581 15.3087 11.5522 15.0193C11.1865 14.7585 10.6851 14.8106 10.3802 15.1411L10.2637 15.2674C10.4562 15.5697 10.4574 15.9719 10.2343 16.2802Z" fill="#FFBEAD"/>
<path d="M19.6926 19.0086H18.1692C18.674 19.0086 19.0832 19.42 19.0832 19.9274C19.0832 20.4349 18.674 20.8462 18.1692 20.8462H19.6926C20.1974 20.8462 20.6067 20.4349 20.6067 19.9274C20.6067 19.42 20.1974 19.0086 19.6926 19.0086Z" fill="#FFBEAD"/>
<path d="M10.1961 21.6359L4.72143 24.4737C4.27558 24.7048 3.79564 24.8622 3.30002 24.9399L0.380859 25.3974V25.5174C0.380859 25.5798 0.436516 25.6275 0.498113 25.6179L4.8234 24.9399C5.31903 24.8622 5.79901 24.7048 6.24482 24.4737L11.7194 21.636C12.7207 21.1169 13.831 20.8461 14.9576 20.8461H13.4342C12.3076 20.8461 11.1974 21.1169 10.1961 21.6359Z" fill="#FFBEAD"/>
<path d="M24.9066 2.12305C24.7794 1.95573 24.5404 1.92302 24.373 2.05033C24.2056 2.17764 24.173 2.41657 24.3003 2.58404C25.6702 4.38637 25.5242 6.88592 23.9531 8.52737C22.7686 9.76496 21.0104 10.2262 19.3968 9.77548C19.3908 9.77355 19.3846 9.77202 19.3784 9.77035C19.1501 9.70555 18.9247 9.62262 18.7044 9.52086C18.088 9.23628 17.3786 9.22953 16.7578 9.50202L16.2973 9.70418L16.5018 9.22846C16.7669 8.61193 16.7552 7.9051 16.4698 7.28928C15.6613 5.5454 16.0299 3.4618 17.3869 2.10467C18.8979 0.593368 21.3018 0.330067 23.1028 1.47869C23.28 1.59168 23.5155 1.53968 23.6287 1.3623C23.7417 1.18497 23.6896 0.949497 23.5123 0.836356C22.5012 0.191587 21.2832 -0.095784 20.0816 0.0282237C18.8626 0.153704 17.7144 0.699856 16.8483 1.56598C16.5293 1.88504 16.258 2.23893 16.0345 2.61664H6.99897C6.60257 2.61664 6.28006 2.939 6.28006 3.33515V5.1943C6.28006 5.55358 6.54519 5.85136 6.88984 5.90422L6.46221 8.27789C6.37766 8.74797 6.33485 9.228 6.33485 9.70474V11.1872C6.35232 11.6916 7.07915 11.6912 7.09642 11.1872V9.70474C7.09642 9.27315 7.13527 8.83841 7.21175 8.41281L7.66202 5.91336H15.3135C15.3731 6.49125 15.5262 7.06472 15.7787 7.60966C15.9732 8.02931 15.9818 8.5097 15.8021 8.92753L15.3292 10.0277C15.2486 10.2152 15.2901 10.4293 15.4349 10.573C15.5804 10.7178 15.7964 10.7562 15.9813 10.6748L17.0639 10.1994C17.4852 10.0145 17.9667 10.0192 18.3852 10.2124C18.5541 10.2904 18.7258 10.3581 18.8991 10.4174V18.6276H10.5271L12.0645 16.5033C12.2662 16.2246 12.3466 15.8839 12.2909 15.544C12.2353 15.2046 12.0508 14.9081 11.7715 14.709C11.2516 14.3381 10.5325 14.4125 10.0993 14.8821L7.1407 18.0891C7.12623 18.1048 7.11105 18.1195 7.09642 18.135V13C7.07895 12.4957 6.35212 12.496 6.33485 13V18.7551C6.33485 18.7632 6.33557 18.7712 6.33607 18.7792C6.17662 18.8866 6.01046 18.9845 5.8374 19.0716L4.06179 19.9643C3.69469 20.1489 3.3019 20.2678 2.89433 20.3178L0.423617 20.6211C0.182152 20.6507 0 20.8565 0 21.1V25.5174C0 25.6587 0.0615468 25.7924 0.168898 25.8842C0.276097 25.9762 0.418945 26.0161 0.557019 25.9942L4.88109 25.3163C5.41851 25.232 5.93597 25.0622 6.419 24.8118L8.57964 23.6916C8.76636 23.5948 8.83923 23.3649 8.74244 23.1783C8.64565 22.9915 8.41572 22.9186 8.22915 23.0154L6.06851 24.1356C5.65845 24.3482 5.21924 24.4922 4.76307 24.5638L0.761515 25.1911V21.347L2.987 21.0738C3.48161 21.0132 3.95829 20.8688 4.4038 20.6449L6.17941 19.7522C6.75273 19.4639 7.26446 19.0781 7.70041 18.6057L10.659 15.3987C10.8328 15.2105 11.1209 15.1806 11.3294 15.3292C11.4423 15.4097 11.5168 15.5297 11.5393 15.6673C11.562 15.8054 11.5294 15.9437 11.4476 16.0568L9.85308 18.2599C9.6953 18.4779 9.67331 18.7622 9.7957 19.002C9.91767 19.2409 10.1597 19.3894 10.4275 19.3894H19.6891C20.3965 19.4189 20.396 20.436 19.6891 20.4653H14.9551C13.773 20.4653 12.5929 20.7532 11.5423 21.2979L9.80463 22.1987C9.61791 22.2955 9.54504 22.5254 9.64178 22.7121C9.73862 22.8988 9.9684 22.9718 10.1551 22.8749L11.8928 21.9741C12.8356 21.4854 13.8945 21.227 14.9552 21.227H19.6891C21.4071 21.1555 21.4058 18.6985 19.6891 18.6277H19.6608V10.6169C21.4068 10.9389 23.2365 10.3778 24.5034 9.05408C26.3349 7.14044 26.5045 4.22549 24.9066 2.12305ZM7.04168 5.15169V3.37841H15.6619C15.4386 3.94442 15.3127 4.5446 15.2891 5.15169H7.04168Z" fill="black"/>
<path d="M22.8866 3.68062L19.8219 6.4322L18.4036 5.0475C18.2531 4.90049 18.012 4.90354 17.8651 5.054C17.7182 5.20457 17.7211 5.44568 17.8716 5.59264L19.5449 7.22637C19.6887 7.36658 19.9162 7.37115 20.0653 7.23724L23.3953 4.24749C23.5518 4.10698 23.5647 3.86618 23.4243 3.70967C23.2838 3.55306 23.0431 3.54001 22.8866 3.68062Z" fill="black"/>
</svg>
