<svg width="28" height="21" viewBox="0 0 28 21" fill="none" xmlns="http://www.w3.org/2000/svg">
<path d="M16.942 3.1359V14.3083H0.887077V3.1359C0.887077 1.81474 1.94975 0.780792 3.24218 0.780792H14.5582C15.8793 0.780792 16.942 1.84346 16.942 3.1359Z" fill="#31CD42"/>
<path d="M26.7354 11.3786V16.2612C26.7354 17.3813 25.845 18.2716 24.7249 18.2716H22.3985C22.3985 17.0654 21.422 16.1176 20.2157 16.1176C19.0095 16.1176 18.0617 17.0941 18.0617 18.2716H9.58906C9.58906 17.0654 8.61256 16.1176 7.43501 16.1176C6.25745 16.1176 5.28095 17.0941 5.28095 18.2716H2.89712C1.77701 18.2716 0.886669 17.3813 0.886669 16.2612V14.3369H16.9416V4.02612H21.8241C22.5709 4.02612 23.2314 4.42821 23.6048 5.08879L26.5056 10.4021C26.6492 10.7181 26.7354 11.034 26.7354 11.3786Z" fill="#FFD782"/>
<path d="M22.3695 18.2717C22.3695 19.478 21.3929 20.4258 20.2154 20.4258C19.0378 20.4258 18.0613 19.4493 18.0613 18.2717C18.0613 17.0942 19.0378 16.1176 20.2154 16.1176C21.4217 16.1176 22.3695 17.0654 22.3695 18.2717Z" fill="#31CD42"/>
<path d="M9.58893 18.2717C9.58893 19.478 8.61242 20.4258 7.43487 20.4258C6.25732 20.4258 5.28081 19.4493 5.28081 18.2717C5.28081 17.0654 6.25732 16.1176 7.43487 16.1176C8.61242 16.1176 9.56021 17.0654 9.58893 18.2717Z" fill="#31CD42"/>
<path d="M20.732 11.1488H26.7346C26.7059 10.8903 26.6197 10.6319 26.5049 10.4021L24.3508 6.49606H20.732C20.3012 6.49606 19.9565 6.84071 19.9565 7.27152V10.3734C19.9565 10.8042 20.3012 11.1488 20.732 11.1488Z" fill="#31CD42"/>
<path d="M3.55801 3.71066H14.2709V10.6036C14.2709 11.0345 13.9262 11.3791 13.4954 11.3791H4.33347C3.90266 11.3791 3.55801 11.0345 3.55801 10.6036V3.71066Z" fill="#F4F4E6"/>
<path d="M4.90777 6.03705C5.65451 6.03705 6.25765 5.43391 6.25765 4.68717V3.71066H3.58661V4.68717C3.55789 5.43391 4.16103 6.03705 4.90777 6.03705Z" fill="#E9686A"/>
<path d="M7.57816 6.03705C8.3249 6.03705 8.92803 5.43391 8.92803 4.68717V3.71066H6.257V4.68717C6.22828 5.43391 6.83142 6.03705 7.57816 6.03705Z" fill="#FDBD40"/>
<path d="M10.2495 6.03705C10.9962 6.03705 11.5994 5.43391 11.5994 4.68717V3.71066H8.92834V4.68717C8.89962 5.43391 9.50275 6.03705 10.2495 6.03705Z" fill="#E9686A"/>
<path d="M12.9208 6.03705C13.6675 6.03705 14.2707 5.43391 14.2707 4.68717V3.71066H11.5996V4.68717C11.5996 5.43391 12.1741 6.03705 12.9208 6.03705Z" fill="#FDBD40"/>
<path d="M20.791 18.2716C20.791 18.5875 20.5325 18.846 20.2166 18.846C19.9006 18.846 19.6422 18.5875 19.6422 18.2716C19.6422 17.9557 19.9006 17.6972 20.2166 17.6972C20.5325 17.6972 20.791 17.9557 20.791 18.2716ZM7.40711 17.6972C7.09118 17.6972 6.83269 17.9557 6.83269 18.2716C6.83269 18.5875 7.09118 18.846 7.40711 18.846C7.72304 18.846 7.98152 18.5875 7.98152 18.2716C7.98152 17.9557 7.72304 17.6972 7.40711 17.6972ZM27.2532 11.3786V16.2611C27.2532 17.6397 26.1331 18.7886 24.7257 18.7886H22.8302C22.744 19.2194 22.5717 19.6215 22.2845 19.9661H26.7362C27.0234 19.9661 27.2532 20.1959 27.2532 20.4831C27.2532 20.7703 27.0234 21.0001 26.7362 21.0001H0.887491C0.600284 21.0001 0.370518 20.7703 0.370518 20.4831C0.370518 20.1959 0.600284 19.9661 0.887491 19.9661H5.33921C5.08072 19.6215 4.87968 19.2194 4.79352 18.7886H2.89795C1.49063 18.7886 0.370518 17.6685 0.370518 16.2611V12.7285C0.370518 12.4413 0.600284 12.2115 0.887491 12.2115C1.1747 12.2115 1.40447 12.4413 1.40447 12.7285V13.8486H16.4541V3.13575C16.4541 2.1018 15.6212 1.2689 14.5873 1.2689H3.24259C2.20865 1.2689 1.37574 2.1018 1.37574 3.13575V6.40992C1.37574 6.69712 1.14598 6.92689 0.858771 6.92689C0.571563 6.92689 0.341797 6.69712 0.341797 6.40992V3.13575C0.341797 1.55611 1.63423 0.263672 3.21387 0.263672H14.5299C16.1095 0.263672 17.4019 1.55611 17.4019 3.13575V3.53784H21.7675C22.6866 3.53784 23.5482 4.05481 23.979 4.85899L26.8798 10.1723C27.1383 10.5457 27.2244 10.9765 27.2532 11.3786ZM24.0364 6.98433H20.7335C20.5899 6.98433 20.4463 7.09922 20.4463 7.27154V10.3734C20.4463 10.517 20.5612 10.6606 20.7335 10.6606H26.0469C25.8458 10.2585 26.7936 12.0105 24.0364 6.98433ZM7.40711 19.9374C8.32617 19.9374 9.07291 19.1907 9.07291 18.2716C9.07291 17.3525 8.32617 16.6058 7.40711 16.6058C6.48804 16.6058 5.7413 17.3525 5.7413 18.2716C5.7413 19.1907 6.48804 19.9374 7.40711 19.9374ZM10.0207 18.7598C9.93453 19.1907 9.76221 19.5927 9.475 19.9374H18.12C17.8615 19.5927 17.6604 19.1907 17.5743 18.7598H10.0207ZM20.2166 19.9374C21.1356 19.9374 21.8824 19.1907 21.8824 18.2716C21.8824 17.3525 21.1356 16.6058 20.2166 16.6058C19.2975 16.6058 18.5508 17.3525 18.5508 18.2716C18.5508 19.1907 19.2975 19.9374 20.2166 19.9374ZM26.2479 16.2611V15.9739H25.3001C25.0129 15.9739 24.7832 15.7442 24.7832 15.457C24.7832 15.1698 25.0129 14.94 25.3001 14.94H26.2479V11.6658H20.7335C20.0155 11.6658 19.4411 11.0914 19.4411 10.3734V7.27154C19.4411 6.55352 20.0155 5.97911 20.7335 5.97911H23.4907L23.1461 5.31853C22.8876 4.83028 22.3706 4.51435 21.8249 4.54307H17.4307V14.3369C17.4307 14.6241 17.2009 14.8538 16.9137 14.8538H1.40447V16.2611C1.40447 17.094 2.09376 17.7833 2.92667 17.7833H4.79352C5.08072 16.3473 6.45932 15.3995 7.92408 15.658C8.98675 15.859 9.84837 16.692 10.0494 17.7833H17.603C17.8902 16.3473 19.2688 15.3995 20.7335 15.658C21.7962 15.859 22.6578 16.692 22.8589 17.7833H24.7545C25.5586 17.7546 26.2192 17.094 26.2479 16.2611ZM20.5899 12.4987H19.8719C19.5847 12.4987 19.3549 12.7285 19.3549 13.0157C19.3549 13.3029 19.5847 13.5327 19.8719 13.5327H20.5899C20.8771 13.5327 21.1069 13.3029 21.1069 13.0157C21.1069 12.7285 20.8484 12.4987 20.5899 12.4987ZM4.36271 11.8956C3.64469 11.8956 3.07027 11.3212 3.07027 10.6031V3.71016C3.07027 3.42296 3.30004 3.22191 3.55852 3.19319H14.2714C14.5586 3.19319 14.7596 3.42296 14.7883 3.68144V10.5744C14.7883 11.2924 14.2139 11.8669 13.4959 11.8669L4.36271 11.8956ZM13.7544 4.22714H12.0886V4.71539C12.0886 5.17492 12.462 5.54829 12.9215 5.54829C13.381 5.54829 13.7544 5.17492 13.7544 4.71539V4.22714ZM11.0834 4.22714H9.41756V4.71539C9.41756 5.17492 9.76221 5.54829 10.2505 5.57701C10.71 5.57701 11.1121 5.20364 11.1121 4.71539V4.22714H11.0834ZM8.41233 4.22714H6.74653V4.71539C6.74653 5.17492 7.09118 5.54829 7.57943 5.57701C8.03896 5.57701 8.44105 5.20364 8.44105 4.71539L8.41233 4.22714ZM4.0755 4.68667C4.0755 5.1462 4.44887 5.51957 4.9084 5.51957C5.36793 5.51957 5.7413 5.1462 5.7413 4.68667V4.19842H4.0755V4.68667ZM4.33398 10.8904H13.4672C13.6108 10.8904 13.7544 10.7755 13.7544 10.6031V6.32375C13.0364 6.69712 12.146 6.55352 11.5716 5.95038C10.8536 6.72584 9.61861 6.72584 8.90059 5.95038C8.18257 6.72584 6.94757 6.72584 6.22955 5.95038C5.68386 6.55352 4.79352 6.69712 4.04678 6.32375V10.6031C4.0755 10.7755 4.19038 10.8904 4.33398 10.8904ZM0.887491 10.1436C1.1747 10.1436 1.37574 9.91385 1.40447 9.65536V9.31071C1.40447 9.02351 1.1747 8.79374 0.887491 8.79374C0.600284 8.79374 0.370518 9.02351 0.370518 9.31071V9.65536C0.370518 9.94257 0.600284 10.1436 0.887491 10.1436Z" fill="#593116"/>
</svg>
