<svg width="24" height="27" viewBox="0 0 24 27" fill="none" xmlns="http://www.w3.org/2000/svg">
<path d="M16.7589 24.7631V26.0548C16.7589 26.3488 16.5205 26.5873 16.2265 26.5873H7.12162C6.8276 26.5873 6.58917 26.3488 6.58917 26.0548V24.7631C6.73825 24.7727 6.88841 24.778 7.03962 24.778H16.3085C16.4597 24.778 16.6099 24.7727 16.7589 24.7631Z" fill="#878787"/>
<path d="M17.3156 5.23614C17.403 6.02906 18.1346 6.39304 19.0364 6.08753C19.7074 6.71922 20.6203 6.84627 21.1022 6.36429C21.5842 5.88232 21.4572 4.96949 20.8255 4.2985C21.1331 3.39025 20.7609 2.66441 19.9741 2.57762C20.0885 2.02771 19.9949 1.52369 19.6651 1.19379C18.9992 0.5278 17.6235 0.823629 16.5926 1.85456C15.5617 2.88548 15.2658 4.26112 15.9318 4.92711C16.2616 5.25712 16.7656 5.35072 17.3156 5.23614Z" fill="#13BF6D"/>
<path d="M6.52932 11.218C7.37805 11.1244 7.76769 10.3414 7.44066 9.37606C8.11687 8.65779 8.25286 7.68074 7.73692 7.1649C7.22097 6.64896 6.24404 6.78495 5.52576 7.46116C4.55362 7.13179 3.77667 7.53017 3.68381 8.3725C3.09513 8.24993 2.55566 8.35014 2.20254 8.70315C1.48969 9.41599 1.80629 10.8884 2.90984 11.992C4.01339 13.0955 5.48583 13.4121 6.19867 12.6993C6.55168 12.3462 6.65189 11.8067 6.52932 11.218Z" fill="#13BF6D"/>
<path d="M5.41884 3.47873C6.0072 4.06709 6.96103 4.06709 7.54939 3.47873L5.41884 1.34819C4.83049 1.93655 4.83049 2.89038 5.41884 3.47873Z" fill="#FC5D3D"/>
<path d="M10.8503 9.4228C11.1959 9.34112 11.4098 8.99475 11.3281 8.64917C11.2464 8.30359 10.9001 8.08966 10.5545 8.17135C10.2089 8.25304 9.99498 8.59941 10.0767 8.94499C10.1584 9.29057 10.5047 9.50449 10.8503 9.4228Z" fill="#13BF6D"/>
<path d="M14.7095 7.91801C15.0551 7.83632 15.269 7.48995 15.1873 7.14437C15.1056 6.79879 14.7592 6.58487 14.4137 6.66656C14.0681 6.74825 13.8542 7.09462 13.9358 7.4402C14.0175 7.78578 14.3639 7.9997 14.7095 7.91801Z" fill="#FC5D3D"/>
<path d="M10.1331 0.779136C9.38968 1.52254 9.52279 2.8625 10.0977 3.43744C10.554 3.89375 11.1755 3.75233 11.7844 3.30156C12.0929 3.07463 12.4284 2.73929 12.6555 2.43047C13.1063 1.82157 13.2478 1.2002 12.7914 0.743782C12.2163 0.168843 10.8765 0.035731 10.1331 0.779136Z" fill="#F0AB20"/>
<path d="M13.6967 4.34305C13.3749 4.66486 12.8444 4.63505 12.5607 4.27788L11.7839 3.30137C12.0924 3.07444 12.4279 2.7391 12.655 2.43028L13.6315 3.20702C13.9887 3.49071 14.0185 4.02124 13.6967 4.34305Z" fill="#F2E1D6"/>
<path d="M19.9669 7.81616C21.176 9.02525 21.1746 10.9851 19.9669 12.1928C18.7579 13.4019 16.7994 13.4019 15.5903 12.1928L16.5029 11.2802L19.0543 8.72878L19.9669 7.81616Z" fill="white"/>
<path d="M19.0549 8.72876C19.7598 9.43362 19.7589 10.5761 19.0549 11.2801C18.3501 11.985 17.2084 11.985 16.5035 11.2801L19.0549 8.72876Z" fill="#F0C020"/>
<path d="M19.0549 8.72876C19.7598 9.43362 19.7589 10.5761 19.0549 11.2801C18.3501 11.985 17.2084 11.985 16.5035 11.2801L19.0549 8.72876Z" fill="#F0C020"/>
<path d="M21.9719 17.9819H1.73879C1.73879 16.5326 2.67484 15.1344 4.36377 15.1344C5.30833 15.1344 6.13363 15.6338 6.59579 16.3824C7.02175 15.6977 7.83107 15.3346 8.64998 15.5145C8.29111 14.0599 9.39754 12.6989 10.8522 12.6989C11.9586 12.6989 12.8787 13.4912 13.08 14.538C14.1108 14.0386 15.3322 14.5391 15.7284 15.5997C16.3811 14.8277 17.6249 15.0524 17.9668 16.0044C19.5641 14.7169 21.9719 15.9085 21.9719 17.9819Z" fill="#F2E1D6"/>
<path d="M22.5471 17.9819H21.9721H1.73899H0.799751C0.488801 17.9819 0.241744 18.2481 0.268367 18.558C0.54737 21.8944 3.23624 24.5438 6.58854 24.7632C6.73762 24.7728 6.88777 24.7781 7.03899 24.7781H16.3079C16.4591 24.7781 16.6092 24.7728 16.7583 24.7632C20.1009 24.5451 22.7975 21.9037 23.0785 18.5591C23.1051 18.2492 22.8591 17.9819 22.5471 17.9819Z" fill="#0DAC1F"/>
<path d="M16.308 23.7665H8.77946C8.6324 23.7665 8.51324 23.6473 8.51324 23.5003C8.51324 23.3532 8.6324 23.2341 8.77946 23.2341H16.308C18.751 23.2341 20.852 21.5745 21.4172 19.1983C21.4512 19.0554 21.5949 18.9666 21.7379 19.0009C21.881 19.0348 21.9694 19.1784 21.9353 19.3215C21.3127 21.9386 18.9985 23.7665 16.308 23.7665ZM7.71457 23.7665H7.03899C6.89193 23.7665 6.77277 23.6473 6.77277 23.5003C6.77277 23.3532 6.89193 23.2341 7.03899 23.2341H7.71446C7.86152 23.2341 7.98068 23.3532 7.98068 23.5003C7.98068 23.6473 7.86163 23.7665 7.71457 23.7665Z" fill="#C5E5FF"/>
<path d="M21.1244 4.23347C21.3715 3.3216 20.9984 2.58661 20.2766 2.3683C20.3329 1.8153 20.1867 1.33812 19.8542 1.00555C19.0724 0.223919 17.5573 0.514103 16.4051 1.66643C15.2528 2.81865 14.9625 4.33368 15.7443 5.11542C16.0768 5.44799 16.5542 5.59399 17.107 5.53787C17.3262 6.26338 18.0643 6.63162 18.9723 6.38553C19.7409 7.02766 20.7359 7.10816 21.2913 6.5525C21.8468 5.99705 21.7665 5.00233 21.1244 4.23347ZM20.9148 6.17606C20.5418 6.5492 19.7815 6.42248 19.2198 5.89365C19.1476 5.82581 19.0445 5.80388 18.9519 5.8354C18.2916 6.05913 17.656 5.88822 17.5811 5.207C17.5635 5.04918 17.4137 4.94355 17.2621 4.9756C16.7797 5.07591 16.3739 4.99221 16.1208 4.73898C15.6077 4.22591 15.8344 3.12225 16.6005 2.23839L17.1091 2.74698L17.0713 4.35572C17.0678 4.50481 17.1875 4.62823 17.3375 4.62823C17.4817 4.62823 17.6002 4.51311 17.6035 4.36829L17.6294 3.2674L18.7951 4.43282L18.7822 5.30487C18.7799 5.45331 18.8997 5.57503 19.0485 5.57503C19.1936 5.57503 19.3125 5.45843 19.3146 5.31275L19.3199 4.9575L20.188 5.8256C20.2921 5.92964 20.4605 5.92964 20.5645 5.8256C20.6685 5.72167 20.6685 5.55309 20.5645 5.44916L19.6963 4.58095L20.1018 4.57488C20.2488 4.57264 20.3662 4.45178 20.3641 4.30471C20.3617 4.15041 20.23 4.03721 20.0939 4.04254L19.1716 4.05627L18.0061 2.89074L19.1328 2.86423C19.2799 2.86071 19.3963 2.73878 19.3927 2.59183C19.3894 2.44487 19.2679 2.33007 19.1203 2.33188L17.4855 2.37033L16.9769 1.86173C17.8608 1.09564 18.9646 0.868821 19.4776 1.382C19.7308 1.63512 19.8147 2.04042 19.7143 2.52335C19.6821 2.67776 19.7903 2.82515 19.9457 2.84229C20.6019 2.9147 20.8091 3.51967 20.5741 4.21313C20.5425 4.30631 20.5649 4.40939 20.6324 4.48106C21.1612 5.04269 21.2879 5.80303 20.9148 6.17606Z" fill="black"/>
<path d="M6.38692 12.8875C6.74185 12.5327 6.89605 12.0215 6.83205 11.4287C7.6156 11.2006 8.00503 10.4085 7.73913 9.44117C8.42599 8.62471 8.5147 7.5661 7.92527 6.97668C7.33585 6.38726 6.27734 6.47585 5.46067 7.16282C4.48576 6.89457 3.69955 7.29327 3.47315 8.0699C2.88053 8.00601 2.36906 8.1602 2.01434 8.51503C1.185 9.34437 1.49563 10.9544 2.72165 12.1803C3.94724 13.4058 5.55737 13.7171 6.38692 12.8875ZM2.39089 8.89136C2.70823 8.57392 3.19202 8.54186 3.62958 8.63312C3.78335 8.66497 3.93127 8.55773 3.94852 8.40162C4.02977 7.6646 4.71525 7.46749 5.44044 7.71327C5.53373 7.74479 5.6367 7.72232 5.70837 7.65502C6.31696 7.08221 7.14247 6.94686 7.54883 7.35312C7.9552 7.75948 7.81974 8.5851 7.24693 9.19358C7.17953 9.26525 7.15706 9.36833 7.18868 9.46151C7.43159 10.1786 7.2431 10.8714 6.50033 10.9534C6.34422 10.9707 6.23688 11.1187 6.26883 11.2724C6.37776 11.7957 6.28608 12.2356 6.01059 12.5111C5.45162 13.07 4.24893 12.8226 3.29286 11.9856L3.85747 11.421C3.86386 11.4211 5.5874 11.4618 5.59379 11.4618C5.73797 11.4618 5.85639 11.3467 5.8599 11.2019C5.86331 11.0549 5.74692 10.933 5.59996 10.9295L4.37789 10.9007L5.66205 9.61656C5.663 9.61656 6.60661 9.63061 6.60746 9.63061C6.75261 9.63061 6.87145 9.51401 6.87358 9.36833C6.87582 9.22137 6.75836 9.1004 6.6114 9.09817L6.18683 9.09188L7.14747 8.13124C7.25151 8.0273 7.25151 7.85873 7.14747 7.7548C7.04354 7.65076 6.87486 7.65076 6.77103 7.7548L5.81039 8.71544L5.80325 8.23709C5.80112 8.09141 5.68239 7.9748 5.53713 7.9748C5.53575 7.9748 5.53447 7.9748 5.53309 7.9748C5.38602 7.97704 5.26867 8.09791 5.27091 8.24497L5.28571 9.24012L4.00134 10.5241L3.97195 9.2743C3.96843 9.12734 3.84533 9.01223 3.69955 9.01436C3.55259 9.01787 3.4362 9.1398 3.4396 9.28676L3.48092 11.0445L2.91631 11.6091C2.07941 10.6531 1.83193 9.45033 2.39089 8.89136Z" fill="black"/>
<path d="M5.23083 1.1597C4.53801 1.85242 4.53791 2.97386 5.23083 3.66668C5.92195 4.3578 7.04649 4.35791 7.73782 3.66668C7.84196 3.56243 7.84165 3.39386 7.73782 3.29013L5.60728 1.15981C5.50334 1.05577 5.33466 1.05587 5.23083 1.1597ZM5.60728 3.29035C5.18196 2.86492 5.13531 2.21757 5.43913 1.74465L7.15266 3.45818C6.67292 3.76519 6.02621 3.70917 5.60728 3.29035Z" fill="black"/>
<path d="M9.79315 8.80258C9.79315 9.30393 10.2011 9.7119 10.7025 9.7119C11.2038 9.7119 11.6118 9.30393 11.6118 8.80258C11.6118 8.30123 11.2038 7.89326 10.7025 7.89326C10.2011 7.89326 9.79315 8.30123 9.79315 8.80258ZM11.0792 8.80258C11.0792 9.01034 10.9102 9.17945 10.7024 9.17945C10.4945 9.17945 10.3255 9.01045 10.3255 8.80258C10.3255 8.59471 10.4945 8.42571 10.7024 8.42571C10.9102 8.42571 11.0792 8.59482 11.0792 8.80258Z" fill="black"/>
<path d="M15.4733 7.29808C15.4733 6.79673 15.0653 6.38876 14.5639 6.38876C14.0626 6.38876 13.6547 6.79673 13.6547 7.29808C13.6547 7.79943 14.0626 8.2074 14.5639 8.2074C15.0653 8.2074 15.4733 7.79943 15.4733 7.29808ZM14.1872 7.29808C14.1872 7.09032 14.3562 6.92121 14.5639 6.92121C14.7717 6.92121 14.9408 7.09021 14.9408 7.29808C14.9408 7.50595 14.7717 7.67495 14.5639 7.67495C14.3562 7.67495 14.1872 7.50584 14.1872 7.29808Z" fill="black"/>
<path d="M12.3524 4.44366C12.7347 4.925 13.4507 4.96599 13.8852 4.53162C14.3195 4.09725 14.2781 3.38079 13.7976 2.99902L13.0146 2.37627C13.6103 1.42926 13.2584 0.83483 12.9794 0.555721C12.3051 -0.118679 10.7973 -0.261695 9.94465 0.591075C9.09433 1.4414 9.23 2.94652 9.9093 3.62582C10.4324 4.14911 11.1056 4.05253 11.7293 3.66043L12.3524 4.44366ZM13.5087 4.15508C13.2994 4.36411 12.955 4.34622 12.7692 4.11237L12.1583 3.34416C12.3395 3.18964 12.5354 2.99519 12.6977 2.80457L13.4662 3.41582C13.6994 3.60112 13.7181 3.9455 13.5087 4.15508ZM10.2857 3.24927C9.79067 2.7542 9.70803 1.58058 10.3211 0.96741C10.9312 0.357437 12.1014 0.430702 12.6029 0.932056C12.9194 1.24876 12.8651 1.69953 12.4408 2.27266C12.2308 2.55815 11.911 2.87773 11.6258 3.08752C11.0533 3.51145 10.6024 3.56587 10.2857 3.24927Z" fill="black"/>
<path d="M10.9186 2.0835L10.8223 2.06412C10.6777 2.03526 10.5378 2.12855 10.5088 2.27263C10.4799 2.41682 10.5732 2.55706 10.7173 2.58613L10.8136 2.60552C10.9591 2.63448 11.0983 2.54002 11.1271 2.39701C11.1561 2.25293 11.0627 2.11257 10.9186 2.0835Z" fill="black"/>
<path d="M11.7501 1.77371C11.8943 1.74475 11.9876 1.6044 11.9586 1.46021L11.9392 1.36394C11.9103 1.21975 11.7706 1.12658 11.6257 1.15543C11.4815 1.1844 11.3883 1.32475 11.4172 1.46894L11.4366 1.56521C11.4655 1.70844 11.6048 1.80268 11.7501 1.77371Z" fill="black"/>
<path d="M14.0036 10.7512L14.2138 10.541C14.3179 10.4371 14.3179 10.2685 14.2138 10.1646C14.1098 10.0605 13.9413 10.0605 13.8374 10.1646L13.6272 10.3748C13.5231 10.4787 13.5231 10.6473 13.6272 10.7512C13.7311 10.8552 13.8996 10.8552 14.0036 10.7512Z" fill="black"/>
<path d="M3.60594 5.42395L3.81615 5.63416C3.92008 5.73821 4.08876 5.73821 4.19259 5.63416C4.29663 5.53023 4.29663 5.36166 4.19259 5.25772L3.98238 5.04751C3.87844 4.94347 3.70976 4.94347 3.60594 5.04751C3.502 5.15145 3.502 5.32002 3.60594 5.42395Z" fill="black"/>
<path d="M21.1298 10.2557C21.1953 9.217 20.8299 8.30204 20.1544 7.62754C20.0544 7.52743 19.8797 7.52743 19.7785 7.62754L15.4018 12.0043C15.298 12.1081 15.2979 12.2775 15.4018 12.3812C16.6519 13.6314 18.7614 13.7779 20.2076 12.3269C20.3099 12.2204 20.3056 12.0511 20.1991 11.95C20.0969 11.852 19.9213 11.8562 19.8233 11.9585C18.8273 13.0202 17.1248 13.1387 15.9757 12.1842L16.5165 11.6434C17.3418 12.2794 18.5089 12.2017 19.2423 11.4684C19.985 10.7259 20.0489 9.55883 19.4171 8.74206L19.9575 8.20151C20.408 8.74365 20.6545 9.46267 20.5986 10.2152C20.5877 10.3614 20.6964 10.4896 20.8447 10.5006C20.9935 10.5113 21.1192 10.4005 21.1298 10.2557ZM19.0379 9.12137C19.4553 9.71442 19.4078 10.5499 18.8658 11.0918C18.3304 11.6272 17.4956 11.6845 16.8957 11.2639C18.7448 9.41433 18.3033 9.85594 19.0379 9.12137Z" fill="black"/>
<path d="M20.7143 11.0203C20.5835 10.9617 20.4204 11.0245 20.3629 11.1544C20.3022 11.2939 20.3666 11.448 20.4971 11.5059C20.6295 11.5659 20.7895 11.5068 20.8497 11.3717C20.9055 11.2455 20.856 11.0829 20.7143 11.0203Z" fill="black"/>
<path d="M0.605181 20.8962C0.66375 21.0251 0.82668 21.0879 0.957662 21.0283C1.09077 20.9676 1.15041 20.81 1.08971 20.6758C0.557473 19.5022 0.567696 18.6387 0.532768 18.5322C0.532768 18.3531 0.660981 18.2488 0.800057 18.2478H22.5474C22.7253 18.2491 22.8351 18.4173 22.8136 18.5375C22.5314 21.8896 19.7207 24.5116 16.3082 24.5116H7.03929C5.17817 24.5116 3.44825 23.7356 2.21105 22.3775C2.11627 22.2732 1.9395 22.2657 1.83514 22.3605C1.72652 22.4595 1.71906 22.6278 1.81703 22.7364C1.8181 22.7364 1.8181 22.7374 1.8181 22.7374C2.95051 23.9798 4.52486 24.8255 6.32272 25.0067V26.0551C6.32272 26.4956 6.68096 26.8538 7.1214 26.8538H16.2263C16.6667 26.8538 17.025 26.4956 17.025 26.0551V25.0072C20.396 24.6657 23.0611 21.9631 23.3439 18.5823C23.3852 18.1191 23.016 17.7167 22.5474 17.7155H22.2262C22.0398 15.692 19.7545 14.549 18.0684 15.6059C17.5954 14.8476 16.5562 14.6289 15.8141 15.1608C15.3006 14.2871 14.2394 13.8689 13.2626 14.18C12.9328 13.1736 11.9906 12.4348 10.8527 12.4325C10.5811 12.4325 10.3139 12.4751 10.0583 12.5593C9.91878 12.6061 9.84317 12.7563 9.88896 12.8958C9.93369 13.0321 10.087 13.1109 10.2244 13.0651C10.4267 12.9991 10.6376 12.965 10.8538 12.965C11.8111 12.965 12.6385 13.6476 12.8196 14.589C12.8513 14.7593 13.0401 14.8545 13.1965 14.7774C14.1162 14.3347 15.1505 14.8117 15.4797 15.6933C15.551 15.8846 15.8008 15.9265 15.9323 15.7721C16.4578 15.1523 17.4452 15.3406 17.717 16.0947C17.7757 16.2604 17.9858 16.3299 18.1345 16.2119C19.496 15.1173 21.4994 16.0388 21.6896 17.7155H2.01777C2.12873 16.4518 2.97575 15.4046 4.36427 15.4004C5.18531 15.4004 5.935 15.82 6.36947 16.5228C6.4732 16.6898 6.71748 16.6911 6.82206 16.5228C7.20212 15.9138 7.90474 15.6217 8.59298 15.7753C8.78243 15.8164 8.95611 15.6461 8.90926 15.4515C8.82055 15.0946 8.82619 14.7192 8.94546 14.3494C8.9921 14.2072 8.91224 14.0576 8.77508 14.0139C8.63771 13.9681 8.48436 14.048 8.43964 14.1843C8.33016 14.5197 8.29587 14.8573 8.32782 15.2045C7.62882 15.1806 7.01959 15.4668 6.60269 15.9329C6.05107 15.2567 5.23536 14.868 4.36427 14.868H4.35682C2.70921 14.868 1.5982 16.1333 1.48319 17.7155H0.800057C0.326816 17.7166 -0.0400409 18.1262 0.00351342 18.5834C0.00351342 18.5833 0.0511143 19.6724 0.605181 20.8962ZM16.4925 26.055C16.4925 26.2018 16.3731 26.3213 16.2263 26.3213H7.1214C6.97466 26.3213 6.85517 26.2018 6.85517 26.055V25.042C6.91747 25.0437 6.97902 25.0444 7.0394 25.0444H16.3083C16.3687 25.0444 16.4302 25.0436 16.4925 25.042V26.055Z" fill="black"/>
<path d="M1.21582 21.4946C1.0924 21.5762 1.05833 21.7402 1.14022 21.8641C1.22125 21.9872 1.38727 22.0196 1.50867 21.9397C1.63113 21.8588 1.66521 21.6937 1.58428 21.5713C1.50654 21.452 1.33509 21.4169 1.21582 21.4946Z" fill="black"/>
<path d="M9.43147 13.1788C9.3303 13.0776 9.1546 13.0787 9.0545 13.1788C8.9512 13.2832 8.9512 13.4525 9.05556 13.5558C9.15737 13.6576 9.32551 13.6617 9.43253 13.5547C9.53583 13.4514 9.53476 13.2821 9.43147 13.1788Z" fill="black"/>
<path d="M10.9688 14.8912V14.6779C10.9688 14.5308 10.8496 14.4116 10.7026 14.4116C10.5555 14.4116 10.4363 14.5308 10.4363 14.6779V14.8912C10.4363 15.0382 10.5555 15.1574 10.7026 15.1574C10.8496 15.1574 10.9688 15.0382 10.9688 14.8912Z" fill="black"/>
<path d="M14.0789 15.9128C14.183 15.8089 14.183 15.6403 14.0789 15.5364L13.928 15.3855C13.824 15.2814 13.6555 15.2814 13.5516 15.3855C13.4475 15.4894 13.4475 15.658 13.5516 15.7619L13.7025 15.9128C13.8064 16.0168 13.9749 16.0168 14.0789 15.9128Z" fill="black"/>
<path d="M9.73286 16.4432L9.88375 16.2923C9.98769 16.1883 9.98769 16.0197 9.88375 15.9158C9.77971 15.8118 9.61125 15.8118 9.50721 15.9158L9.35631 16.0667C9.25237 16.1707 9.25237 16.3393 9.35631 16.4432C9.46046 16.5472 9.62892 16.5472 9.73286 16.4432Z" fill="black"/>
<path d="M4.10153 16.043C3.9976 16.147 3.9976 16.3156 4.10153 16.4195L4.25243 16.5704C4.35647 16.6744 4.52494 16.6744 4.62898 16.5704C4.73291 16.4664 4.73291 16.2978 4.62898 16.1939L4.47808 16.043C4.37404 15.939 4.20547 15.939 4.10153 16.043Z" fill="black"/>
<path d="M15.0032 16.5702L15.1541 16.4193C15.2581 16.3153 15.2582 16.1468 15.1542 16.0427C15.0502 15.9387 14.8816 15.9388 14.7777 16.0427L14.6268 16.1936C14.5227 16.2975 14.5227 16.4661 14.6267 16.5702C14.7306 16.6741 14.8992 16.6741 15.0032 16.5702Z" fill="black"/>
<path d="M19.9964 17.0432L20.1473 16.8923C20.2513 16.7884 20.2513 16.6198 20.1473 16.5159C20.0432 16.4118 19.8748 16.4118 19.7708 16.5159L19.6199 16.6667C19.5159 16.7707 19.5159 16.9393 19.6199 17.0432C19.724 17.1472 19.8924 17.1472 19.9964 17.0432Z" fill="black"/>
</svg>
