<svg width="11" height="11" viewBox="0 0 11 11" fill="none" xmlns="http://www.w3.org/2000/svg">
<g clip-path="url(#clip0_1_398)">
<path d="M10.989 7.76597C10.9632 8.35044 10.8687 8.75226 10.7333 9.10044C10.5936 9.47003 10.3787 9.80092 10.0972 10.076C9.82214 10.3553 9.48907 10.5724 9.12376 10.7099C8.77357 10.8453 8.37385 10.9398 7.78937 10.9656C7.20054 10.9935 7.0136 11 5.52015 11C4.02669 11 3.83976 10.9935 3.2531 10.9678C2.66863 10.942 2.26681 10.8474 1.91871 10.7121C1.54904 10.5724 1.21815 10.3575 0.943082 10.076C0.66373 9.80092 0.446746 9.46785 0.309169 9.10254C0.173774 8.75226 0.0792583 8.35262 0.0534888 7.76815C0.0255368 7.17932 0.0190735 6.99238 0.0190735 5.49893C0.0190735 4.00547 0.0255368 3.81854 0.0513063 3.23188C0.0770758 2.64741 0.171676 2.24559 0.307071 1.89741C0.446746 1.52782 0.66373 1.19693 0.943082 0.92186C1.21815 0.642509 1.55123 0.425441 1.91653 0.287947C2.26681 0.152553 2.66645 0.0580359 3.251 0.0322666C3.83757 0.00641346 4.02459 3.33786e-05 5.51805 3.33786e-05C7.0115 3.33786e-05 7.19844 0.00641346 7.78509 0.0322666C8.36956 0.0580359 8.77138 0.152553 9.11948 0.287947C9.85874 0.573762 10.4432 1.15823 10.729 1.89741C10.8643 2.24769 10.9589 2.64741 10.9847 3.23188C11.0105 3.81854 11.0169 4.00547 11.0169 5.49893C11.0169 6.99238 11.0148 7.17932 10.989 7.76597ZM9.99841 3.27486C9.97474 2.73764 9.88451 2.44755 9.8093 2.25415C9.62446 1.77494 9.24413 1.39461 8.76492 1.20977C8.57152 1.13456 8.27933 1.04433 7.74421 1.02074C7.16402 0.994887 6.99001 0.988508 5.52233 0.988508C4.05464 0.988508 3.87845 0.994887 3.30036 1.02074C2.76315 1.04433 2.47305 1.13456 2.27965 1.20977C2.04118 1.29791 1.82411 1.43759 1.64792 1.62024C1.46527 1.79861 1.3256 2.0135 1.23746 2.25197C1.16225 2.44537 1.07201 2.73764 1.04843 3.27268C1.02257 3.85287 1.01619 4.02696 1.01619 5.49464C1.01619 6.96233 1.02257 7.13852 1.04843 7.71653C1.07201 8.25374 1.16225 8.54384 1.23746 8.73724C1.3256 8.97579 1.46527 9.19278 1.65011 9.36905C1.82839 9.5517 2.04328 9.69138 2.28184 9.77943C2.47523 9.85464 2.76751 9.94488 3.30254 9.96855C3.88273 9.99432 4.05683 10.0008 5.52443 10.0008C6.9943 10.0008 7.1683 9.99432 7.7464 9.96855C8.28361 9.94488 8.5737 9.85464 8.7671 9.77943C9.00558 9.69138 9.22264 9.5517 9.39883 9.36905C9.58149 9.19068 9.72116 8.97579 9.8093 8.73724C9.88451 8.54384 9.97474 8.25165 9.99841 7.71653C10.0242 7.13634 10.0306 6.96233 10.0306 5.49464C10.0306 4.02696 10.0242 3.85505 9.99841 3.27486Z" fill="#0DAC1F"/>
<path d="M5.52039 8.32471C3.96037 8.32471 2.69464 7.05906 2.69464 5.49896C2.69464 3.93886 3.96037 2.67321 5.52039 2.67321C7.08049 2.67321 8.34613 3.93886 8.34613 5.49896C8.34613 7.05906 7.08049 8.32471 5.52039 8.32471ZM5.52039 3.66597C4.50833 3.66597 3.6874 4.48682 3.6874 5.49896C3.6874 6.51111 4.50833 7.33195 5.52039 7.33195C6.53253 7.33195 7.35338 6.51111 7.35338 5.49896C7.35338 4.48682 6.53253 3.66597 5.52039 3.66597Z" fill="#0DAC1F"/>
<path d="M9.11764 8.43626C9.11764 8.07197 8.82225 7.77658 8.45787 7.77658C8.09357 7.77658 7.79819 8.07197 7.79819 8.43626C7.79819 8.80065 8.09357 9.09595 8.45787 9.09595C8.82225 9.09595 9.11764 8.80065 9.11764 8.43626Z" fill="#0DAC1F"/>
</g>
<defs>
<clipPath id="clip0_1_398">
<rect width="11" height="11" fill="white" transform="matrix(1 0 0 -1 0 11)"/>
</clipPath>
</defs>
</svg>
