<svg width="11" height="11" viewBox="0 0 11 11" fill="none" xmlns="http://www.w3.org/2000/svg">
<path d="M8.09494 0H2.90506C1.276 0 0 1.276 0 2.90506V8.09494C0 9.724 1.276 11 2.90506 11H8.09494C9.724 11 11 9.724 11 8.09494V2.90506C11 1.276 9.72365 0 8.09494 0ZM10.2903 8.09494C10.2903 9.32623 9.32587 10.2903 8.09494 10.2903H2.90506C1.67413 10.2903 0.709677 9.32587 0.709677 8.09494V2.90506C0.709677 1.67413 1.67413 0.709677 2.90506 0.709677H8.09494C9.32623 0.709677 10.2903 1.67413 10.2903 2.90506V8.09494Z" fill="#0DAC1F"/>
<path d="M8.95996 2.8085C8.84606 2.72512 8.69348 2.71802 8.57177 2.78899C8.45041 2.86031 8.18144 2.89544 7.9657 2.92383C7.92099 2.92986 7.87699 2.93554 7.83441 2.94157C7.53244 2.69105 7.14674 2.55054 6.74896 2.55054C5.85299 2.55054 5.11777 3.24389 5.06561 4.11609C4.25303 3.97912 3.50893 3.55544 2.98164 2.91886C2.90322 2.82376 2.78151 2.77728 2.65874 2.79325C2.53667 2.81028 2.43235 2.88941 2.38303 3.00225C2.36032 3.05405 2.16232 3.54125 2.16232 4.74628C2.16232 5.78986 2.9859 6.55667 3.5508 6.96012C3.16438 7.13576 2.71906 7.20034 2.29609 7.15351C2.13074 7.13576 1.97603 7.23299 1.92138 7.38876C1.86674 7.54489 1.92706 7.71805 2.06687 7.80641C2.73396 8.22725 3.50503 8.44973 4.29703 8.44973C6.84051 8.44973 8.3798 6.45163 8.43693 4.48157C8.51003 4.37547 8.64948 4.16896 8.88509 3.80667C8.97948 3.66083 9.05861 3.34644 9.09728 3.17221C9.12815 3.03454 9.07386 2.89154 8.95996 2.8085ZM7.7968 4.15902C7.75315 4.21934 7.72938 4.29244 7.72938 4.36696C7.72938 5.7675 6.66451 7.74005 4.29738 7.74005C4.08341 7.74005 3.87122 7.72054 3.66328 7.68221C3.94077 7.57718 4.20299 7.43063 4.44393 7.24505C4.54045 7.17089 4.5919 7.05167 4.58054 6.93067C4.56919 6.80967 4.49645 6.70251 4.38751 6.6475C4.37225 6.6397 2.87235 5.85089 2.87235 4.74663C2.87235 4.37654 2.89222 4.08557 2.91848 3.86415C3.61503 4.46383 4.50141 4.82257 5.43428 4.8687C5.44138 4.86905 5.44883 4.86941 5.45557 4.86905C5.66209 4.86302 5.81396 4.7115 5.81396 4.51421C5.81396 4.46525 5.80403 4.41876 5.78593 4.37618C5.77706 4.32296 5.77245 4.26938 5.77245 4.2158C5.77245 3.68886 6.21032 3.26021 6.74896 3.26021C7.01935 3.26021 7.27945 3.37092 7.4629 3.5636C7.54664 3.65089 7.66906 3.69028 7.78722 3.66721C7.86777 3.65196 7.96073 3.63989 8.05832 3.62712C8.09309 3.6225 8.12822 3.61789 8.16406 3.61292C7.89757 4.01886 7.80141 4.15263 7.7968 4.15902Z" fill="#0DAC1F"/>
</svg>
