<svg width="13" height="13" viewBox="0 0 13 13" fill="none" xmlns="http://www.w3.org/2000/svg">
<path d="M8.60673 6.17703L5.55985 4.27274C5.44242 4.19936 5.29444 4.19547 5.17336 4.26258C5.05224 4.32969 4.97711 4.45725 4.97711 4.5957V8.4043C4.97711 8.54275 5.05224 8.67029 5.17336 8.73742C5.23089 8.76931 5.29447 8.78516 5.35797 8.78516C5.42813 8.78516 5.49818 8.76579 5.55983 8.72727L8.6067 6.82297C8.71807 6.75337 8.78571 6.63132 8.78571 6.5C8.78571 6.36868 8.71809 6.24663 8.60673 6.17703ZM5.73886 7.71713V5.28285L7.68627 6.5L5.73886 7.71713Z" fill="#0DAC1F"/>
<path d="M11.0957 1.54883H1.9043C0.854268 1.54883 0 2.4031 0 3.45312V9.54688C0 10.5969 0.854268 11.4512 1.9043 11.4512H11.0957C12.1457 11.4512 13 10.5969 13 9.54688V3.45312C13 2.4031 12.1457 1.54883 11.0957 1.54883ZM12.2383 9.54688C12.2383 10.1769 11.7257 10.6895 11.0957 10.6895H1.9043C1.27428 10.6895 0.761719 10.1769 0.761719 9.54688V3.45312C0.761719 2.82311 1.27428 2.31055 1.9043 2.31055H11.0957C11.7257 2.31055 12.2383 2.82311 12.2383 3.45312V9.54688Z" fill="#0DAC1F"/>
</svg>
