<svg width="46" height="51" viewBox="0 0 46 51" fill="none" xmlns="http://www.w3.org/2000/svg">
<path d="M22.96 38.632C24.048 38.632 25.232 38.536 26.512 38.344C27.856 38.088 28.848 37.768 29.488 37.384V29.704L22.576 30.28C20.784 30.408 19.312 30.792 18.16 31.432C17.008 32.072 16.432 33.032 16.432 34.312C16.432 35.592 16.912 36.648 17.872 37.48C18.896 38.248 20.592 38.632 22.96 38.632ZM22.192 0.903996C25.648 0.903996 28.784 1.256 31.6 1.96C34.48 2.664 36.912 3.752 38.896 5.224C40.944 6.632 42.512 8.456 43.6 10.696C44.688 12.872 45.232 15.464 45.232 18.472V39.976C45.232 41.64 44.752 43.016 43.792 44.104C42.896 45.128 41.808 46.024 40.528 46.792C36.368 49.288 30.512 50.536 22.96 50.536C19.568 50.536 16.496 50.216 13.744 49.576C11.056 48.936 8.72 47.976 6.736 46.696C4.816 45.416 3.312 43.784 2.224 41.8C1.2 39.816 0.688 37.512 0.688 34.888C0.688 30.472 2 27.08 4.624 24.712C7.248 22.344 11.312 20.872 16.816 20.296L29.392 18.952V18.28C29.392 16.424 28.56 15.112 26.896 14.344C25.296 13.512 22.96 13.096 19.888 13.096C17.52 13.096 15.152 13.352 12.784 13.864C10.48 14.376 8.4 15.016 6.544 15.784C5.712 15.208 5.008 14.344 4.432 13.192C3.856 11.976 3.568 10.728 3.568 9.448C3.568 7.784 3.952 6.472 4.72 5.512C5.552 4.488 6.8 3.624 8.464 2.92C10.32 2.216 12.496 1.704 14.992 1.384C17.552 1.064 19.952 0.903996 22.192 0.903996Z" fill="#C80429"/>
</svg>
