<svg width="87" height="21" viewBox="0 0 87 21" fill="none" xmlns="http://www.w3.org/2000/svg">
<path d="M6 14.056C6.464 14.056 6.888 14.016 7.272 13.936C7.656 13.84 7.936 13.728 8.112 13.6V10.936L5.784 11.152C5.144 11.216 4.656 11.36 4.32 11.584C3.984 11.792 3.816 12.128 3.816 12.592C3.816 13.056 3.984 13.416 4.32 13.672C4.672 13.928 5.232 14.056 6 14.056ZM5.904 4.288C7.472 4.288 8.72 4.624 9.648 5.296C10.592 5.968 11.064 7.008 11.064 8.416V13.96C11.064 14.344 10.968 14.648 10.776 14.872C10.584 15.096 10.344 15.296 10.056 15.472C9.608 15.744 9.04 15.96 8.352 16.12C7.664 16.28 6.88 16.36 6 16.36C4.4 16.36 3.136 16.056 2.208 15.448C1.296 14.824 0.84 13.896 0.84 12.664C0.84 11.592 1.176 10.776 1.848 10.216C2.536 9.64 3.528 9.288 4.824 9.16L8.112 8.824V8.392C8.112 7.784 7.888 7.336 7.44 7.048C7.008 6.76 6.392 6.616 5.592 6.616C4.968 6.616 4.36 6.696 3.768 6.856C3.176 7 2.648 7.184 2.184 7.408C2.008 7.28 1.856 7.112 1.728 6.904C1.616 6.68 1.56 6.44 1.56 6.184C1.56 5.864 1.632 5.608 1.776 5.416C1.936 5.208 2.184 5.024 2.52 4.864C2.984 4.672 3.512 4.528 4.104 4.432C4.696 4.336 5.296 4.288 5.904 4.288Z" fill="#C80429"/>
<path d="M23.2911 15.016C22.9711 15.176 22.5951 15.312 22.1631 15.424C21.7471 15.536 21.2591 15.592 20.6991 15.592C19.9791 15.592 19.2991 15.496 18.6591 15.304C18.0191 15.096 17.4591 14.768 16.9791 14.32C16.4991 13.872 16.1151 13.296 15.8271 12.592C15.5551 11.872 15.4191 11 15.4191 9.976C15.4191 9.048 15.5551 8.232 15.8271 7.528C16.1151 6.808 16.5151 6.208 17.0271 5.728C17.5551 5.248 18.1791 4.888 18.8991 4.648C19.6191 4.408 20.4191 4.288 21.2991 4.288C22.1311 4.288 22.8911 4.392 23.5791 4.6C24.2831 4.808 24.8431 5.048 25.2591 5.32C25.5471 5.512 25.7711 5.728 25.9311 5.968C26.1071 6.208 26.1951 6.512 26.1951 6.88V16.144C26.1951 16.96 26.0431 17.664 25.7391 18.256C25.4511 18.848 25.0511 19.328 24.5391 19.696C24.0271 20.08 23.4271 20.36 22.7391 20.536C22.0511 20.712 21.3071 20.8 20.5071 20.8C19.6751 20.8 18.9471 20.72 18.3231 20.56C17.7151 20.416 17.2591 20.248 16.9551 20.056C16.4271 19.72 16.1631 19.272 16.1631 18.712C16.1631 18.408 16.2271 18.144 16.3551 17.92C16.4831 17.696 16.6351 17.528 16.8111 17.416C17.2271 17.672 17.7311 17.896 18.3231 18.088C18.9151 18.28 19.5471 18.376 20.2191 18.376C21.1791 18.376 21.9311 18.192 22.4751 17.824C23.0191 17.456 23.2911 16.864 23.2911 16.048V15.016ZM21.2031 13.24C21.6671 13.24 22.0591 13.176 22.3791 13.048C22.7151 12.92 23.0031 12.768 23.2431 12.592V7.168C23.0191 7.04 22.7551 6.928 22.4511 6.832C22.1631 6.736 21.8111 6.688 21.3951 6.688C20.5151 6.688 19.8031 6.96 19.2591 7.504C18.7311 8.032 18.4671 8.856 18.4671 9.976C18.4671 10.584 18.5311 11.096 18.6591 11.512C18.8031 11.928 18.9951 12.264 19.2351 12.52C19.4911 12.776 19.7871 12.96 20.1231 13.072C20.4591 13.184 20.8191 13.24 21.2031 13.24ZM33.5818 11.68C33.8058 12.496 34.2218 13.088 34.8298 13.456C35.4378 13.824 36.1898 14.008 37.0858 14.008C37.7578 14.008 38.3738 13.912 38.9338 13.72C39.5098 13.512 39.9738 13.296 40.3258 13.072C40.5498 13.2 40.7338 13.376 40.8778 13.6C41.0218 13.824 41.0938 14.064 41.0938 14.32C41.0938 14.64 40.9818 14.928 40.7578 15.184C40.5498 15.424 40.2538 15.632 39.8698 15.808C39.5018 15.984 39.0618 16.12 38.5498 16.216C38.0378 16.312 37.4858 16.36 36.8938 16.36C35.9498 16.36 35.0858 16.232 34.3018 15.976C33.5338 15.72 32.8698 15.336 32.3098 14.824C31.7658 14.296 31.3338 13.648 31.0138 12.88C30.7098 12.112 30.5578 11.216 30.5578 10.192C30.5578 9.2 30.7098 8.336 31.0138 7.6C31.3178 6.864 31.7258 6.248 32.2378 5.752C32.7658 5.256 33.3738 4.888 34.0618 4.648C34.7498 4.408 35.4778 4.288 36.2458 4.288C37.0298 4.288 37.7498 4.416 38.4058 4.672C39.0618 4.912 39.6218 5.256 40.0858 5.704C40.5498 6.136 40.9098 6.664 41.1658 7.288C41.4378 7.896 41.5738 8.56 41.5738 9.28C41.5738 9.728 41.4538 10.064 41.2138 10.288C40.9898 10.512 40.6698 10.656 40.2538 10.72L33.5818 11.68ZM36.2458 6.568C35.4618 6.568 34.8058 6.832 34.2778 7.36C33.7498 7.872 33.4538 8.608 33.3898 9.568L38.7178 8.776C38.6538 8.184 38.4218 7.672 38.0218 7.24C37.6218 6.792 37.0298 6.568 36.2458 6.568ZM53.3861 8.68C53.3861 7.992 53.1861 7.488 52.7861 7.168C52.4021 6.848 51.8741 6.688 51.2021 6.688C50.7381 6.688 50.3061 6.744 49.9061 6.856C49.5221 6.968 49.1861 7.112 48.8981 7.288V15.976C48.7541 16.008 48.5621 16.048 48.3221 16.096C48.0821 16.144 47.8101 16.168 47.5061 16.168C46.9461 16.168 46.5301 16.064 46.2581 15.856C45.9861 15.648 45.8501 15.28 45.8501 14.752V7.048C45.8501 6.664 45.9301 6.352 46.0901 6.112C46.2501 5.872 46.4981 5.64 46.8341 5.416C47.2981 5.096 47.9141 4.832 48.6821 4.624C49.4501 4.4 50.2981 4.288 51.2261 4.288C52.8741 4.288 54.1461 4.656 55.0421 5.392C55.9541 6.112 56.4101 7.176 56.4101 8.584V15.976C56.2821 16.008 56.0901 16.048 55.8341 16.096C55.5941 16.144 55.3301 16.168 55.0421 16.168C54.4661 16.168 54.0421 16.064 53.7701 15.856C53.5141 15.648 53.3861 15.28 53.3861 14.752V8.68ZM71.9233 13.792C71.9233 14.16 71.8433 14.456 71.6833 14.68C71.5233 14.904 71.2833 15.12 70.9633 15.328C70.5633 15.584 70.0353 15.816 69.3793 16.024C68.7233 16.248 67.9633 16.36 67.0993 16.36C65.1793 16.36 63.6513 15.872 62.5153 14.896C61.3953 13.904 60.8353 12.392 60.8353 10.36C60.8353 9.304 60.9873 8.4 61.2913 7.648C61.5953 6.88 62.0033 6.248 62.5153 5.752C63.0433 5.256 63.6593 4.888 64.3633 4.648C65.0673 4.408 65.8273 4.288 66.6433 4.288C67.0753 4.288 67.4833 4.336 67.8673 4.432C68.2513 4.512 68.5953 4.616 68.8993 4.744V0.399999C69.0273 0.351999 69.2113 0.311999 69.4513 0.279999C69.7073 0.231999 69.9793 0.207999 70.2673 0.207999C70.8433 0.207999 71.2593 0.311999 71.5153 0.519999C71.7873 0.727999 71.9233 1.096 71.9233 1.624V13.792ZM68.8993 7.192C68.6593 7.048 68.3793 6.928 68.0593 6.832C67.7393 6.736 67.3953 6.688 67.0273 6.688C66.1313 6.688 65.3873 6.976 64.7953 7.552C64.2033 8.128 63.9073 9.072 63.9073 10.384C63.9073 11.616 64.1873 12.52 64.7473 13.096C65.3233 13.656 66.0993 13.936 67.0753 13.936C67.4913 13.936 67.8433 13.888 68.1313 13.792C68.4353 13.696 68.6913 13.584 68.8993 13.456V7.192ZM81.4125 14.056C81.8765 14.056 82.3005 14.016 82.6845 13.936C83.0685 13.84 83.3485 13.728 83.5245 13.6V10.936L81.1965 11.152C80.5565 11.216 80.0685 11.36 79.7325 11.584C79.3965 11.792 79.2285 12.128 79.2285 12.592C79.2285 13.056 79.3965 13.416 79.7325 13.672C80.0845 13.928 80.6445 14.056 81.4125 14.056ZM81.3165 4.288C82.8845 4.288 84.1325 4.624 85.0605 5.296C86.0045 5.968 86.4765 7.008 86.4765 8.416V13.96C86.4765 14.344 86.3805 14.648 86.1885 14.872C85.9965 15.096 85.7565 15.296 85.4685 15.472C85.0205 15.744 84.4525 15.96 83.7645 16.12C83.0765 16.28 82.2925 16.36 81.4125 16.36C79.8125 16.36 78.5485 16.056 77.6205 15.448C76.7085 14.824 76.2525 13.896 76.2525 12.664C76.2525 11.592 76.5885 10.776 77.2605 10.216C77.9485 9.64 78.9405 9.288 80.2365 9.16L83.5245 8.824V8.392C83.5245 7.784 83.3005 7.336 82.8525 7.048C82.4205 6.76 81.8045 6.616 81.0045 6.616C80.3805 6.616 79.7725 6.696 79.1805 6.856C78.5885 7 78.0605 7.184 77.5965 7.408C77.4205 7.28 77.2685 7.112 77.1405 6.904C77.0285 6.68 76.9725 6.44 76.9725 6.184C76.9725 5.864 77.0445 5.608 77.1885 5.416C77.3485 5.208 77.5965 5.024 77.9325 4.864C78.3965 4.672 78.9245 4.528 79.5165 4.432C80.1085 4.336 80.7085 4.288 81.3165 4.288Z" fill="#121212"/>
</svg>
