<svg width="48" height="48" viewBox="0 0 48 48" fill="none" xmlns="http://www.w3.org/2000/svg">
<path fill-rule="evenodd" clip-rule="evenodd" d="M36.4767 23.4447C35.935 25.7479 34.6906 27.7589 32.9855 29.2508L34.8255 36.6964C35.7511 40.4418 31.8926 43.3213 28.6504 41.718L25.1847 40.004C24.4214 39.6266 23.5214 39.6266 22.7582 40.004L19.2925 41.718C16.0503 43.3213 12.1917 40.4418 13.1173 36.6964L14.9573 29.2508C13.2523 27.7589 12.0079 25.7479 11.4662 23.4447C10.8065 20.6399 10.8065 17.7203 11.4662 14.9155C12.4345 10.7986 15.6479 7.61518 19.7243 6.66155C22.518 6.008 25.4249 6.008 28.2186 6.66155C32.295 7.61518 35.5084 10.7986 36.4767 14.9155C37.1364 17.7203 37.1364 20.6399 36.4767 23.4447ZM28.2186 31.6987C28.346 31.6689 28.4725 31.6369 28.5982 31.6028C29.2966 31.4132 29.9675 31.1577 30.6037 30.843L32.219 37.3794C32.5282 38.631 31.1958 39.9043 29.8148 39.2213L26.3491 37.5074C24.8498 36.766 23.093 36.766 21.5938 37.5074L18.1281 39.2213C16.747 39.9043 15.4146 38.631 15.7239 37.3794L17.3392 30.843C17.9379 31.1391 18.5672 31.3828 19.2214 31.5685C19.3875 31.6157 19.5551 31.6591 19.7243 31.6987C22.518 32.3522 25.4249 32.3522 28.2186 31.6987Z" fill="#C80429"/>
</svg>
