<svg width="48" height="48" viewBox="0 0 48 48" fill="none" xmlns="http://www.w3.org/2000/svg">
<path fill-rule="evenodd" clip-rule="evenodd" d="M29.9405 6.6874C26.0332 5.77087 21.9668 5.77087 18.0595 6.6874C12.4168 8.01099 8.01099 12.4168 6.6874 18.0595C5.77087 21.9668 5.77087 26.0332 6.6874 29.9405C8.01099 35.5832 12.4168 39.989 18.0595 41.3126C21.9668 42.2291 26.0332 42.2291 29.9405 41.3126C35.5832 39.989 39.989 35.5832 41.3126 29.9405C42.2291 26.0332 42.2291 21.9668 41.3126 18.0595C39.989 12.4168 35.5832 8.01099 29.9405 6.6874ZM21.5523 16.8747C21.7866 17.1091 21.7866 17.489 21.5523 17.7233L17.7232 21.5524C17.6107 21.6649 17.458 21.7282 17.2989 21.7282C17.1398 21.7282 16.9872 21.6649 16.8747 21.5524L14.9601 19.6378C14.7258 19.4035 14.7258 19.0236 14.9601 18.7893C15.1944 18.555 15.5743 18.555 15.8086 18.7893L17.2989 20.2796L20.7038 16.8747C20.9381 16.6404 21.318 16.6404 21.5523 16.8747ZM25.3145 20.1709C25.3145 19.8395 25.5831 19.5709 25.9145 19.5709H32.6155C32.9469 19.5709 33.2155 19.8395 33.2155 20.1709C33.2155 20.5022 32.9469 20.7709 32.6155 20.7709H25.9145C25.5831 20.7709 25.3145 20.5022 25.3145 20.1709ZM21.5523 26.4476C21.7866 26.6819 21.7866 27.0618 21.5523 27.2961L17.7232 31.1253C17.6107 31.2378 17.458 31.301 17.2989 31.301C17.1398 31.301 16.9872 31.2378 16.8747 31.1253L14.9601 29.2107C14.7258 28.9764 14.7258 28.5965 14.9601 28.3622C15.1944 28.1279 15.5743 28.1279 15.8086 28.3622L17.2989 29.8525L20.7038 26.4476C20.9381 26.2133 21.318 26.2133 21.5523 26.4476ZM25.3145 29.7437C25.3145 29.4124 25.5831 29.1437 25.9145 29.1437H32.6155C32.9469 29.1437 33.2155 29.4124 33.2155 29.7437C33.2155 30.0751 32.9469 30.3437 32.6155 30.3437H25.9145C25.5831 30.3437 25.3145 30.0751 25.3145 29.7437Z" fill="#C80429"/>
</svg>
