<svg width="48" height="48" viewBox="0 0 48 48" fill="none" xmlns="http://www.w3.org/2000/svg">
<path fill-rule="evenodd" clip-rule="evenodd" d="M24 6C15.1355 6 8 13.4058 8 22.4778C8 26.9815 9.75658 31.8064 12.5669 35.514C15.3709 39.2131 19.3887 42 24 42C28.6113 42 32.6291 39.2131 35.4331 35.514C38.2434 31.8064 40 26.9815 40 22.4778C40 13.4058 32.8645 6 24 6ZM18.3314 21.2308C18.3314 18.07 20.8693 15.5077 24 15.5077C27.1307 15.5077 29.6686 18.07 29.6686 21.2308C29.6686 24.3915 27.1307 26.9538 24 26.9538C20.8693 26.9538 18.3314 24.3915 18.3314 21.2308ZM24 17.7231C22.0812 17.7231 20.5257 19.2935 20.5257 21.2308C20.5257 23.168 22.0812 24.7385 24 24.7385C25.9188 24.7385 27.4743 23.168 27.4743 21.2308C27.4743 19.2935 25.9188 17.7231 24 17.7231Z" fill="#C80429"/>
</svg>
