<svg width="48" height="48" viewBox="0 0 48 48" fill="none" xmlns="http://www.w3.org/2000/svg">
<path d="M24 5C18.784 5 14.5556 9.13177 14.5556 14.2286C14.5556 19.3254 18.784 23.4571 24 23.4571C29.216 23.4571 33.4444 19.3254 33.4444 14.2286C33.4444 9.13177 29.216 5 24 5Z" fill="#C80429"/>
<path d="M29.5735 27.5628C25.8812 26.987 22.1188 26.987 18.4265 27.5628L18.0307 27.6246C12.8282 28.4359 9 32.8209 9 37.9689C9 40.7475 11.3052 43 14.1488 43H33.8512C36.6948 43 39 40.7475 39 37.9689C39 32.8209 35.1718 28.4359 29.9693 27.6246L29.5735 27.5628Z" fill="#C80429"/>
</svg>
